<?xml version="1.0" encoding="iso-8859-1"?>
<!-- Generator: Adobe Illustrator 19.0.0, SVG Export Plug-In . SVG Version: 6.00 Build 0)  -->
<svg version="1.1" id="Capa_1" xmlns="http://www.w3.org/2000/svg" xmlns:xlink="http://www.w3.org/1999/xlink" x="0px" y="0px"
	 viewBox="0 0 496 496" style="enable-background:new 0 0 496 496;" xml:space="preserve">
<path style="fill:#F0BC5E;" d="M440,408H56c-13.232,0-24-10.768-24-24V112c0-13.232,10.768-24,24-24h384c13.232,0,24,10.768,24,24
	v272C464,397.232,453.232,408,440,408z"/>
<polygon points="400,360 400,136 96,136 96,360 112,360 112,152 128,152 128,360 144,360 144,152 160,152 160,328 176,328 176,152 
	192,152 192,328 208,328 208,152 224,152 224,328 240,328 240,152 256,152 256,360 272,360 272,152 288,152 288,328 304,328 
	304,152 320,152 320,328 336,328 336,152 352,152 352,360 368,360 368,152 384,152 384,360 "/>
<path d="M440,56h-48v16h48c22.056,0,40,17.944,40,40v48h16v-48C496,81.12,470.88,56,440,56z"/>
<path d="M16,112c0-22.056,17.944-40,40-40h48V56H56C25.12,56,0,81.12,0,112v48h16V112z"/>
<path d="M16,384v-48H0v48c0,30.872,25.12,56,56,56h48v-16H56C33.944,424,16,406.056,16,384z"/>
<path d="M480,384c0,22.056-17.944,40-40,40h-48v16h48c30.88,0,56-25.128,56-56v-48h-16V384z"/>
<rect x="320" y="344" width="16" height="16"/>
<rect x="288" y="344" width="16" height="16"/>
<rect x="160" y="344" width="16" height="16"/>
<rect x="192" y="344" width="16" height="16"/>
<rect x="224" y="344" width="16" height="16"/>
<g>
</g>
<g>
</g>
<g>
</g>
<g>
</g>
<g>
</g>
<g>
</g>
<g>
</g>
<g>
</g>
<g>
</g>
<g>
</g>
<g>
</g>
<g>
</g>
<g>
</g>
<g>
</g>
<g>
</g>
</svg>
