<?xml version="1.0" encoding="iso-8859-1"?>
<!-- Generator: Adobe Illustrator 19.0.0, SVG Export Plug-In . SVG Version: 6.00 Build 0)  -->
<svg version="1.1" id="Capa_1" xmlns="http://www.w3.org/2000/svg" xmlns:xlink="http://www.w3.org/1999/xlink" x="0px" y="0px"
	 viewBox="0 0 496 496" style="enable-background:new 0 0 496 496;" xml:space="preserve">
<g>
	<polygon style="fill:#F0BC5E;" points="400,432 96,432 104,464 392,464 	"/>
	<rect x="104" y="184" style="fill:#F0BC5E;" width="144" height="32"/>
	<path style="fill:#F0BC5E;" d="M416,32.016c-0.008,33.336-29.312,59.968-63.504,55.496c-4.48-34.2,22.152-63.504,55.488-63.512
		C412.392,24,416,27.608,416,32.016z"/>
	<path style="fill:#F0BC5E;" d="M335.504,103.504c-34.2,4.472-63.496-22.16-63.504-55.496c0-4.4,3.608-8.008,8.016-8.008
		C313.352,40.008,339.984,69.312,335.504,103.504z"/>
</g>
<path d="M496,272v-16h-94.416l15.28-84.008L376,147.472V112h-24V0h-16v112h-24v35.472l-40.856,24.52L286.416,256H271.32
	c-2.512-7.04-8.176-12.504-15.32-14.776V123.176c0-19.56-10.424-37.96-27.184-48.016L216,67.472V32h-16V0h-48v32h-16v35.472
	l-12.816,7.688C106.424,85.216,96,103.616,96,123.176V256H0v16h64.984l10.648,81.296l-34.544,27.592
	C35.312,385.512,32,392.4,32,399.792C32,413.144,42.856,424,56.208,424h2.256c5.336,0,10.592-1.8,14.8-5.056l9.952-7.688
	l8.36,63.864c1.56,11.904,11.8,20.88,23.8,20.88h265.248c12,0,22.232-8.976,23.8-20.88l8.36-63.856l9.944,7.68
	c4.208,3.256,9.464,5.056,14.8,5.056h2.256c13.36,0,24.216-10.856,24.216-24.208c0-7.392-3.312-14.272-9.088-18.904l-34.208-27.352
	l-0.328-0.24L431.016,272H496z M288.856,180.008L328,156.528V128h32v28.528l39.144,23.48L385.328,256h-82.656L288.856,180.008z
	 M248.8,272c-4.416,0-8-3.584-8-8s3.584-8,8-8c4.416,0,8,3.584,8,8S253.208,272,248.8,272z M168,16h16v16h-16V16z M200,48v16h-48V48
	H200z M131.424,88.872L146.216,80h59.568l14.792,8.872C232.552,96.064,240,109.208,240,123.176V208H112v-84.824
	C112,109.208,119.448,96.064,131.424,88.872z M112,224h128v17.72c-6.408,2.544-11.408,7.76-13.728,14.28H112V224z M226.272,272
	c0.776,2.184,1.824,4.216,3.16,6.056L95.456,381.576L81.112,272H226.272z M63.48,406.288c-1.424,1.104-3.208,1.712-5.008,1.712
	h-2.264C51.68,408,48,404.32,48,399.792c0-2.504,1.128-4.84,3.088-6.408l26.968-21.576l2.76,21.088L63.48,406.288z M380.624,480
	H115.376c-4,0-7.416-2.992-7.936-6.96l-1.184-9.04h283.496l-1.184,9.04C388.04,477.008,384.624,480,380.624,480z M391.84,448H104.16
	l-6.296-48.064l145.664-112.56c1.704,0.384,3.456,0.624,5.272,0.624c1.352,0,2.664-0.184,3.96-0.4l145.376,112.344L391.84,448z
	 M444.912,393.376c1.96,1.568,3.088,3.904,3.088,6.416c0,4.528-3.68,8.208-8.208,8.208h-2.256c-1.808,0-3.584-0.608-5.016-1.712
	l-17.328-13.392l2.744-20.936L444.912,393.376z M400.536,381.576l-133-102.768c1.616-2.04,2.896-4.312,3.784-6.808h143.56
	L400.536,381.576z"/>
<path d="M208,123.176V160h16v-36.824c0-8.384-4.472-16.28-11.664-20.592l-8.216,13.728C206.504,117.752,208,120.384,208,123.176z"/>
<g>
</g>
<g>
</g>
<g>
</g>
<g>
</g>
<g>
</g>
<g>
</g>
<g>
</g>
<g>
</g>
<g>
</g>
<g>
</g>
<g>
</g>
<g>
</g>
<g>
</g>
<g>
</g>
<g>
</g>
</svg>
