<?xml version="1.0" encoding="iso-8859-1"?>
<!-- Generator: Adobe Illustrator 19.0.0, SVG Export Plug-In . SVG Version: 6.00 Build 0)  -->
<svg version="1.1" id="Capa_1" xmlns="http://www.w3.org/2000/svg" xmlns:xlink="http://www.w3.org/1999/xlink" x="0px" y="0px"
	 viewBox="0 0 496 496" style="enable-background:new 0 0 496 496;" xml:space="preserve">
<path style="fill:#F0BC5E;" d="M248,288c-9.872,0-19.28-3.696-26.592-10.296c-9.28,3.296-19.376,3.128-28.512-0.664
	c-9.128-3.784-16.408-10.792-20.624-19.696c-9.84-0.496-19.112-4.528-26.088-11.52c-6.992-6.984-11.032-16.24-11.52-26.088
	c-8.904-4.216-15.912-11.504-19.696-20.624c-3.784-9.136-3.968-19.24-0.664-28.512C107.696,163.28,104,153.872,104,144
	s3.696-19.28,10.296-26.592c-3.304-9.272-3.12-19.384,0.664-28.512c3.784-9.128,10.792-16.408,19.696-20.624
	c0.496-9.84,4.528-19.112,11.52-26.088c6.976-6.992,16.24-11.032,26.088-11.52c4.216-8.904,11.504-15.912,20.624-19.696
	c9.128-3.792,19.232-3.976,28.512-0.664C228.72,3.696,238.128,0,248,0c9.872,0,19.28,3.696,26.592,10.296
	c9.272-3.312,19.368-3.128,28.512,0.664c9.128,3.784,16.408,10.792,20.624,19.696c9.84,0.496,19.112,4.528,26.088,11.52
	c6.992,6.984,11.032,16.24,11.52,26.088c8.904,4.216,15.912,11.504,19.696,20.624c3.784,9.136,3.968,19.24,0.664,28.512
	C388.304,124.72,392,134.128,392,144s-3.696,19.28-10.296,26.592c3.304,9.272,3.12,19.384-0.664,28.512
	c-3.784,9.128-10.792,16.408-19.696,20.624c-0.496,9.84-4.528,19.112-11.52,26.088c-6.976,6.992-16.24,11.032-26.088,11.52
	c-4.216,8.904-11.504,15.912-20.624,19.696c-9.136,3.792-19.24,3.96-28.512,0.664C267.28,284.304,257.872,288,248,288z"/>
<path d="M248,256c61.76,0,112-50.24,112-112S309.76,32,248,32S136,82.24,136,144S186.24,256,248,256z M248,48
	c52.936,0,96,43.064,96,96s-43.064,96-96,96s-96-43.064-96-96S195.064,48,248,48z"/>
<rect x="180.119" y="132.45" transform="matrix(-0.7071 0.7071 -0.7071 -0.7071 522.6799 64.3984)" width="135.767" height="16"/>
<path d="M152,320h-24v32v16v32h24c13.232,0,24-10.768,24-24c0-6.168-2.408-11.744-6.24-16c3.84-4.256,6.24-9.832,6.24-16
	C176,330.768,165.232,320,152,320z M144,336h8c4.408,0,8,3.584,8,8s-3.592,8-8,8h-8V336z M152,384h-8v-16h8c4.408,0,8,3.584,8,8
	S156.408,384,152,384z"/>
<polygon points="192,400 232,400 232,384 208,384 208,368 224,368 224,352 208,352 208,336 232,336 232,320 192,320 "/>
<path d="M272,336c4.408,0,8,3.584,8,8h16c0-13.232-10.768-24-24-24s-24,10.768-24,24s10.768,24,24,24c4.408,0,8,3.584,8,8
	s-3.592,8-8,8s-8-3.584-8-8h-16c0,13.232,10.768,24,24,24s24-10.768,24-24s-10.768-24-24-24c-4.408,0-8-3.584-8-8
	S267.592,336,272,336z"/>
<polygon points="368,320 304,320 304,336 328,336 328,400 344,400 344,336 368,336 "/>
<path d="M496,352h-96v-64H96v64H0l54,72L0,496h192v-64h112v64h192l-54-72L496,352z M74,424l-42-56h64v59.84L161.192,480H32L74,424z
	 M176,471.352L126.808,432H176V471.352z M112,416V304h272v112H112z M369.192,432L320,471.352V432H369.192z M464,480H334.808
	L400,427.84V368h64l-42,56L464,480z"/>
<path d="M280,148.48c-13.232,0-24,10.768-24,24s10.768,24,24,24s24-10.768,24-24S293.232,148.48,280,148.48z M280,180.48
	c-4.408,0-8-3.584-8-8s3.592-8,8-8s8,3.584,8,8S284.408,180.48,280,180.48z"/>
<path d="M216,132.48c13.232,0,24-10.768,24-24s-10.768-24-24-24s-24,10.768-24,24S202.768,132.48,216,132.48z M216,100.48
	c4.408,0,8,3.584,8,8s-3.592,8-8,8s-8-3.584-8-8S211.592,100.48,216,100.48z"/>
<g>
</g>
<g>
</g>
<g>
</g>
<g>
</g>
<g>
</g>
<g>
</g>
<g>
</g>
<g>
</g>
<g>
</g>
<g>
</g>
<g>
</g>
<g>
</g>
<g>
</g>
<g>
</g>
<g>
</g>
</svg>
