<?xml version="1.0" encoding="iso-8859-1"?>
<!-- Generator: Adobe Illustrator 19.0.0, SVG Export Plug-In . SVG Version: 6.00 Build 0)  -->
<svg version="1.1" id="Capa_1" xmlns="http://www.w3.org/2000/svg" xmlns:xlink="http://www.w3.org/1999/xlink" x="0px" y="0px"
	 viewBox="0 0 496 496" style="enable-background:new 0 0 496 496;" xml:space="preserve">
<g>
	<path style="fill:#F0BC5E;" d="M144.376,323.768C134.648,318.28,128,307.968,128,296s6.648-22.28,16.376-27.768
		c-5.68-9.616-6.28-21.872-0.296-32.232c5.984-10.368,16.896-15.968,28.064-15.856c-0.056-5.472,1.28-10.872,3.856-15.672V176
		c0-8.84-7.16-16-16-16H48c-8.84,0-16,7.16-16,16v144c0,8.84,7.16,16,16,16h92.16C140.736,331.704,142.152,327.528,144.376,323.768z
		"/>
	<path style="fill:#F0BC5E;" d="M448,160H336c-8.84,0-16,7.16-16,16v28.472c2.576,4.8,3.912,10.2,3.856,15.672
		c11.168-0.112,22.08,5.496,28.064,15.856s5.384,22.616-0.296,32.232C361.352,273.72,368,284.032,368,296
		s-6.648,22.28-16.376,27.768c2.224,3.76,3.64,7.936,4.216,12.232H448c8.84,0,16-7.16,16-16V176C464,167.16,456.84,160,448,160z"/>
</g>
<path d="M219.376,306.008l-6.768,38.312L248,326.248l35.392,18.072l-6.768-38.312l28.928-27.384l-39.952-5.64l-17.6-34.64
	l-17.6,34.64l-39.952,5.64L219.376,306.008z M240.88,287.656l7.12-14l7.12,14l15.328,2.168l-11.072,10.48l2.672,15.16L248,308.28
	l-14.048,7.176l2.672-15.16l-11.072-10.48L240.88,287.656z"/>
<path d="M168,296c0,44.112,35.888,80,80,80s80-35.888,80-80s-35.888-80-80-80S168,251.888,168,296z M248,232
	c35.288,0,64,28.712,64,64s-28.712,64-64,64s-64-28.712-64-64S212.712,232,248,232z"/>
<rect x="64" y="192" width="80" height="16"/>
<path d="M480.912,105.712L456,95.752V64h-24V0h-80v64h-24v31.752l-24.92,9.96C293.92,109.384,288,118.128,288,128v52.136
	c-3.232,0.336-6.44,1.032-9.528,2.152C270.936,173.336,259.808,168,248,168s-22.936,5.336-30.472,14.288
	c-3.096-1.12-6.296-1.808-9.528-2.152V128c0-9.872-5.92-18.616-15.088-22.288L168,95.752V64h-24V0H64v64H40v31.752l-24.92,9.96
	C5.92,109.384,0,118.128,0,128v280c0,13.232,10.768,24,24,24h136.664l-29.088,64h23.32l41.768-34.808L210.584,496h19.176
	L248,441.288L266.232,496h19.176l13.92-34.808L341.104,496h23.32l-29.088-64H472c13.232,0,24-10.768,24-24V128
	C496,118.128,490.08,109.384,480.912,105.712z M368,16h48v48h-48V16z M223.184,203.416l4.016-7.112
	C231.488,188.72,239.464,184,248,184c8.536,0,16.512,4.72,20.8,12.304l4.016,7.112l7.024-4.152
	c7.504-4.44,16.768-4.528,24.168-0.256s11.944,12.336,11.856,21.056l-0.08,8.16l8.16-0.08c0.08,0,0.168,0,0.24,0
	c8.624,0,16.576,4.52,20.816,11.856c4.272,7.4,4.176,16.664-0.256,24.168l-4.152,7.024l7.112,4.016
	C355.28,279.488,360,287.464,360,296s-4.72,16.512-12.304,20.8l-7.112,4.016l4.152,7.024c4.44,7.504,4.528,16.768,0.256,24.168
	c-4.232,7.336-12.184,11.856-20.816,11.856c-0.08,0-0.168,0-0.24,0l-8.16-0.08l0.08,8.16c0.088,8.72-4.464,16.784-11.856,21.056
	s-16.656,4.176-24.168-0.256l-7.024-4.152l-4.008,7.104C264.512,403.28,256.536,408,248,408s-16.512-4.72-20.8-12.304l-4.016-7.112
	l-7.024,4.152c-7.504,4.44-16.76,4.528-24.168,0.256c-7.4-4.272-11.944-12.336-11.856-21.056l0.08-8.16l-8.16,0.08
	c-0.08,0-0.168,0-0.24,0c-8.624,0-16.576-4.52-20.816-11.856c-4.272-7.4-4.176-16.664,0.256-24.168l4.152-7.024l-7.104-4.008
	C140.72,312.512,136,304.536,136,296s4.72-16.512,12.304-20.8l7.112-4.016l-4.152-7.024c-4.44-7.504-4.528-16.768-0.256-24.168
	c4.232-7.336,12.184-11.856,20.816-11.856c0.08,0,0.168,0,0.24,0l8.16,0.08l-0.08-8.16c-0.088-8.72,4.464-16.784,11.856-21.056
	c7.408-4.272,16.664-4.176,24.168,0.256L223.184,203.416z M80,16h48v48H80V16z M24,416c-4.416,0-8-3.584-8-8V128
	c0-3.288,1.976-6.208,5.024-7.432L56,106.576V80h8h80h8v26.576l34.968,13.992c3.056,1.224,5.032,4.144,5.032,7.432v53.656
	c-2.76,0.856-5.448,2.016-8,3.496c-10.224,5.904-17.192,16.096-19.24,27.608c-8.176,1.456-15.648,5.424-21.424,11.24H64v16h69.656
	c-1.608,5.184-2.08,10.632-1.512,16H64v16h64.144c-3.584,4.712-6.08,10.184-7.288,16H64v16h56.856
	c1.824,8.728,6.536,16.672,13.432,22.472c-3.984,10.992-3.048,23.296,2.856,33.528c5.904,10.224,16.096,17.192,27.608,19.24
	c1.392,7.816,5.096,14.984,10.504,20.656L167.944,416H24z M219.68,475.664l-16.344-40.856l-42.448,35.376l27.76-61.08
	c9.184,3.784,19.504,4.008,28.88,0.616c5.216,6.2,12.176,10.608,19.88,12.768L219.68,475.664z M292.664,434.808l-16.344,40.856
	l-17.728-53.184c7.696-2.16,14.664-6.568,19.88-12.768c9.368,3.408,19.704,3.176,28.88-0.608l27.76,61.08L292.664,434.808z M480,408
	c0,4.416-3.584,8-8,8H328.056l-7.32-16.096c5.408-5.672,9.112-12.84,10.504-20.656c11.512-2.048,21.704-9.016,27.608-19.24
	c5.904-10.232,6.84-22.536,2.856-33.528c6.896-5.8,11.608-13.736,13.432-22.472H432v-16h-56.856c-1.216-5.816-3.704-11.288-7.288-16
	H432v-16h-68.136c0.568-5.368,0.088-10.816-1.512-16H432v-16h-79.336c-5.776-5.816-13.248-9.792-21.424-11.24
	c-2.048-11.512-9.016-21.704-19.24-27.608c-2.552-1.472-5.24-2.64-8-3.496V128c0-3.288,1.976-6.208,5.024-7.432L344,106.576V80h8h80
	h8v26.576l34.968,13.992c3.056,1.224,5.032,4.144,5.032,7.432V408z"/>
<rect x="352" y="192" width="80" height="16"/>
<rect x="96" y="32" width="16" height="16"/>
<rect x="384" y="32" width="16" height="16"/>
<rect x="368" y="120" width="16" height="16"/>
<rect x="400" y="120" width="16" height="16"/>
<rect x="64" y="120" width="16" height="16"/>
<rect x="96" y="120" width="16" height="16"/>
<rect x="128" y="120" width="16" height="16"/>
<g>
</g>
<g>
</g>
<g>
</g>
<g>
</g>
<g>
</g>
<g>
</g>
<g>
</g>
<g>
</g>
<g>
</g>
<g>
</g>
<g>
</g>
<g>
</g>
<g>
</g>
<g>
</g>
<g>
</g>
</svg>
