<?xml version="1.0" encoding="iso-8859-1"?>
<!-- Generator: Adobe Illustrator 19.0.0, SVG Export Plug-In . SVG Version: 6.00 Build 0)  -->
<svg version="1.1" id="Capa_1" xmlns="http://www.w3.org/2000/svg" xmlns:xlink="http://www.w3.org/1999/xlink" x="0px" y="0px"
	 viewBox="0 0 496 496" style="enable-background:new 0 0 496 496;" xml:space="preserve">
<circle style="fill:#F0BC5E;" cx="344" cy="104" r="104"/>
<path d="M472,384h-2V256h18v-64H200v64h18v128h-11.32l-39.648-218.016C162.192,139.336,139.024,120,111.936,120H24
	c-13.232,0-24,10.768-24,24s10.768,24,24,24h84.04c7.712,0,14.328,5.504,15.728,13.088l36.368,196.368l15.736-2.904l-36.368-196.368
	C136.696,163.008,123.472,152,108.04,152H88v-16h23.936c19.344,0,35.896,13.816,39.36,32.84L193.32,400H472c4.416,0,8,3.584,8,8
	s-3.584,8-8,8H176v16h16.208c-5.08,6.704-8.208,14.96-8.208,24c0,22.056,17.944,40,40,40s40-17.944,40-40
	c0-9.04-3.128-17.296-8.208-24H400.2c-5.072,6.704-8.2,14.96-8.2,24c0,22.056,17.944,40,40,40s40-17.944,40-40
	c0-9.04-3.128-17.296-8.208-24H472c13.232,0,24-10.768,24-24S485.232,384,472,384z M72,152H24c-4.416,0-8-3.584-8-8s3.584-8,8-8h48
	V152z M216,208h256v32H216V208z M392,291.312l16,16V352h-32v-44.688L392,291.312z M234,256h150v20.688l-24,24V368h64v-67.312l-24-24
	V256h54v128H234V256z M248,456c0,13.232-10.768,24-24,24s-24-10.768-24-24s10.768-24,24-24S248,442.768,248,456z M456,456
	c0,13.232-10.768,24-24,24s-24-10.768-24-24s10.768-24,24-24S456,442.768,456,456z"/>
<circle cx="432" cy="456" r="8"/>
<circle cx="224" cy="456" r="8"/>
<path d="M344,144c-8.824,0-16-7.176-16-16h-16c0,14.872,10.232,27.288,24,30.864V176h16v-17.136c13.768-3.576,24-15.992,24-30.864
	c0-17.648-14.352-32-32-32c-8.824,0-16-7.176-16-16s7.176-16,16-16s16,7.176,16,16h16c0-14.872-10.232-27.288-24-30.864V32h-16
	v17.136C322.232,52.712,312,65.128,312,80c0,17.648,14.352,32,32,32c8.824,0,16,7.176,16,16S352.824,144,344,144z"/>
<rect x="400" y="96" width="16" height="16"/>
<rect x="272" y="96" width="16" height="16"/>
<g>
</g>
<g>
</g>
<g>
</g>
<g>
</g>
<g>
</g>
<g>
</g>
<g>
</g>
<g>
</g>
<g>
</g>
<g>
</g>
<g>
</g>
<g>
</g>
<g>
</g>
<g>
</g>
<g>
</g>
</svg>
