<?xml version="1.0" encoding="iso-8859-1"?>
<!-- Generator: Adobe Illustrator 19.0.0, SVG Export Plug-In . SVG Version: 6.00 Build 0)  -->
<svg version="1.1" id="Capa_1" xmlns="http://www.w3.org/2000/svg" xmlns:xlink="http://www.w3.org/1999/xlink" x="0px" y="0px"
	 viewBox="0 0 496 496" style="enable-background:new 0 0 496 496;" xml:space="preserve">
<circle style="fill:#F0BC5E;" cx="248" cy="120" r="88"/>
<path d="M464,288v-16h-48V68.688L347.312,0H80v272H32v16h25.632l19.88,86.144l-26.408,21.128C44.048,400.912,40,409.344,40,418.392
	C40,434.72,53.288,448,69.616,448c8.344,0,16.52-2.824,23.12-7.912l8.608,37.304c2.528,10.96,12.144,18.608,23.384,18.608h246.544
	c11.24,0,20.856-7.648,23.384-18.6l8.608-37.304c6.608,5.08,14.784,7.904,23.12,7.904C442.712,448,456,434.72,456,418.392
	c0-9.048-4.048-17.48-11.112-23.136l-26.4-21.112L438.368,288H464z M352,27.312L388.688,64H352V27.312z M96,16h240v64h64v192h-96.64
	c-0.92-6.368-2.872-12.392-5.752-17.888l35.744-32.168l-10.704-11.888l-34.472,31.024C277.992,230.568,263.76,224,248,224
	c-28.152,0-51.456,20.912-55.36,48H96V16z M288,280c0,22.056-17.944,40-40,40s-40-17.944-40-40s17.944-40,40-40
	c11.048,0,21.056,4.504,28.304,11.768l-28.008,25.208l-10.632-10.632l-11.312,11.312l21.368,21.368l37.424-33.68
	C286.936,269.896,288,274.816,288,280z M192.64,288c2.112,14.672,9.912,27.512,21.112,36.208L102.656,411.92L74.056,288H192.64z
	 M83.192,427.28c-3.848,3.048-8.672,4.72-13.576,4.72C62.104,432,56,425.896,56,418.392c0-4.168,1.864-8.04,5.104-10.632l20.4-16.32
	l7.256,31.44L83.192,427.28z M379.072,473.808c-0.848,3.648-4.056,6.192-7.8,6.192H328v-72h-16v72h-32v-72h-16v72h-32v-72h-16v72
	h-32v-72h-16v72h-43.272c-3.744,0-6.952-2.544-7.792-6.192l-10.304-44.64l122.328-96.576C234.912,334.76,241.304,336,248,336
	c6.696,0,13.088-1.24,19.04-3.408l122.328,96.576L379.072,473.808z M434.888,407.752c3.248,2.6,5.112,6.48,5.112,10.64
	c0,7.504-6.104,13.608-13.616,13.608c-4.904,0-9.728-1.672-13.584-4.72l-5.568-4.392l7.256-31.448L434.888,407.752z M393.352,411.92
	l-111.104-87.712c11.208-8.704,19-21.536,21.112-36.208h118.584L393.352,411.92z"/>
<path d="M248,144c-4.408,0-8-3.584-8-8h-16c0,10.416,6.712,19.216,16,22.528V176h16v-17.472c9.288-3.312,16-12.112,16-22.528
	c0-13.232-10.768-24-24-24c-4.408,0-8-3.584-8-8s3.592-8,8-8c4.408,0,8,3.584,8,8h16c0-10.416-6.712-19.216-16-22.528V64h-16v17.472
	c-9.288,3.312-16,12.112-16,22.528c0,13.232,10.768,24,24,24c4.408,0,8,3.584,8,8S252.408,144,248,144z"/>
<rect x="288" y="112" width="16" height="16"/>
<rect x="192" y="112" width="16" height="16"/>
<rect x="216" y="376" width="16" height="16"/>
<rect x="264" y="376" width="16" height="16"/>
<g>
</g>
<g>
</g>
<g>
</g>
<g>
</g>
<g>
</g>
<g>
</g>
<g>
</g>
<g>
</g>
<g>
</g>
<g>
</g>
<g>
</g>
<g>
</g>
<g>
</g>
<g>
</g>
<g>
</g>
</svg>
