<?xml version="1.0" encoding="iso-8859-1"?>
<!-- Generator: Adobe Illustrator 19.0.0, SVG Export Plug-In . SVG Version: 6.00 Build 0)  -->
<svg version="1.1" id="Capa_1" xmlns="http://www.w3.org/2000/svg" xmlns:xlink="http://www.w3.org/1999/xlink" x="0px" y="0px"
	 viewBox="0 0 496 496" style="enable-background:new 0 0 496 496;" xml:space="preserve">
<path style="fill:#F0BC5E;" d="M292.504,464c-1.52,0-3.032-0.44-4.344-1.28L248,436.752l-40.168,25.968
	c-2.024,1.304-4.504,1.632-6.824,0.888c-2.288-0.752-4.128-2.488-4.992-4.736L178.92,414.48l-47.832-2.448
	c-2.416-0.128-4.648-1.336-6.072-3.288c-1.424-1.96-1.872-4.456-1.248-6.792l12.4-45.848l-37.176-29.872
	C97.104,324.72,96,322.424,96,320s1.104-4.72,2.992-6.232l37.176-29.872l-12.4-45.848c-0.624-2.336-0.168-4.832,1.248-6.784
	c1.424-1.96,3.648-3.168,6.072-3.296l47.832-2.456l17.096-44.384c0.864-2.248,2.704-3.984,4.992-4.736
	c2.304-0.744,4.792-0.416,6.824,0.888L248,203.248l40.168-25.968c2.032-1.296,4.52-1.616,6.824-0.888
	c2.288,0.752,4.128,2.488,4.992,4.736l17.096,44.392l47.832,2.448c2.416,0.128,4.648,1.336,6.072,3.288
	c1.424,1.96,1.872,4.456,1.248,6.792l-12.4,45.848l37.176,29.872C398.896,315.28,400,317.576,400,320s-1.104,4.72-2.992,6.232
	l-37.176,29.872l12.4,45.848c0.624,2.336,0.168,4.832-1.248,6.784c-1.424,1.96-3.648,3.168-6.072,3.296l-47.832,2.456
	l-17.096,44.384c-0.864,2.248-2.704,3.984-4.992,4.736C294.168,463.864,293.336,464,292.504,464z"/>
<path d="M168,304h20.96C175.408,319.52,168,339.192,168,360v8h16v-8c0-18.496,7.2-35.888,20.28-48.968l3.72-3.72V288h-40V304z"/>
<path d="M240,288c-13.232,0-24,10.768-24,24v32c0,13.232,10.768,24,24,24s24-10.768,24-24v-32C264,298.768,253.232,288,240,288z
	 M248,344c0,4.416-3.584,8-8,8s-8-3.584-8-8v-32c0-4.416,3.584-8,8-8s8,3.584,8,8V344z"/>
<rect x="277.636" y="312.017" transform="matrix(-0.6585 0.7526 -0.7526 -0.6585 751.6702 298.9422)" width="60.745" height="16"/>
<path d="M456,96h-96V24c0-13.232-10.768-24-24-24H160c-13.232,0-24,10.768-24,24v72H40v16h39.312L47.304,496h401.392l-32.008-384
	H456V96z M152,24c0-4.416,3.584-8,8-8h176c4.416,0,8,3.584,8,8v72H152V24z M431.304,480H64.696L95.36,112H136v17.472
	c-9.288,3.312-16,12.112-16,22.528c0,13.232,10.768,24,24,24s24-10.768,24-24c0-10.416-6.712-19.216-16-22.528V112h192v17.472
	c-9.288,3.312-16,12.112-16,22.528c0,13.232,10.768,24,24,24s24-10.768,24-24c0-10.416-6.712-19.216-16-22.528V112h40.64
	L431.304,480z M152,152c0,4.416-3.584,8-8,8s-8-3.584-8-8s3.584-8,8-8S152,147.584,152,152z M360,152c0,4.416-3.584,8-8,8
	s-8-3.584-8-8s3.584-8,8-8S360,147.584,360,152z"/>
<rect x="280" y="288" width="16" height="16"/>
<rect x="320" y="336" width="16" height="16"/>
<g>
</g>
<g>
</g>
<g>
</g>
<g>
</g>
<g>
</g>
<g>
</g>
<g>
</g>
<g>
</g>
<g>
</g>
<g>
</g>
<g>
</g>
<g>
</g>
<g>
</g>
<g>
</g>
<g>
</g>
</svg>
