<?xml version="1.0" encoding="iso-8859-1"?>
<!-- Generator: Adobe Illustrator 19.0.0, SVG Export Plug-In . SVG Version: 6.00 Build 0)  -->
<svg version="1.1" id="Capa_1" xmlns="http://www.w3.org/2000/svg" xmlns:xlink="http://www.w3.org/1999/xlink" x="0px" y="0px"
	 viewBox="0 0 496 496" style="enable-background:new 0 0 496 496;" xml:space="preserve">
<rect x="32" y="344" width="160" height="16"/>
<rect x="32" y="376" width="96" height="16"/>
<rect x="176" y="376" width="16" height="16"/>
<rect x="144" y="376" width="16" height="16"/>
<path d="M280,152v8c0,17.648-14.352,32-32,32s-32-14.352-32-32v-8h-24v16h8.664c3.384,20.064,19.272,35.888,39.336,39.272V224h16
	v-16.728c20.064-3.384,35.952-19.208,39.336-39.272H480v240H295.336c-3.384-20.064-19.272-35.888-39.336-39.272v-16.464h-16v16.464
	c-20.064,3.384-35.952,19.208-39.336,39.272H16V168h16v-16H0v272h216v-8c0-17.648,14.352-32,32-32s32,14.352,32,32v8h216V152H280z"
	/>
<rect x="304" y="264" width="160" height="16"/>
<rect x="304" y="328" width="160" height="16"/>
<rect x="304" y="360" width="160" height="16"/>
<rect x="304" y="296" width="96" height="16"/>
<rect x="240" y="304.24" width="16" height="15.736"/>
<rect x="448" y="296" width="16" height="16"/>
<rect x="416" y="296" width="16" height="16"/>
<path d="M464,184H304v64h160V184z M448,232H320v-32h128V232z"/>
<rect x="240" y="256.24" width="16" height="15.736"/>
<path d="M192,328H32v-64h160V328z M48,312h128v-32H48V312z"/>
<circle style="fill:#F0BC5E;" cx="112" cy="160" r="88"/>
<path d="M112,200c-13.232,0-24-10.768-24-24h16c0,4.408,3.592,8,8,8s8-3.592,8-8s-3.592-8-8-8c-13.232,0-24-10.768-24-24
	s10.768-24,24-24s24,10.768,24,24h-16c0-4.408-3.592-8-8-8s-8,3.592-8,8s3.592,8,8,8c13.232,0,24,10.768,24,24S125.232,200,112,200z
	"/>
<rect x="104" y="104" width="16" height="24"/>
<rect x="104" y="192" width="16" height="24"/>
<rect x="152" y="152" width="16" height="16"/>
<rect x="56" y="152" width="16" height="16"/>
<g>
</g>
<g>
</g>
<g>
</g>
<g>
</g>
<g>
</g>
<g>
</g>
<g>
</g>
<g>
</g>
<g>
</g>
<g>
</g>
<g>
</g>
<g>
</g>
<g>
</g>
<g>
</g>
<g>
</g>
</svg>
