<?xml version="1.0" encoding="iso-8859-1"?>
<!-- Generator: Adobe Illustrator 19.0.0, SVG Export Plug-In . SVG Version: 6.00 Build 0)  -->
<svg version="1.1" id="Capa_1" xmlns="http://www.w3.org/2000/svg" xmlns:xlink="http://www.w3.org/1999/xlink" x="0px" y="0px"
	 viewBox="0 0 496 496" style="enable-background:new 0 0 496 496;" xml:space="preserve">
<g>
	<rect x="72" y="304" style="fill:#F0BC5E;" width="416" height="48"/>
	<path style="fill:#F0BC5E;" d="M424,464c-8.696,0-17.104-2.904-24-8.152c-6.896,5.248-15.304,8.152-24,8.152
		c-22.056,0-40-17.944-40-40s17.944-40,40-40c8.696,0,17.104,2.904,24,8.152c6.896-5.248,15.304-8.152,24-8.152
		c22.056,0,40,17.944,40,40S446.056,464,424,464z"/>
</g>
<path d="M464,208h-32V32c0-17.648-14.352-32-32-32H32C14.352,0,0,14.352,0,32v224c0,17.648,14.352,32,32,32h32v176
	c0,17.648,14.352,32,32,32h368c17.648,0,32-14.352,32-32V240C496,222.352,481.648,208,464,208z M16,256V32c0-8.824,7.176-16,16-16
	h368c8.824,0,16,7.176,16,16v224c0,8.824-7.176,16-16,16H32C23.176,272,16,264.824,16,256z M480,464c0,8.824-7.176,16-16,16H96
	c-8.824,0-16-7.176-16-16V288h320c17.648,0,32-14.352,32-32v-32h32c8.824,0,16,7.176,16,16V464z"/>
<path d="M144,40H32v112h112V40z M96,136v-16h16v-16H64v16h16v16H48v-32h16V88H48V56h32v16H64v16h48V72H96V56h32v32h-16v16h16v32H96z
	"/>
<rect x="272" y="200" width="16" height="56"/>
<rect x="304" y="200" width="16" height="56"/>
<rect x="336" y="200" width="16" height="56"/>
<rect x="368" y="200" width="16" height="56"/>
<rect x="216" y="96" width="184" height="16"/>
<rect x="296" y="128" width="104" height="16"/>
<rect x="216" y="40" width="152" height="16"/>
<rect x="32" y="192" width="128" height="16"/>
<rect x="384" y="40" width="16" height="16"/>
<rect x="184" y="40" width="16" height="16"/>
<rect x="176" y="192" width="16" height="16"/>
<g>
</g>
<g>
</g>
<g>
</g>
<g>
</g>
<g>
</g>
<g>
</g>
<g>
</g>
<g>
</g>
<g>
</g>
<g>
</g>
<g>
</g>
<g>
</g>
<g>
</g>
<g>
</g>
<g>
</g>
</svg>
