<?xml version="1.0" encoding="iso-8859-1"?>
<!-- Generator: Adobe Illustrator 19.0.0, SVG Export Plug-In . SVG Version: 6.00 Build 0)  -->
<svg version="1.1" id="Capa_1" xmlns="http://www.w3.org/2000/svg" xmlns:xlink="http://www.w3.org/1999/xlink" x="0px" y="0px"
	 viewBox="0 0 504 504" style="enable-background:new 0 0 504 504;" xml:space="preserve">
<rect x="8" y="196" width="16" height="16"/>
<rect x="24" y="212" width="16" height="16"/>
<rect x="40" y="196" width="16" height="16"/>
<rect x="472" y="484" width="16" height="16"/>
<rect x="488" y="468" width="16" height="16"/>
<rect x="16" y="412" width="16" height="16"/>
<rect y="428" width="16" height="16"/>
<rect x="16" y="444" width="16" height="16"/>
<rect x="32" y="428" width="16" height="16"/>
<rect x="488" y="276" width="16" height="16"/>
<rect x="48" y="4" width="16" height="24"/>
<rect x="22.547" y="14.55" transform="matrix(-0.7072 0.707 -0.707 -0.7072 70.9217 23.7294)" width="16" height="24"/>
<rect x="8" y="44" width="24" height="16"/>
<rect x="18.547" y="69.456" transform="matrix(-0.7071 0.7071 -0.7071 -0.7071 106.9169 110.6253)" width="24" height="16"/>
<rect x="48" y="76" width="16" height="24"/>
<rect x="73.451" y="65.456" transform="matrix(-0.7072 0.707 -0.707 -0.7072 193.8159 74.6474)" width="16" height="24"/>
<rect x="80" y="44" width="24" height="16"/>
<rect x="69.451" y="18.544" transform="matrix(-0.7071 0.7071 -0.7071 -0.7071 157.8154 -12.281)" width="24" height="16"/>
<rect x="448" y="4" width="16" height="24"/>
<rect x="422.555" y="14.566" transform="matrix(-0.7072 0.707 -0.707 -0.7072 753.8293 -259.0518)" width="16" height="24"/>
<rect x="408" y="44" width="24" height="16"/>
<rect x="418.551" y="69.469" transform="matrix(-0.7071 0.7071 -0.7071 -0.7071 789.7742 -172.198)" width="24" height="16"/>
<rect x="448" y="76" width="16" height="24"/>
<rect x="473.448" y="65.476" transform="matrix(-0.7072 0.707 -0.707 -0.7072 876.7067 -208.12)" width="16" height="24"/>
<rect x="480" y="44" width="24" height="16"/>
<rect x="469.451" y="18.544" transform="matrix(-0.7071 0.7071 -0.7071 -0.7071 840.6581 -295.1237)" width="24" height="16"/>
<rect x="24" y="180" width="16" height="16"/>
<path d="M352,116v16h80v32H328v16h88v88H288v-23.064l79.72,8.856L302.656,151.56l-1.456-2.184l-13.312,8.864l48.392,75.952
	l-49.304-5.48l-15.072-97.944l-15.816,2.432l4.744,30.8h-9.656l4.736-30.784l-15.816-2.432l-15.072,97.944l-49.304,5.48
	l46.936-73.768l1.456-2.184l-13.312-8.864l-66.512,104.416L224,244.936V268H96v-88h88v-16H80v-32h80v-16H64v64h16v240
	c0,13.232,10.768,24,24,24h120h64h120c13.232,0,24-10.768,24-24V180h16v-64H352z M224,428H104c-4.416,0-8-3.584-8-8v-88h128V428z
	 M224,316H96v-32h128V316z M272,428h-32V236.624L248.712,180h14.584L272,236.624V428z M416,420c0,4.416-3.584,8-8,8H288v-96h128V420
	z M416,316H288v-32h128V316z"/>
<rect x="472" y="452" width="16" height="16"/>
<rect x="456" y="468" width="16" height="16"/>
<rect x="472" y="260" width="16" height="16"/>
<rect x="456" y="276" width="16" height="16"/>
<rect x="472" y="292" width="16" height="16"/>
<path style="fill:#F0BC5E;" d="M327.768,180c-6.76,0-13.24-2.08-18.736-6.008L261.44,140h-10.88l-47.592,33.992
	C197.48,177.92,190.992,180,184.232,180C166.464,180,152,165.536,152,147.768V92.24C152,74.464,166.464,60,184.232,60h1.328
	c5.608,0,11.144,1.472,16,4.248L250.128,92h11.752l48.568-27.752C315.296,61.472,320.832,60,326.44,60h1.328
	C345.536,60,360,74.464,360,92.232v55.528C360,165.536,345.536,180,327.768,180z"/>
<path d="M256,140c-13.232,0-24-10.768-24-24s10.768-24,24-24s24,10.768,24,24S269.232,140,256,140z M256,108c-4.416,0-8,3.592-8,8
	s3.584,8,8,8c4.416,0,8-3.592,8-8S260.416,108,256,108z"/>
<g>
</g>
<g>
</g>
<g>
</g>
<g>
</g>
<g>
</g>
<g>
</g>
<g>
</g>
<g>
</g>
<g>
</g>
<g>
</g>
<g>
</g>
<g>
</g>
<g>
</g>
<g>
</g>
<g>
</g>
</svg>
