<?xml version="1.0" encoding="iso-8859-1"?>
<!-- Generator: Adobe Illustrator 19.0.0, SVG Export Plug-In . SVG Version: 6.00 Build 0)  -->
<svg version="1.1" id="Capa_1" xmlns="http://www.w3.org/2000/svg" xmlns:xlink="http://www.w3.org/1999/xlink" x="0px" y="0px"
	 viewBox="0 0 496 496" style="enable-background:new 0 0 496 496;" xml:space="preserve">
<rect x="320" y="248" width="16" height="24"/>
<rect x="272" y="296" width="24" height="16"/>
<rect x="320" y="336" width="16" height="24"/>
<rect x="360" y="296" width="24" height="16"/>
<path d="M240,144v16h64v29.48c-8.848,4.224-16.432,10.656-21.984,18.64c-0.664-0.048-1.304-0.12-2.016-0.12
	c-26.472,0-48,21.528-48,48c0,0.712,0.072,1.352,0.12,2.016c-7.984,5.552-14.416,13.136-18.64,21.984H16V160h32v-16H0v352h496V144
	H240z M480,280h-37.48c-4.224-8.848-10.656-16.432-18.64-21.984c0.048-0.664,0.12-1.304,0.12-2.016c0-26.472-21.528-48-48-48
	c-0.712,0-1.352,0.072-2.016,0.12c-5.552-7.984-13.136-14.416-21.984-18.64V160h128V280z M447.36,296H480v16h-32.64
	c0.376-2.624,0.64-5.28,0.64-8S447.736,298.624,447.36,296z M381.792,224.584c13,2.392,23.232,12.624,25.624,25.624
	C402.512,248.8,397.352,248,392,248c-2.928,0-5.824,0.224-8.68,0.68c0.456-2.856,0.68-5.752,0.68-8.68
	C384,234.648,383.2,229.488,381.792,224.584z M320,160h16v24.64c-2.624-0.376-5.28-0.64-8-0.64s-5.376,0.264-8,0.64V160z
	 M320,200.808V216h16v-15.192c18.232,3.72,32,19.872,32,39.192c0,5.992-1.344,11.816-3.992,17.312
	c-1.48,3.064-0.856,6.728,1.552,9.128c2.392,2.4,6.064,3.024,9.128,1.552C380.184,265.344,386.008,264,392,264
	c19.312,0,35.472,13.768,39.192,32H416v16h15.192c-3.72,18.232-19.872,32-39.192,32c-5.992,0-11.816-1.344-17.312-3.992
	c-3.064-1.48-6.728-0.848-9.128,1.552c-2.408,2.4-3.024,6.064-1.552,9.128C366.656,356.184,368,362.008,368,368
	c0,19.312-13.768,35.472-32,39.192V392h-16v15.192c-18.232-3.72-32-19.872-32-39.192c0-5.992,1.344-11.816,3.992-17.312
	c1.48-3.064,0.856-6.728-1.552-9.128c-1.536-1.536-3.584-2.344-5.664-2.344c-1.176,0-2.36,0.256-3.472,0.792
	C275.816,342.656,269.992,344,264,344c-19.312,0-35.472-13.768-39.192-32H240v-16h-15.192c3.72-18.232,19.872-32,39.192-32
	c5.992,0,11.816,1.344,17.312,3.992c3.064,1.48,6.728,0.848,9.128-1.552c2.408-2.4,3.024-6.064,1.552-9.128
	C289.344,251.816,288,245.992,288,240C288,220.688,301.768,204.528,320,200.808z M383.32,359.32c2.856,0.456,5.752,0.68,8.68,0.68
	c5.352,0,10.512-0.8,15.416-2.208c-2.392,13-12.624,23.232-25.624,25.624C383.2,378.512,384,373.352,384,368
	C384,365.072,383.776,362.176,383.32,359.32z M328,424c2.72,0,5.376-0.264,8-0.64V480h-16v-56.64
	C322.624,423.736,325.28,424,328,424z M274.208,383.416c-13-2.392-23.232-12.624-25.624-25.624C253.488,359.2,258.648,360,264,360
	c2.928,0,5.824-0.224,8.68-0.68c-0.456,2.856-0.68,5.752-0.68,8.68C272,373.352,272.8,378.512,274.208,383.416z M274.208,224.584
	C272.8,229.488,272,234.648,272,240c0,2.928,0.224,5.824,0.68,8.68c-2.856-0.456-5.752-0.68-8.68-0.68
	c-5.352,0-10.512,0.8-15.416,2.208C250.976,237.208,261.208,226.976,274.208,224.584z M208.64,296c-0.376,2.624-0.64,5.28-0.64,8
	s0.264,5.376,0.64,8H16v-16H208.64z M16,328h197.48c4.224,8.848,10.656,16.432,18.64,21.984c-0.048,0.664-0.12,1.304-0.12,2.016
	c0,26.472,21.528,48,48,48c0.712,0,1.352-0.072,2.016-0.12c5.552,7.984,13.136,14.416,21.984,18.64V480H16V328z M352,480v-61.48
	c8.848-4.224,16.432-10.656,21.984-18.64c0.664,0.048,1.304,0.12,2.016,0.12c26.472,0,48-21.528,48-48
	c0-0.712-0.072-1.352-0.12-2.016c7.984-5.552,14.416-13.136,18.64-21.984H480v152H352z"/>
<g>
	<path style="fill:#F0BC5E;" d="M328,344c-22.056,0-40-17.944-40-40s17.944-40,40-40s40,17.944,40,40S350.056,344,328,344z"/>
	<circle style="fill:#F0BC5E;" cx="144" cy="112" r="112"/>
</g>
<path d="M160,152h-32c-8.824,0-16-7.176-16-16H96c0,17.648,14.352,32,32,32h8v16h16v-16h8c17.648,0,32-14.352,32-32
	s-14.352-32-32-32h-32c-8.824,0-16-7.176-16-16s7.176-16,16-16h32c8.824,0,16,7.176,16,16h16c0-17.648-14.352-32-32-32h-8V40h-16v16
	h-8c-17.648,0-32,14.352-32,32s14.352,32,32,32h32c8.824,0,16,7.176,16,16S168.824,152,160,152z"/>
<rect x="208" y="104" width="16" height="16"/>
<rect x="64" y="104" width="16" height="16"/>
<path d="M32,424h176v-80H32V424z M48,360h144v48H48V360z"/>
<rect x="32" y="440" width="80" height="16"/>
<rect x="128" y="440" width="80" height="16"/>
<rect x="64" y="376" width="16" height="16"/>
<rect x="112" y="376" width="16" height="16"/>
<rect x="160" y="376" width="16" height="16"/>
<g>
</g>
<g>
</g>
<g>
</g>
<g>
</g>
<g>
</g>
<g>
</g>
<g>
</g>
<g>
</g>
<g>
</g>
<g>
</g>
<g>
</g>
<g>
</g>
<g>
</g>
<g>
</g>
<g>
</g>
</svg>
