<?xml version="1.0" encoding="iso-8859-1"?>
<!-- Generator: Adobe Illustrator 19.0.0, SVG Export Plug-In . SVG Version: 6.00 Build 0)  -->
<svg version="1.1" id="Capa_1" xmlns="http://www.w3.org/2000/svg" xmlns:xlink="http://www.w3.org/1999/xlink" x="0px" y="0px"
	 viewBox="0 0 496 496" style="enable-background:new 0 0 496 496;" xml:space="preserve">
<g>
	<rect x="248" y="192" style="fill:#F0BC5E;" width="240" height="48"/>
	<path style="fill:#F0BC5E;" d="M144,200c-48.52,0-88,39.48-88,88s39.48,88,88,88c9.008,0,17.888-1.36,26.4-4.032V204.032
		C161.888,201.36,153.008,200,144,200z"/>
</g>
<rect x="256" y="448" width="96" height="16"/>
<rect x="192" y="144" width="16" height="240"/>
<path d="M480,160h-32V40c0-22.056-17.944-40-40-40H200c-22.056,0-40,17.944-40,40v40H32v88H0v240h160v48c0,22.056,17.944,40,40,40
	h208c22.056,0,40-17.944,40-40V336h32c8.824,0,16-7.176,16-16V176C496,167.176,488.824,160,480,160z M200,16h208
	c13.232,0,24,10.768,24,24v24H176V40C176,26.768,186.768,16,200,16z M160,281.472c-2.512-0.896-5.184-1.472-8-1.472h-16
	c-4.416,0-8-3.592-8-8s3.584-8,8-8h16c4.416,0,8,3.592,8,8V281.472z M48,96h112v72H48V96z M16,392V184h144v65.472
	c-2.512-0.896-5.184-1.472-8-1.472v-16h-16v16c-13.232,0-24,10.768-24,24s10.768,24,24,24h16c4.416,0,8,3.592,8,8s-3.584,8-8,8h-16
	c-4.416,0-8-3.592-8-8h-16c0,13.232,10.768,24,24,24v16h16v-16c2.816,0,5.488-0.576,8-1.472V392H16z M408,480H200
	c-13.232,0-24-10.768-24-24v-24h256v24C432,469.232,421.232,480,408,480z M432,416H176V80h256v80H256c-8.824,0-16,7.176-16,16v144
	c0,8.824,7.176,16,16,16h176V416z M256,320V176h224l0.008,144H256z"/>
<rect x="272" y="288" width="40" height="16"/>
<polygon points="32,232 48,232 48,216 64,216 64,200 32,200 "/>
<polygon points="64,112 64,144 80,144 80,128 96,128 96,112 "/>
<polygon points="48,344 32,344 32,376 64,376 64,360 48,360 "/>
<rect x="448" y="288" width="16" height="16"/>
<rect x="416" y="288" width="16" height="16"/>
<rect x="192" y="112" width="16" height="16"/>
<g>
</g>
<g>
</g>
<g>
</g>
<g>
</g>
<g>
</g>
<g>
</g>
<g>
</g>
<g>
</g>
<g>
</g>
<g>
</g>
<g>
</g>
<g>
</g>
<g>
</g>
<g>
</g>
<g>
</g>
</svg>
