<?xml version="1.0" encoding="iso-8859-1"?>
<!-- Generator: Adobe Illustrator 19.0.0, SVG Export Plug-In . SVG Version: 6.00 Build 0)  -->
<svg version="1.1" id="Capa_1" xmlns="http://www.w3.org/2000/svg" xmlns:xlink="http://www.w3.org/1999/xlink" x="0px" y="0px"
	 viewBox="0 0 496 496" style="enable-background:new 0 0 496 496;" xml:space="preserve">
<circle style="fill:#F0BC5E;" cx="248.026" cy="280" r="88"/>
<path d="M411.554,122.384l-19.528-42.656V40c0-22.056-17.944-40-40-40h-208c-22.056,0-40,17.944-40,40v39.752L84.25,122.976
	c-3.968,10.92-3.08,23.04,2.448,33.256c4.008,7.416,10.048,13,17.328,16.32V456c0,22.056,17.944,40,40,40h208
	c22.056,0,40-17.944,40-40V172.552c7.28-3.32,13.32-8.904,17.328-16.32C414.874,146.016,415.77,133.896,411.554,122.384z
	 M144.026,16h208c13.232,0,24,10.768,24,24v16h-256V40C120.026,26.768,130.794,16,144.026,16z M376.026,416h-256V176
	c13.072,0,24.696-6.304,32-16.024c7.304,9.72,18.928,16.024,32,16.024s24.696-6.304,32-16.024c7.304,9.72,18.928,16.024,32,16.024
	c13.072,0,24.696-6.304,32-16.024c7.304,9.72,18.928,16.024,32,16.024s24.696-6.304,32-16.024c7.304,9.72,18.928,16.024,32,16.024
	V416z M215.09,72l-7.016,63.12l-0.008,0.88h-0.04c0,13.232-10.768,24-24,24c-13.032,0-23.608-10.448-23.936-23.4L174.442,72H215.09z
	 M264.866,72l7.136,64.232C271.874,149.36,261.178,160,248.026,160c-13.152,0-23.848-10.64-23.976-23.768L231.186,72H264.866z
	 M335.962,136.6c-0.328,12.952-10.904,23.4-23.936,23.4c-13.232,0-24-10.768-24-24l-7.064-64h40.648L335.962,136.6z M100.77,148.616
	c-3.352-6.192-3.888-13.544-1.728-19.576L125.162,72h32.888l-13.84,62.264L144.178,136h-0.152c0,13.232-10.768,24-24,24
	c-1.872,0-3.728-0.208-5.504-0.632C108.658,157.992,103.778,154.168,100.77,148.616z M352.026,480h-208c-13.232,0-24-10.768-24-24
	v-24h256v24C376.026,469.232,365.258,480,352.026,480z M395.282,148.616c-3.008,5.552-7.888,9.376-13.76,10.752
	c-1.768,0.424-3.624,0.632-5.496,0.632c-13.232,0-24-10.768-24-24l-14.048-64h32.92l25.872,56.448
	C399.178,135.072,398.634,142.424,395.282,148.616z"/>
<rect x="144.026" y="384" width="208" height="16"/>
<rect x="200.026" y="448" width="96" height="16"/>
<path d="M248.026,304c-4.416,0-8-3.584-8-8h-16c0,10.416,6.712,19.216,16,22.528V336h16v-17.472c9.288-3.312,16-12.112,16-22.528
	c0-13.232-10.768-24-24-24c-4.416,0-8-3.584-8-8s3.584-8,8-8c4.416,0,8,3.584,8,8h16c0-10.416-6.712-19.216-16-22.528V224h-16
	v17.472c-9.288,3.312-16,12.112-16,22.528c0,13.232,10.768,24,24,24c4.416,0,8,3.584,8,8S252.442,304,248.026,304z"/>
<rect x="288.026" y="272" width="16" height="16"/>
<rect x="192.026" y="272" width="16" height="16"/>
<g>
</g>
<g>
</g>
<g>
</g>
<g>
</g>
<g>
</g>
<g>
</g>
<g>
</g>
<g>
</g>
<g>
</g>
<g>
</g>
<g>
</g>
<g>
</g>
<g>
</g>
<g>
</g>
<g>
</g>
</svg>
