<?xml version="1.0" encoding="iso-8859-1"?>
<!-- Generator: Adobe Illustrator 19.0.0, SVG Export Plug-In . SVG Version: 6.00 Build 0)  -->
<svg version="1.1" id="Capa_1" xmlns="http://www.w3.org/2000/svg" xmlns:xlink="http://www.w3.org/1999/xlink" x="0px" y="0px"
	 viewBox="0 0 496 496" style="enable-background:new 0 0 496 496;" xml:space="preserve">
<g>
	<path style="fill:#F0BC5E;" d="M40,440h416c17.672,0,32-14.328,32-32v-24H8v24C8,425.672,22.328,440,40,440z"/>
	<path style="fill:#F0BC5E;" d="M136,8l-32,96c0,13.256,10.744,24,24,24s24-10.744,24-24c0,13.256,10.744,24,24,24s24-10.744,24-24
		c0,13.256,10.744,24,24,24s24-10.744,24-24c0,13.256,10.744,24,24,24s24-10.744,24-24c0,13.256,10.744,24,24,24s24-10.744,24-24
		c0,13.256,10.744,24,24,24s24-10.744,24-24L360,8H136z"/>
</g>
<path d="M456,88h-60.904L365.768,0H130.232l-29.336,88H40c-22.056,0-40,17.944-40,40v280c0,22.056,17.944,40,40,40h96v32h-32v16h288
	v-16h-32v-32h96c22.056,0,40-17.944,40-40V128C496,105.944,478.056,88,456,88z M318.888,152H168.76l-9.6,96H128V136
	c9.544,0,18.136-4.2,24-10.856C157.864,131.8,166.456,136,176,136s18.136-4.2,24-10.856C205.864,131.8,214.456,136,224,136
	s18.136-4.2,24-10.856C253.864,131.8,262.456,136,272,136s18.136-4.2,24-10.856C301.864,131.8,310.456,136,320,136
	s18.136-4.2,24-10.856C349.864,131.8,358.456,136,368,136v112h-34.712L318.888,152z M168.84,312l14.4-144h112.344l-7.2,144H168.84z
	 M309.984,200.512L326.712,312h-22.296L309.984,200.512z M335.96,104.416C335.736,113.04,328.68,120,320,120
	c-8.824,0-16-7.176-16-16h-0.032v-0.664L296.688,16h24.536L335.96,104.416z M288,104c0,8.824-7.176,16-16,16s-16-7.176-16-16V16
	h24.648L288,104z M240,104c0,8.824-7.176,16-16,16c-8.776,0-15.912-7.112-15.984-15.872L215.36,16H240V104z M192,104
	c0,8.824-7.176,16-16,16c-8.68,0-15.736-6.96-15.96-15.584L174.776,16h24.536L192,104z M383.96,105.168
	C383.36,113.448,376.432,120,368,120c-8.824,0-16-7.176-16-16l-14.568-88h16.8L383.96,105.168z M141.768,16h16.792l-14.448,86.688
	L144.096,104H144c0,8.824-7.176,16-16,16c-8.432,0-15.36-6.552-15.96-14.832L141.768,16z M40,104h56c0,11.792,6.48,22,16,27.552V264
	h45.56l-6.4,64h194.136l-9.6-64H384V131.552c9.52-5.552,16-15.76,16-27.552h56c13.232,0,24,10.768,24,24v240H16V128
	C16,114.768,26.768,104,40,104z M344,480H152v-32h192V480z M456,432H40c-13.232,0-24-10.768-24-24v-24h464v24
	C480,421.232,469.232,432,456,432z"/>
<rect x="184" y="400" width="128" height="16"/>
<path d="M264,192v8c0,13.232-10.768,24-24,24s-24-10.768-24-24v-8h-16v8c0,22.056,17.944,40,40,40s40-17.944,40-40v-8H264z"/>
<g>
</g>
<g>
</g>
<g>
</g>
<g>
</g>
<g>
</g>
<g>
</g>
<g>
</g>
<g>
</g>
<g>
</g>
<g>
</g>
<g>
</g>
<g>
</g>
<g>
</g>
<g>
</g>
<g>
</g>
</svg>
