<?xml version="1.0" encoding="iso-8859-1"?>
<!-- Generator: Adobe Illustrator 19.0.0, SVG Export Plug-In . SVG Version: 6.00 Build 0)  -->
<svg version="1.1" id="Capa_1" xmlns="http://www.w3.org/2000/svg" xmlns:xlink="http://www.w3.org/1999/xlink" x="0px" y="0px"
	 viewBox="0 0 496.002 496.002" style="enable-background:new 0 0 496.002 496.002;" xml:space="preserve">
<g>
	<circle style="fill:#F0BC5E;" cx="276.001" cy="264.002" r="88"/>
	<path style="fill:#F0BC5E;" d="M321.657,42.346l-40-40c-3.128-3.128-8.184-3.128-11.312,0l-40,40
		c-2.288,2.288-2.976,5.728-1.736,8.72c1.232,2.992,4.16,4.936,7.392,4.936h16v48c0,4.424,3.576,8,8,8h32c4.424,0,8-3.576,8-8v-48
		h16c3.232,0,6.16-1.944,7.392-4.936C324.633,48.074,323.945,44.634,321.657,42.346z"/>
	<path style="fill:#F0BC5E;" d="M441.657,82.346l-40-40c-3.128-3.128-8.184-3.128-11.312,0l-40,40
		c-2.288,2.288-2.976,5.728-1.736,8.72c1.232,2.992,4.16,4.936,7.392,4.936h16v24c0,4.424,3.576,8,8,8h32c4.424,0,8-3.576,8-8v-24
		h16c3.232,0,6.16-1.944,7.392-4.936C444.633,88.074,443.945,84.634,441.657,82.346z"/>
	<path style="fill:#F0BC5E;" d="M201.657,82.346l-40-40c-3.128-3.128-8.184-3.128-11.312,0l-40,40
		c-2.288,2.288-2.976,5.728-1.736,8.72c1.232,2.992,4.16,4.936,7.392,4.936h16v24c0,4.424,3.576,8,8,8h32c4.424,0,8-3.576,8-8v-24
		h16c3.232,0,6.16-1.944,7.392-4.936C204.633,88.074,203.945,84.634,201.657,82.346z"/>
</g>
<path d="M151.313,384.002h324.688v-240h-400v78.4l-16.912,21.744c-4.424,5.688-7.224,12.464-8.112,19.6l-6.664,53.288
	c-0.208,1.64-0.312,3.296-0.312,4.96v68.016c0,1.664,0.104,3.32,0.312,4.96l6.624,53.032H20.001v48h128v-48h-24v-36.688
	L151.313,384.002z M92.001,160.002h368v208H167.313l13.376-13.376c4.648-4.648,7.312-11.08,7.312-17.656
	c0-13.768-11.2-24.968-24.968-24.968c-6.672,0-12.944,2.592-17.656,7.312l-27.184,27.184l-7.656-15.312
	c-1.664-3.32-2.536-7.032-2.536-10.736v-46.184c0-5.032,1.544-9.856,4.472-13.952l31.032-43.456
	c2.944-4.12,4.496-8.968,4.496-14.024v-2.72c0-13.288-10.824-24.112-24.12-24.112c-7.496,0-14.432,3.392-19.04,9.312l-12.84,16.512
	V160.002z M132.001,480.002h-96v-16h96V480.002z M67.065,448.002l-6.88-55.016c-0.12-0.984-0.184-1.984-0.184-2.976v-68.016
	c0-0.992,0.064-1.992,0.184-2.976l6.664-53.296c0.536-4.272,2.216-8.344,4.872-11.752l45.752-58.832
	c1.552-1.992,3.888-3.136,6.408-3.136c4.48,0,8.12,3.64,8.12,8.12v2.72c0,1.696-0.52,3.336-1.512,4.72l-31.032,43.456
	c-4.88,6.816-7.456,14.848-7.456,23.24v46.184c0,6.176,1.464,12.368,4.224,17.888l6.832,13.672h-3.056v16h19.312l37.376-37.376
	c1.696-1.696,3.944-2.624,6.344-2.624c4.944,0,8.968,4.024,8.968,8.968c0,2.36-0.96,4.672-2.624,6.344l-61.376,61.376v43.312H67.065
	z"/>
<path d="M276.001,288.002c-4.408,0-8-3.584-8-8h-16c0,10.416,6.712,19.216,16,22.528v17.472h16V302.53
	c9.288-3.312,16-12.112,16-22.528c0-13.232-10.768-24-24-24c-4.408,0-8-3.592-8-8s3.592-8,8-8s8,3.592,8,8h16
	c0-10.416-6.712-19.216-16-22.528v-17.472h-16v17.472c-9.288,3.312-16,12.112-16,22.528c0,13.232,10.768,24,24,24
	c4.408,0,8,3.584,8,8S280.409,288.002,276.001,288.002z"/>
<polygon points="428.001,216.002 444.001,216.002 444.001,176.002 404.001,176.002 404.001,192.002 428.001,192.002 "/>
<polygon points="444.001,312.002 428.001,312.002 428.001,336.002 404.001,336.002 404.001,352.002 444.001,352.002 "/>
<rect x="316.001" y="256.002" width="16" height="16"/>
<rect x="220.001" y="256.002" width="16" height="16"/>
<g>
</g>
<g>
</g>
<g>
</g>
<g>
</g>
<g>
</g>
<g>
</g>
<g>
</g>
<g>
</g>
<g>
</g>
<g>
</g>
<g>
</g>
<g>
</g>
<g>
</g>
<g>
</g>
<g>
</g>
</svg>
