<?xml version="1.0" encoding="iso-8859-1"?>
<!-- Generator: Adobe Illustrator 19.0.0, SVG Export Plug-In . SVG Version: 6.00 Build 0)  -->
<svg version="1.1" id="Capa_1" xmlns="http://www.w3.org/2000/svg" xmlns:xlink="http://www.w3.org/1999/xlink" x="0px" y="0px"
	 viewBox="0 0 496 496" style="enable-background:new 0 0 496 496;" xml:space="preserve">
<circle style="fill:#F0BC5E;" cx="248" cy="168" r="168"/>
<path d="M345.504,98.04l12.992-9.344C339.888,62.816,312.72,44.2,282,36.28l-4,15.504C305.112,58.76,329.08,75.184,345.504,98.04z"
	/>
<path d="M264.992,33.056C259.408,32.352,253.688,32,248,32v16c5.024,0,10.072,0.312,15.008,0.928L264.992,33.056z"/>
<path d="M493.784,368H424v-48H258.136l111.72-143.64L332.28,120H163.72l-37.576,56.36L237.864,320H72v48H2.216l36.568,64L2.216,496
	H152v-48h192v48h149.784l-36.568-64L493.784,368z M277.48,184L248,290.112L218.52,184H277.48z M225.08,168L248,140.496L270.92,168
	H225.08z M294.08,184h49.56l-77.096,99.128L294.08,184z M305.08,168l22.208-26.648L345.048,168H305.08z M288,163.504L265.08,136
	h45.832L288,163.504z M208,163.504L185.08,136h45.832L208,163.504z M190.92,168h-39.968l17.76-26.648L190.92,168z M201.92,184
	l27.536,99.128L152.36,184H201.92z M408,336v96H88v-96H408z M57.216,432l-27.432-48H72v60l48,36H29.784L57.216,432z M136,472l-32-24
	h32V472z M392,448l-32,24v-24H392z M466.216,480H376l48-36v-60h42.216l-27.432,48L466.216,480z"/>
<rect x="240" y="360" width="16" height="16"/>
<rect x="224" y="376" width="16" height="16"/>
<rect x="240" y="392" width="16" height="16"/>
<rect x="256" y="376" width="16" height="16"/>
<rect x="344" y="360" width="16" height="16"/>
<rect x="328" y="376" width="16" height="16"/>
<rect x="344" y="392" width="16" height="16"/>
<rect x="360" y="376" width="16" height="16"/>
<rect x="136" y="360" width="16" height="16"/>
<rect x="120" y="376" width="16" height="16"/>
<rect x="136" y="392" width="16" height="16"/>
<rect x="152" y="376" width="16" height="16"/>
<g>
</g>
<g>
</g>
<g>
</g>
<g>
</g>
<g>
</g>
<g>
</g>
<g>
</g>
<g>
</g>
<g>
</g>
<g>
</g>
<g>
</g>
<g>
</g>
<g>
</g>
<g>
</g>
<g>
</g>
</svg>
