<?xml version="1.0" encoding="iso-8859-1"?>
<!-- Generator: Adobe Illustrator 19.0.0, SVG Export Plug-In . SVG Version: 6.00 Build 0)  -->
<svg version="1.1" id="Capa_1" xmlns="http://www.w3.org/2000/svg" xmlns:xlink="http://www.w3.org/1999/xlink" x="0px" y="0px"
	 viewBox="0 0 496 496" style="enable-background:new 0 0 496 496;" xml:space="preserve">
<path style="fill:#F0BC5E;" d="M376,496H120c-4.424,0-8-3.576-8-8V240c0-2.04,0.784-4,2.168-5.488l128-136
	c3.032-3.2,8.624-3.2,11.656,0l128,136C383.216,236,384,237.96,384,240v248C384,492.424,380.424,496,376,496z"/>
<path d="M240,368h16v-16h8c13.232,0,24-10.768,24-24v-8c0-13.232-10.768-24-24-24h-32c-4.408,0-8-3.592-8-8v-8c0-4.408,3.592-8,8-8
	h32c4.408,0,8,3.592,8,8h16c0-13.232-10.768-24-24-24h-8v-16h-16v16h-8c-13.232,0-24,10.768-24,24v8c0,13.232,10.768,24,24,24h32
	c4.408,0,8,3.592,8,8v8c0,4.408-3.592,8-8,8h-32c-4.408,0-8-3.592-8-8h-16c0,13.232,10.768,24,24,24h8V368z"/>
<path d="M240,384v80h112v-80H240z M304,400v48h-16v-48H304z M256,400h16v48h-16V400z M336,448h-16v-48h16V448z"/>
<rect x="144" y="400" width="80" height="16"/>
<rect x="144" y="432" width="80" height="16"/>
<rect x="304" y="296" width="16" height="16"/>
<rect x="176" y="296" width="16" height="16"/>
<path d="M206.592,136.312l11.256-11.96l-16.88-25.328c-5.864-8.8-8.968-19.04-8.968-29.616C192,39.96,215.96,16,245.408,16h5.184
	C280.04,16,304,39.96,304,69.408c0,10.576-3.104,20.824-8.968,29.624l-31.976,47.96C258.4,145.096,253.328,144,248,144
	c-22.056,0-40,17.944-40,40s17.944,40,40,40s40-17.944,40-40c0-10.968-4.448-20.912-11.624-28.144l31.968-47.952
	C315.968,96.464,320,83.152,320,69.408C320,31.136,288.864,0,250.592,0h-5.184C207.136,0,176,31.136,176,69.408
	c0,13.744,4.032,27.056,11.656,38.496L206.592,136.312z M253.848,160.808L248,169.576l-5.848-8.776c1.88-0.472,3.816-0.8,5.848-0.8
	C250.032,160,251.968,160.328,253.848,160.808z M272,184c0,13.232-10.768,24-24,24s-24-10.768-24-24
	c0-5.384,1.84-10.304,4.848-14.312l12.496,18.744c1.488,2.232,3.984,3.568,6.656,3.568s5.168-1.336,6.656-3.56l12.496-18.744
	C270.16,173.696,272,178.616,272,184z"/>
<g>
</g>
<g>
</g>
<g>
</g>
<g>
</g>
<g>
</g>
<g>
</g>
<g>
</g>
<g>
</g>
<g>
</g>
<g>
</g>
<g>
</g>
<g>
</g>
<g>
</g>
<g>
</g>
<g>
</g>
</svg>
