<?xml version="1.0" encoding="iso-8859-1"?>
<!-- Generator: Adobe Illustrator 19.0.0, SVG Export Plug-In . SVG Version: 6.00 Build 0)  -->
<svg version="1.1" id="Capa_1" xmlns="http://www.w3.org/2000/svg" xmlns:xlink="http://www.w3.org/1999/xlink" x="0px" y="0px"
	 viewBox="0 0 496.008 496.008" style="enable-background:new 0 0 496.008 496.008;" xml:space="preserve">
<g>
	<path style="fill:#F0BC5E;" d="M408.008,48.004c-14.416,0-27.992,3.536-40,9.68v156.64c12.008,6.144,25.584,9.68,40,9.68
		c48.6,0,88-39.4,88-88S456.608,48.004,408.008,48.004z"/>
	<path style="fill:#F0BC5E;" d="M328.008,432.004h-32c-4.424,0-8,3.576-8,8v48h16h16h16v-48
		C336.008,435.58,332.432,432.004,328.008,432.004z"/>
	<path style="fill:#F0BC5E;" d="M392.008,400.004h-32c-4.424,0-8,3.576-8,8v80h16h16h16v-80
		C400.008,403.58,396.432,400.004,392.008,400.004z"/>
	<path style="fill:#F0BC5E;" d="M456.008,368.004h-32c-4.424,0-8,3.576-8,8v112h16h16h16v-112
		C464.008,371.58,460.432,368.004,456.008,368.004z"/>
</g>
<path d="M352.008,0.004c-11.352,0-20.832,7.936-23.312,18.536l-3.888,1.768c-53.968,24.528-135.696,35.696-188.8,35.696h-8h-24
	c-10.416,0-19.216,6.712-22.528,16H48.008v16c-26.472,0-48,21.528-48,48s21.528,48,48,48v16H81.48c3.312,9.288,12.112,16,22.528,16
	h24h8c2.584,0,5.288,0.048,8,0.104v24.408c-8.68,1.144-16.736,4.912-23.032,11.2l-13.248,13.256
	c-4.536,4.536-10.56,7.032-16.976,7.032H64v-16H0v160h64v-24h10.752c6.416,0,12.448,2.496,16.968,7.024l5.256,5.264
	c7.552,7.552,17.6,11.712,28.288,11.712H200h8.008h40c13.232,0,24-10.768,24-24c0-6.168-2.408-11.744-6.24-16
	c3.84-4.256,6.24-9.832,6.24-16s-2.408-11.744-6.24-16c3.84-4.256,6.24-9.832,6.24-16s-2.408-11.744-6.24-16
	c3.84-4.256,6.24-9.832,6.24-16c0-13.232-10.768-24-24-24h-1.472c0.896-2.512,1.472-5.184,1.472-8c0-13.232-10.768-24-24-24v-16.336
	c35.808,5.824,72.2,15.032,100.8,28.032l3.888,1.768c2.488,10.6,11.968,18.536,23.312,18.536c13.232,0,24-10.768,24-24v-224
	C376.008,10.772,365.24,0.004,352.008,0.004z M48.008,168.004c-17.648,0-32-14.352-32-32s14.352-32,32-32V168.004z M80.008,184.004
	h-16v-96h16V184.004z M128.008,88.004h-16v16h16v64h-16v16h16v16h-24c-4.416,0-8-3.592-8-8v-112c0-4.408,3.584-8,8-8h24V88.004z
	 M48,400.004H16v-128h32V400.004z M182.24,344.004c-3.84,4.256-6.24,9.832-6.24,16s2.408,11.744,6.24,16
	c-3.84,4.256-6.24,9.832-6.24,16c0,2.816,0.576,5.488,1.472,8h-17.464V291.316l3.312-3.312h14.152c-0.896,2.512-1.472,5.184-1.472,8
	c0,6.168,2.408,11.744,6.24,16c-3.84,4.256-6.24,9.832-6.24,16S178.408,339.748,182.24,344.004z M248.008,400.004h-40H200
	c-4.416,0-8-3.592-8-8s3.584-8,8-8h48.008c4.416,0,8,3.592,8,8S252.424,400.004,248.008,400.004z M248.008,368.004H200
	c-4.416,0-8-3.592-8-8s3.584-8,8-8h48.008c4.416,0,8,3.592,8,8S252.424,368.004,248.008,368.004z M248.008,336.004H200
	c-4.416,0-8-3.592-8-8s3.584-8,8-8h48.008c4.416,0,8,3.592,8,8S252.424,336.004,248.008,336.004z M248.008,288.004
	c4.416,0,8,3.592,8,8s-3.584,8-8,8H200c-4.416,0-8-3.592-8-8s3.584-8,8-8h24.008H248.008z M232.008,264.004c0,4.408-3.584,8-8,8H200
	h-43.304l-34.344,34.344l11.312,11.312l10.344-10.344v92.688h-18.744c-6.416,0-12.448-2.496-16.968-7.024l-5.256-5.264
	c-7.552-7.552-17.6-11.712-28.288-11.712H64v-88h26.752c10.688,0,20.736-4.16,28.288-11.712l13.248-13.256
	c4.536-4.536,10.56-7.032,16.976-7.032h74.744C228.424,256.004,232.008,259.596,232.008,264.004z M160.008,240.004V216.7
	c15.008,0.8,31.28,2.312,48,4.576v18.728H160.008z M144.008,200.084v-16.08h16v-16h-16v-64h16v-16h-16v-16.08
	c53.6-1.04,130.616-12.304,184-35.592v199.336C274.624,212.388,197.608,201.116,144.008,200.084z M360.008,248.004
	c0,4.408-3.584,8-8,8s-8-3.592-8-8v-224c0-4.408,3.584-8,8-8s8,3.592,8,8V248.004z"/>
<path d="M192.824,100.94c28.464-2.896,71.264-9.144,113.592-22.472L301.6,63.212c-41.032,12.92-82.688,18.992-110.408,21.816
	L192.824,100.94z"/>
<path d="M408.008,128.004c-4.416,0-8-3.592-8-8s3.584-8,8-8s8,3.592,8,8h16c0-10.416-6.712-19.216-16-22.528V80.004h-16v17.472
	c-9.288,3.312-16,12.112-16,22.528c0,13.232,10.768,24,24,24c4.416,0,8,3.592,8,8s-3.584,8-8,8s-8-3.592-8-8h-16
	c0,10.416,6.712,19.216,16,22.528v17.472h16v-17.472c9.288-3.312,16-12.112,16-22.528
	C432.008,138.772,421.24,128.004,408.008,128.004z"/>
<path d="M448.008,272.004v16h20.688l-0.808,0.808c-45.912,45.904-106.952,71.192-171.88,71.192v16
	c69.2,0,134.264-26.952,183.192-75.88l0.808-0.808v20.688h16v-48H448.008z"/>
<polygon points="496.008,496.004 272.008,496.004 272.008,480.004 480.008,480.004 480.008,352.004 496.008,352.004 "/>
<rect x="448.008" y="128.004" width="16" height="16"/>
<g>
</g>
<g>
</g>
<g>
</g>
<g>
</g>
<g>
</g>
<g>
</g>
<g>
</g>
<g>
</g>
<g>
</g>
<g>
</g>
<g>
</g>
<g>
</g>
<g>
</g>
<g>
</g>
<g>
</g>
</svg>
