<?xml version="1.0" encoding="iso-8859-1"?>
<!-- Generator: Adobe Illustrator 19.0.0, SVG Export Plug-In . SVG Version: 6.00 Build 0)  -->
<svg version="1.1" id="Capa_1" xmlns="http://www.w3.org/2000/svg" xmlns:xlink="http://www.w3.org/1999/xlink" x="0px" y="0px"
	 viewBox="0 0 499.312 499.312" style="enable-background:new 0 0 499.312 499.312;" xml:space="preserve">
<g>
	<rect x="155.312" y="193.656" style="fill:#F0BC5E;" width="128" height="32"/>
	<path style="fill:#F0BC5E;" d="M483.312,289.656h-96c-8.824,0-16-7.176-16-16v-112c0-2.128,0.84-4.16,2.344-5.656l56-56
		c3.128-3.128,8.184-3.128,11.312,0l56,56c1.504,1.496,2.344,3.528,2.344,5.656v112C499.312,282.48,492.136,289.656,483.312,289.656
		z"/>
</g>
<rect x="401.363" y="201.661" transform="matrix(-0.7071 0.7071 -0.7071 -0.7071 891.3606 50.1072)" width="67.879" height="16"/>
<rect x="211.312" y="113.656" width="16" height="16"/>
<rect x="211.312" y="145.656" width="16" height="16"/>
<rect x="403.312" y="177.656" width="16" height="16"/>
<rect x="451.312" y="225.656" width="16" height="16"/>
<path d="M291.16,223.28v-29.624c0-19.488,5.296-38.624,15.312-55.312l0.952-1.576c5.064-8.44,7.736-18.104,7.736-27.936
	c0-14.504-5.648-28.144-15.904-38.384l-0.032-0.04c0.664-17.808,6.832-35.288,17.536-49.552l14.4-19.2h-80V68.24l-32,12.8l-32-12.8
	V1.656h-80l14.392,19.2C132.248,35.12,138.416,52.6,139.088,70.4l-0.032,0.04c-10.256,10.248-15.904,23.88-15.904,38.392
	c0,9.84,2.672,19.504,7.736,27.936l0.936,1.56c10.024,16.712,15.328,35.84,15.328,55.328v30.312
	c-25.16,59.392-71.176,106.984-129.76,134.064L0,366.072l4.384,7.584c5.704,9.88,14.84,17.344,25.648,21.128
	c0.856,11.408,5.696,22.168,13.768,30.24s18.832,12.912,30.24,13.768c3.776,10.8,11.24,19.936,21.128,25.648
	c9.88,5.704,21.528,7.584,32.768,5.472c6.448,9.456,16.024,16.352,27.04,19.304c11.024,2.968,22.76,1.768,33.072-3.192
	c8.672,7.448,19.752,11.632,31.416,11.632c11.408,0,22.448-4.184,31.12-11.648c10.312,4.976,22.056,6.168,33.064,3.192
	c11.024-2.952,20.6-9.84,27.048-19.304c11.248,2.128,22.88,0.24,32.768-5.472c9.888-5.712,17.344-14.848,21.128-25.648
	c11.408-0.848,22.168-5.696,30.24-13.768c8.072-8.064,12.912-18.832,13.768-30.24c10.8-3.784,19.936-11.248,25.648-21.128
	l4.376-7.584l-17.392-8.04C362.408,330.84,316.248,283,291.16,223.28z M145.552,130.096l-0.936-1.56
	c-3.568-5.944-5.456-12.76-5.456-19.704c0-10.232,3.984-19.848,11.216-27.08l4.784-4.784v-3.312c0-19.76-5.768-39.368-16.368-56
	h32.368v61.416l48,19.2l48-19.2V17.656h32.368c-10.6,16.632-16.368,36.24-16.368,56v3.312l4.784,4.792
	c7.232,7.232,11.216,16.848,11.216,27.08c0,6.936-1.888,13.752-5.448,19.688l-0.952,1.576c-10.144,16.904-16.056,35.96-17.328,55.56
	H162.888C161.616,166.064,155.696,147,145.552,130.096z M163.16,217.656v-16h112v16H163.16z M45.952,389.168l0.416-6.92
	l-6.792-1.392c-6.12-1.256-11.52-4.072-15.8-8.144l0.336-0.16c61.064-28.224,109.232-77.448,136.24-138.896h10.168
	c-6.784,67.096-36.464,129.936-84.264,177.744L75,422.656c-7.552-0.608-14.52-3.576-19.896-8.944
	C48.648,407.24,45.392,398.528,45.952,389.168z M159.112,473.752c-8.824-2.36-16-8.288-20.2-16.672l-3.104-6.2l-6.576,2.192
	c-8.888,2.952-18.152,2.08-26.072-2.496c-7.208-4.16-12.184-10.896-14.464-18.984l8.872-8.872
	c50.8-50.808,82.192-117.704,89.024-189.064h8.712c-0.048,79.544-5.384,159.824-15.888,238.648
	C172.96,475.016,165.944,475.576,159.112,473.752z M335.464,450.576c-7.92,4.576-17.184,5.448-26.072,2.496l-6.576-2.192l-3.104,6.2
	c-4.2,8.384-11.376,14.312-20.208,16.672c-6.832,1.824-13.848,1.264-20.304-1.448c-9.096-68.296-14.344-137.864-15.592-206.792
	l-16,0.288c1.24,68.416,6.432,137.456,15.336,205.296c-6.192,6.792-14.496,10.56-22.952,10.584l-0.832-0.024
	c-8.976,0-17.28-3.768-23.472-10.544c10.304-78.464,15.568-158.32,15.608-237.456h16.016c0,5.36,0.024,10.712,0.072,16.072l16-0.144
	c-0.048-5.312-0.072-10.616-0.072-15.928h8.712c6.832,71.36,38.224,138.256,89.024,189.056l8.872,8.872
	C347.648,439.68,342.672,446.408,335.464,450.576z M399.048,380.856l-6.792,1.392l0.416,6.92c0.552,9.36-2.696,18.072-9.16,24.536
	c-5.368,5.368-12.328,8.352-19.888,8.952l-11.264-11.264c-47.8-47.8-77.48-110.64-84.264-177.736h10.168
	c27.016,61.448,75.176,110.672,136.248,138.896l0.336,0.16C410.576,376.784,405.168,379.6,399.048,380.856z"/>
<path d="M435.312,1.656c-21.008,0-32,36.216-32,72c0,17.224,2.512,33.112,6.904,45.776l12.776-12.776
	c-2.36-9.648-3.68-21.088-3.68-33c0-36.376,11.352-56,16-56s16,19.624,16,56s-11.352,56-16,56v16c21.008,0,32-36.216,32-72
	S456.32,1.656,435.312,1.656z"/>
<g>
</g>
<g>
</g>
<g>
</g>
<g>
</g>
<g>
</g>
<g>
</g>
<g>
</g>
<g>
</g>
<g>
</g>
<g>
</g>
<g>
</g>
<g>
</g>
<g>
</g>
<g>
</g>
<g>
</g>
</svg>
