<?xml version="1.0" encoding="iso-8859-1"?>
<!-- Generator: Adobe Illustrator 19.0.0, SVG Export Plug-In . SVG Version: 6.00 Build 0)  -->
<svg version="1.1" id="Capa_1" xmlns="http://www.w3.org/2000/svg" xmlns:xlink="http://www.w3.org/1999/xlink" x="0px" y="0px"
	 viewBox="0 0 496 496" style="enable-background:new 0 0 496 496;" xml:space="preserve">
<rect x="24" y="240" style="fill:#F0BC5E;" width="160" height="48"/>
<rect x="408" y="296" width="56" height="16"/>
<rect x="368" y="344" width="48" height="16"/>
<rect x="392" y="400" width="56" height="16"/>
<rect x="64" y="240" width="80" height="16"/>
<rect x="64" y="272" width="80" height="16"/>
<rect x="480" y="296" width="16" height="16"/>
<rect x="432" y="344" width="16" height="16"/>
<rect x="464" y="400" width="16" height="16"/>
<path d="M472,48h-92.392c-24.848,0-46.384,15.976-53.592,39.76L280,239.616v-131.84c0-15.248-8.472-28.96-22.112-35.776L232,59.056
	V48h24V0H144v48h24v11.056L142.112,72C128.472,78.816,120,92.528,120,107.776V168H16v145.472C6.712,316.784,0,325.584,0,336
	c0,13.232,10.768,24,24,24h292c6.616,0,12,5.384,12,12s-5.384,12-12,12H72v16h244c15.44,0,28-12.56,28-28s-12.56-28-28-28H24
	c-4.408,0-8-3.592-8-8s3.592-8,8-8h245.936l71.392-235.6c5.152-16.984,20.528-28.4,38.28-28.4H416v16h-36
	c-10.6,0-20.072,7.104-23.04,17.28l-52.64,180.48l15.36,4.48l52.64-180.48c0.992-3.392,4.152-5.76,7.68-5.76h92
	c13.232,0,24-10.768,24-24S485.232,48,472,48z M160,16h80v16h-80V16z M96,200v-16h16v16H96z M80,200H64v-16h16V200z M176,216v96H32
	v-96H176z M176,200h-16v-16h16V200z M144,200h-16v-16h16V200z M48,184v16H32v-16H48z M192,312V168h-56v-60.224
	c0-9.152,5.08-17.376,13.264-21.464L184,68.944V48h32v20.944l34.736,17.368C258.92,90.4,264,98.624,264,107.776v184.64L258.064,312
	H192z M472,80h-40V64h40c4.408,0,8,3.592,8,8S476.408,80,472,80z"/>
<g>
	<path style="fill:#F0BC5E;" d="M72,496c-30.872,0-56-25.128-56-56s25.128-56,56-56s56,25.128,56,56S102.872,496,72,496z"/>
	<path style="fill:#F0BC5E;" d="M304,496c-30.872,0-56-25.128-56-56s25.128-56,56-56s56,25.128,56,56S334.872,496,304,496z"/>
</g>
<path d="M72,464c-13.232,0-24-10.768-24-24s10.768-24,24-24s24,10.768,24,24S85.232,464,72,464z M72,432c-4.408,0-8,3.592-8,8
	s3.592,8,8,8s8-3.592,8-8S76.408,432,72,432z"/>
<path d="M304,464c-13.232,0-24-10.768-24-24s10.768-24,24-24s24,10.768,24,24S317.232,464,304,464z M304,432c-4.408,0-8,3.592-8,8
	s3.592,8,8,8s8-3.592,8-8S308.408,432,304,432z"/>
<path d="M239.152,98.408l-11.576-5.784l-7.152,14.312L232,112.72V160h16v-47.28C248,106.616,244.608,101.136,239.152,98.408z"/>
<rect x="232" y="176" width="16" height="16"/>
<g>
</g>
<g>
</g>
<g>
</g>
<g>
</g>
<g>
</g>
<g>
</g>
<g>
</g>
<g>
</g>
<g>
</g>
<g>
</g>
<g>
</g>
<g>
</g>
<g>
</g>
<g>
</g>
<g>
</g>
</svg>
