<?xml version="1.0" encoding="iso-8859-1"?>
<!-- Generator: Adobe Illustrator 19.0.0, SVG Export Plug-In . SVG Version: 6.00 Build 0)  -->
<svg version="1.1" id="Capa_1" xmlns="http://www.w3.org/2000/svg" xmlns:xlink="http://www.w3.org/1999/xlink" x="0px" y="0px"
	 viewBox="0 0 496 496" style="enable-background:new 0 0 496 496;" xml:space="preserve">
<path style="fill:#F0BC5E;" d="M400,144H96c-13.232,0-24-10.768-24-24V24C72,10.768,82.768,0,96,0h304c13.232,0,24,10.768,24,24v96
	C424,133.232,413.232,144,400,144z"/>
<path d="M448,270.624c0-10.424-1.392-20.8-4.128-30.84L422.112,160H360v-16h-16v16h-16v-16h-16v16H184v-16h-16v16h-16v-16h-16v16
	H73.888l-21.76,79.784C49.392,249.832,48,260.2,48,270.624c0,16.88,9.736,31.632,24,37.96V496h352V308.4
	C438.08,301.944,448,287.304,448,270.624z M367.96,272.368C367.76,285.432,357.104,296,344,296c-13.232,0-24-10.768-24-24h-0.024
	v-0.616L312.64,176h40.496L367.96,272.368z M142.864,176h40.504L176,272c0,13.232-10.768,24-24,24
	c-13.104,0-23.76-10.568-23.96-23.632L142.864,176z M199.408,176H240v96c0,13.232-10.768,24-24,24
	c-13.192,0-23.912-10.696-23.984-23.864L199.408,176z M256,176h40.592L304,272c0,13.232-10.768,24-24,24s-24-10.768-24-24V176z
	 M67.568,244l18.544-68h40.568l-14.584,94.784L112.08,272H112c0,7.2-3.192,13.952-8.752,18.536
	c-5.648,4.656-12.808,6.424-20.168,4.984C72.2,293.392,64,282.688,64,270.624C64,261.624,65.2,252.664,67.568,244z M320.872,383.976
	c-4.464,0.232-8.672-1.32-11.88-4.368C305.776,376.56,304,372.432,304,368v-24h32v22.64C336,375.76,329.216,383.536,320.872,383.976
	z M288,368c0,8.824-7.176,16-16,16s-16-7.176-16-16v-24h32V368z M240,368c0,8.824-7.176,16-16,16s-16-7.176-16-16v-24h32V368z
	 M192,368c0,4.432-1.776,8.56-4.992,11.608s-7.432,4.6-11.88,4.368C166.784,383.536,160,375.76,160,366.64V344h32V368z M176,399.872
	c8.256,0.016,16.016-2.952,22.024-8.656c0.696-0.656,1.352-1.344,1.984-2.064C205.872,395.8,214.456,400,224,400
	s18.136-4.2,24-10.856C253.864,395.8,262.456,400,272,400s18.128-4.2,23.992-10.848c0.632,0.712,1.288,1.408,1.984,2.064
	c6.008,5.704,13.76,8.664,22.024,8.656V480h-40v-64h-64v64h-40V399.872z M264,480h-32v-48h32V480z M336,480v-84.592
	c9.552-5.776,16-16.456,16-28.768V328H144v38.64c0,12.312,6.448,22.984,16,28.768V480H88V311.952
	c9.256-0.008,18.216-3.128,25.416-9.064c2.496-2.056,4.696-4.368,6.6-6.896C127.32,305.704,138.936,312,152,312
	c13.072,0,24.696-6.304,32-16.024c7.304,9.72,18.928,16.024,32,16.024s24.696-6.304,32-16.024c7.304,9.72,18.928,16.024,32,16.024
	s24.696-6.304,32-16.024c7.304,9.72,18.928,16.024,32,16.024c13.064,0,24.688-6.296,31.992-16.016
	c1.504,2.016,3.216,3.896,5.104,5.616c7.352,6.688,17.008,10.152,26.904,10.184V480H336z M410.384,295.888
	c-6.872,0.672-13.464-1.52-18.528-6.128C386.864,285.216,384,278.744,384,272l-14.688-96h40.576l18.544,68
	c2.368,8.664,3.568,17.624,3.568,26.624C432,283.632,422.504,294.728,410.384,295.888z"/>
<path d="M392,32H104v80h288V32z M376,96H120V48h256V96z"/>
<g>
</g>
<g>
</g>
<g>
</g>
<g>
</g>
<g>
</g>
<g>
</g>
<g>
</g>
<g>
</g>
<g>
</g>
<g>
</g>
<g>
</g>
<g>
</g>
<g>
</g>
<g>
</g>
<g>
</g>
</svg>
