<?xml version="1.0" encoding="iso-8859-1"?>
<!-- Generator: Adobe Illustrator 19.0.0, SVG Export Plug-In . SVG Version: 6.00 Build 0)  -->
<svg version="1.1" id="Capa_1" xmlns="http://www.w3.org/2000/svg" xmlns:xlink="http://www.w3.org/1999/xlink" x="0px" y="0px"
	 viewBox="0 0 496 496" style="enable-background:new 0 0 496 496;" xml:space="preserve">
<path d="M448,160h-40c0-15-10.408-27.52-24.352-30.976C379.984,57.28,320.64,0,248,0S116.016,57.28,112.352,129.024
	C98.408,132.48,88,145,88,160H48c-26.472,0-48,21.528-48,48v264c0,13.232,10.768,24,24,24h448c13.232,0,24-10.768,24-24V208
	C496,181.528,474.472,160,448,160z M392,160h-32c0-8.824,7.176-16,16-16S392,151.176,392,160z M248,16
	c63.888,0,116.12,50.224,119.656,113.24C354.072,132.936,344,145.256,344,160H152c0-14.744-10.072-27.064-23.656-30.76
	C131.88,66.224,184.112,16,248,16z M120,144c8.824,0,16,7.176,16,16h-32C104,151.176,111.176,144,120,144z M48,176
	c17.648,0,32,14.352,32,32v260.688l-24-24V304H40v140.688l-24,24V208C16,190.352,30.352,176,48,176z M48,459.312L68.688,480H27.312
	L48,459.312z M480,243.36l-107.968,61.696l7.936,13.888L480,261.784V472c0,4.416-3.592,8-8,8H96V261.784l100.032,57.16l7.936-13.888
	L96,243.36V232h336v-16H96v-8c0-12.28-4.64-23.504-12.256-32H448c17.648,0,32,14.352,32,32V243.36z"/>
<rect x="448" y="216" width="16" height="16"/>
<circle style="fill:#F0BC5E;" cx="288" cy="360" r="104"/>
<path d="M288,320c8.824,0,16,7.176,16,16h16c0-14.872-10.24-27.288-24-30.864V288h-16v17.136c-13.76,3.576-24,15.992-24,30.864
	c0,17.648,14.352,32,32,32c8.824,0,16,7.176,16,16s-7.176,16-16,16s-16-7.176-16-16h-16c0,14.872,10.24,27.288,24,30.864V432h16
	v-17.136c13.76-3.576,24-15.992,24-30.864c0-17.648-14.352-32-32-32c-8.824,0-16-7.176-16-16S279.176,320,288,320z"/>
<rect x="344" y="352" width="16" height="16"/>
<rect x="216" y="352" width="16" height="16"/>
<g>
</g>
<g>
</g>
<g>
</g>
<g>
</g>
<g>
</g>
<g>
</g>
<g>
</g>
<g>
</g>
<g>
</g>
<g>
</g>
<g>
</g>
<g>
</g>
<g>
</g>
<g>
</g>
<g>
</g>
</svg>
