<?xml version="1.0" encoding="iso-8859-1"?>
<!-- Generator: Adobe Illustrator 19.0.0, SVG Export Plug-In . SVG Version: 6.00 Build 0)  -->
<svg version="1.1" id="Capa_1" xmlns="http://www.w3.org/2000/svg" xmlns:xlink="http://www.w3.org/1999/xlink" x="0px" y="0px"
	 viewBox="0 0 496 496" style="enable-background:new 0 0 496 496;" xml:space="preserve">
<path d="M312,288H184c-22.056,0-40-17.944-40-40h16c0,13.232,10.768,24,24,24h128c13.232,0,24-10.768,24-24v-8h16v8
	C352,270.056,334.056,288,312,288z"/>
<rect x="71.992" y="132.225" transform="matrix(-0.4472 0.8944 -0.8944 -0.4472 266.0293 171.5849)" width="16" height="71.55"/>
<polygon points="56,208 40,208 40,144 112,144 112,160 56,160 "/>
<rect x="144" y="240" width="16" height="8"/>
<path d="M496,208h-30.456L456,204.184V144h-72v16h30.112l-33.688,16.84L384,184l-2.968,7.432L422.456,208H73.544l41.424-16.568
	l-5.936-14.856L30.456,208H0v16h24v232c0,22.056,17.944,40,40,40h368c22.056,0,40-17.944,40-40V224h24V208z M440,197.784
	l-36.488-14.592L440,164.944V197.784z M456,456c0,13.232-10.768,24-24,24H64c-13.232,0-24-10.768-24-24V224h416V456z"/>
<rect x="424" y="400" width="16" height="16"/>
<path d="M384,400c-4.416,0-8-3.592-8-8s3.584-8,8-8s8,3.592,8,8h16c0-10.416-6.712-19.216-16-22.528V352h-16v17.472
	c-9.288,3.312-16,12.112-16,22.528c0,13.232,10.768,24,24,24c4.416,0,8,3.592,8,8s-3.584,8-8,8s-8-3.592-8-8h-16
	c0,10.416,6.712,19.216,16,22.528V464h16v-17.472c9.288-3.312,16-12.112,16-22.528C408,410.768,397.232,400,384,400z"/>
<rect x="328" y="400" width="16" height="16"/>
<path style="fill:#F0BC5E;" d="M384,0H112c-4.424,0-8,3.576-8,8v200h288V8C392,3.576,388.424,0,384,0z"/>
<path d="M344,96H152V32h192V96z M168,80h160V48H168V80z"/>
<rect x="152" y="112" width="192" height="16"/>
<rect x="152" y="144" width="192" height="16"/>
<rect x="152" y="176" width="192" height="16"/>
<g>
</g>
<g>
</g>
<g>
</g>
<g>
</g>
<g>
</g>
<g>
</g>
<g>
</g>
<g>
</g>
<g>
</g>
<g>
</g>
<g>
</g>
<g>
</g>
<g>
</g>
<g>
</g>
<g>
</g>
</svg>
