<?xml version="1.0" encoding="iso-8859-1"?>
<!-- Generator: Adobe Illustrator 19.0.0, SVG Export Plug-In . SVG Version: 6.00 Build 0)  -->
<svg version="1.1" id="Capa_1" xmlns="http://www.w3.org/2000/svg" xmlns:xlink="http://www.w3.org/1999/xlink" x="0px" y="0px"
	 viewBox="0 0 496 496" style="enable-background:new 0 0 496 496;" xml:space="preserve">
<g>
	<circle style="fill:#F0BC5E;" cx="56" cy="56" r="48"/>
	<path style="fill:#F0BC5E;" d="M288,248h-64h-16v64c0,4.424,3.576,8,8,8h80c4.424,0,8-3.576,8-8v-64H288z"/>
</g>
<path d="M56,80c13.232,0,24-10.768,24-24S69.232,32,56,32S32,42.768,32,56S42.768,80,56,80z M56,48c4.408,0,8,3.584,8,8
	s-3.592,8-8,8s-8-3.584-8-8S51.592,48,56,48z"/>
<path d="M464,240V84.688L379.312,0H56C25.12,0,0,25.128,0,56v320c0,30.872,25.12,56,56,56s56-25.128,56-56v-24h16v144h368V240H464z
	 M384,27.312L436.688,80H384V27.312z M56,16c22.056,0,40,17.944,40,40S78.056,96,56,96S16,78.056,16,56S33.944,16,56,16z M56,416
	c-22.056,0-40-17.944-40-40V95.112C26.176,105.52,40.336,112,56,112s29.824-6.48,40-16.888V376C96,398.056,78.056,416,56,416z
	 M112,336V56c0-15.664-6.48-29.824-16.888-40H368v80h80v144H128v96H112z M144,256h224v224H144V256z M480,480h-96V256h96V480z"/>
<rect x="280" y="416" width="72" height="16"/>
<rect x="280" y="448" width="72" height="16"/>
<g>
</g>
<g>
</g>
<g>
</g>
<g>
</g>
<g>
</g>
<g>
</g>
<g>
</g>
<g>
</g>
<g>
</g>
<g>
</g>
<g>
</g>
<g>
</g>
<g>
</g>
<g>
</g>
<g>
</g>
</svg>
