<?xml version="1.0" encoding="iso-8859-1"?>
<!-- Generator: Adobe Illustrator 19.0.0, SVG Export Plug-In . SVG Version: 6.00 Build 0)  -->
<svg version="1.1" id="Capa_1" xmlns="http://www.w3.org/2000/svg" xmlns:xlink="http://www.w3.org/1999/xlink" x="0px" y="0px"
	 viewBox="0 0 469.333 469.333" style="enable-background:new 0 0 469.333 469.333;" xml:space="preserve">
<g>
	<path style="fill:#78B9EB;" d="M309.333,256v42.667c0.035,11.767,9.566,21.298,21.333,21.333h106.667
		c11.767-0.035,21.298-9.566,21.333-21.333V256c-0.035-11.767-9.566-21.298-21.333-21.333H330.667
		C318.899,234.702,309.368,244.233,309.333,256z"/>
	<path style="fill:#78B9EB;" d="M276.373,128c6.099-34.816-17.18-67.984-51.997-74.083s-67.984,17.18-74.083,51.997
		c-1.28,7.307-1.28,14.78,0,22.087H276.373z"/>
</g>
<g>
	<path style="fill:#1E81CE;" d="M437.333,224h-10.667v-74.667c0-17.673-14.327-32-32-32v-96c0-5.891-4.776-10.667-10.667-10.667H32
		c-5.891,0-10.667,4.776-10.667,10.667v97.963C8.594,123.8,0.056,135.821,0,149.333v277.333c0,17.673,14.327,32,32,32h362.667
		c17.673,0,32-14.327,32-32v-96h10.667c17.673,0,32-14.327,32-32V256C469.333,238.327,455.006,224,437.333,224z M42.667,32h330.667
		v85.333h-10.667V92.277c0.002-4.519-2.844-8.549-7.104-10.059c-15.179-5.333-27.115-17.27-32.448-32.448
		c-1.509-4.26-5.539-7.106-10.059-7.104h-35.723V64h28.597c7.343,15.546,19.857,28.059,35.403,35.403v17.931H288
		c0-41.237-33.429-74.667-74.667-74.667s-74.667,33.429-74.667,74.667h-64V99.403C90.212,92.059,102.726,79.546,110.069,64h39.264
		V42.667h-46.389c-4.519-0.002-8.549,2.844-10.059,7.104c-5.333,15.179-17.27,27.115-32.448,32.448
		c-4.26,1.509-7.106,5.539-7.104,10.059v25.056H42.667L42.667,32z M266.667,117.333H160C160,87.878,183.878,64,213.333,64
		S266.667,87.878,266.667,117.333z M405.333,426.667c0,5.891-4.776,10.667-10.667,10.667H32c-5.891,0-10.667-4.776-10.667-10.667
		V149.333c0-5.891,4.776-10.667,10.667-10.667h362.667c5.891,0,10.667,4.776,10.667,10.667V224h-74.667c-17.673,0-32,14.327-32,32
		v42.667c0,17.673,14.327,32,32,32h74.667V426.667z M448,298.667c0,5.891-4.776,10.667-10.667,10.667H330.667
		c-5.891,0-10.667-4.776-10.667-10.667V256c0-5.891,4.776-10.667,10.667-10.667h106.667c5.891,0,10.667,4.776,10.667,10.667V298.667
		z"/>
	<path style="fill:#1E81CE;" d="M341.333,266.667h21.333V288h-21.333V266.667z"/>
</g>
<g>
</g>
<g>
</g>
<g>
</g>
<g>
</g>
<g>
</g>
<g>
</g>
<g>
</g>
<g>
</g>
<g>
</g>
<g>
</g>
<g>
</g>
<g>
</g>
<g>
</g>
<g>
</g>
<g>
</g>
</svg>
