<?xml version="1.0" encoding="iso-8859-1"?>
<!-- Generator: Adobe Illustrator 19.0.0, SVG Export Plug-In . SVG Version: 6.00 Build 0)  -->
<svg version="1.1" id="Capa_1" xmlns="http://www.w3.org/2000/svg" xmlns:xlink="http://www.w3.org/1999/xlink" x="0px" y="0px"
	 viewBox="0 0 490.667 490.667" style="enable-background:new 0 0 490.667 490.667;" xml:space="preserve">
<g>
	<path style="fill:#78B9EB;" d="M458.667,224H352c-11.767,0.035-21.298,9.566-21.333,21.333V288
		c0.035,11.767,9.566,21.298,21.333,21.333h106.667c11.767-0.035,21.298-9.566,21.333-21.333v-42.667
		C479.965,233.566,470.434,224.035,458.667,224z"/>
	<path style="fill:#78B9EB;" d="M74.667,32C51.103,32,32,51.103,32,74.667s19.103,42.667,42.667,42.667h362.667V32H74.667z"/>
	<circle style="fill:#78B9EB;" cx="117.333" cy="352" r="106.667"/>
</g>
<g>
	<path style="fill:#1E81CE;" d="M458.667,213.333H448V32c0-5.891-4.776-10.667-10.667-10.667H74.667
		c-29.441,0.035-53.298,23.893-53.333,53.333v170.667h21.333V117.056c9.177,7.059,20.422,10.905,32,10.944h352v85.333H352
		c-17.673,0-32,14.327-32,32V288c0,17.673,14.327,32,32,32l0,0h74.667v96c0,5.891-4.776,10.667-10.667,10.667H224V448h192
		c17.673,0,32-14.327,32-32v-96h10.667c17.673,0,32-14.327,32-32l0,0v-42.667C490.667,227.66,476.34,213.333,458.667,213.333z
		 M42.667,74.667c0-17.673,14.327-32,32-32h352v64h-352C56.994,106.667,42.667,92.34,42.667,74.667z M469.333,288
		c0,5.891-4.776,10.667-10.667,10.667H352c-5.891,0-10.667-4.776-10.667-10.667v-42.667c0-5.891,4.776-10.667,10.667-10.667h106.667
		c5.891,0,10.667,4.776,10.667,10.667V288z"/>
	<path style="fill:#1E81CE;" d="M362.667,256H384v21.333h-21.333V256z"/>
	<path style="fill:#1E81CE;" d="M117.333,234.667C52.532,234.667,0,287.199,0,352s52.532,117.333,117.333,117.333
		S234.667,416.801,234.667,352C234.59,287.23,182.103,234.743,117.333,234.667z M117.333,448c-53.019,0-96-42.981-96-96
		s42.981-96,96-96s96,42.981,96,96C213.269,404.993,170.326,447.935,117.333,448z"/>
	<path style="fill:#1E81CE;" d="M138.667,298.667H128v-21.333h-21.333v21.333H96c-11.782,0-21.333,9.551-21.333,21.333v21.333
		c0,11.782,9.551,21.333,21.333,21.333h42.667V384H96v-10.667H74.667V384c0,11.782,9.551,21.333,21.333,21.333h10.667v21.333H128
		v-21.333h10.667c11.782,0,21.333-9.551,21.333-21.333v-21.333c0-11.782-9.551-21.333-21.333-21.333H96V320h42.667v10.667H160V320
		C160,308.218,150.449,298.667,138.667,298.667z"/>
	<path style="fill:#1E81CE;" d="M170.667,341.333H192v21.333h-21.333V341.333z"/>
	<path style="fill:#1E81CE;" d="M42.667,341.333H64v21.333H42.667V341.333z"/>
	<path style="fill:#1E81CE;" d="M64,64h352v21.333H64V64z"/>
</g>
<g>
</g>
<g>
</g>
<g>
</g>
<g>
</g>
<g>
</g>
<g>
</g>
<g>
</g>
<g>
</g>
<g>
</g>
<g>
</g>
<g>
</g>
<g>
</g>
<g>
</g>
<g>
</g>
<g>
</g>
</svg>
