<?xml version="1.0" encoding="iso-8859-1"?>
<!-- Generator: Adobe Illustrator 19.0.0, SVG Export Plug-In . SVG Version: 6.00 Build 0)  -->
<svg version="1.1" id="Capa_1" xmlns="http://www.w3.org/2000/svg" xmlns:xlink="http://www.w3.org/1999/xlink" x="0px" y="0px"
	 viewBox="0 0 426.667 426.667" style="enable-background:new 0 0 426.667 426.667;" xml:space="preserve">
<g>
	<path style="fill:#78B9EB;" d="M77.495,288h-1.387v10.667C76.075,295.064,76.542,291.474,77.495,288z"/>
	<path style="fill:#78B9EB;" d="M12.108,245.333V416h64V245.333H12.108z"/>
</g>
<g>
	<path style="fill:#1E81CE;" d="M422.103,230.005c-20.849-20.808-54.607-20.808-75.456,0l-26.571,26.571
		c0.866-4.155,1.323-8.385,1.365-12.629V140.053c-0.037-35.559-28.45-64.587-64-65.387V61.035
		c6.579-3.78,10.644-10.781,10.667-18.368v-32C268.108,4.776,263.332,0,257.441,0h-85.333c-5.891,0-10.667,4.776-10.667,10.667v32
		c0.023,7.587,4.088,14.588,10.667,18.368v13.632c-35.546,0.799-63.957,29.821-64,65.376v103.893c0,0.875,0.107,1.685,0.139,2.539
		c-7.776,1.54-15.112,4.794-21.472,9.525v-10.667c0-5.891-4.776-10.667-10.667-10.667h-64c-5.891,0-10.667,4.776-10.667,10.667V416
		c0,5.891,4.776,10.667,10.667,10.667h64c5.891,0,10.667-4.776,10.667-10.667v-10.667h170.667c2.829-0.001,5.541-1.125,7.541-3.125
		l157.12-157.12C426.267,240.923,426.267,234.171,422.103,230.005L422.103,230.005z M182.775,21.333h64v21.333h-64V21.333z
		 M129.441,140.053c0.029-24.318,19.736-44.024,44.053-44.053h9.28c5.891,0,10.667-4.776,10.667-10.667V64h42.667v21.333
		c0,5.891,4.776,10.667,10.667,10.667h9.28c24.318,0.029,44.024,19.736,44.053,44.053v103.893
		c0.066,14.466-7.057,28.02-19.008,36.171c-0.331-0.149-0.704-0.203-1.067-0.341c-1.346-0.539-2.724-0.992-4.128-1.355
		c-0.597-0.149-1.173-0.331-1.771-0.448c-1.984-0.405-4.002-0.619-6.027-0.64h-57.781c-8.463-19.454-27.67-32.027-48.885-32h-32
		c0-0.459,0-0.917,0-1.387L129.441,140.053z M65.441,405.333H22.775V256h42.667V405.333z M253.025,384H86.775v-85.333
		c-0.022-2.56,0.301-5.111,0.96-7.584c0-0.149,0.053-0.299,0.096-0.448c3.613-14.13,16.359-24.003,30.944-23.968h42.667
		c14.581-0.03,27.321,9.842,30.933,23.968c1.205,4.729,5.466,8.037,10.347,8.032h65.387c2.385,0.03,4.694,0.843,6.571,2.315
		c1.726,1.325,2.976,3.174,3.563,5.269c0,0.128,0.117,0.224,0.149,0.341c0.275,0.887,0.405,1.813,0.384,2.741
		c0.004,2.873-1.177,5.621-3.264,7.595c-1.946,1.99-4.62,3.1-7.403,3.072H150.775v21.333h117.333c17.632-0.099,31.901-14.368,32-32
		c0-0.821-0.128-1.621-0.192-2.432l61.867-61.813c9.705-9.394,24.178-11.875,36.459-6.251L253.025,384z"/>
	<path style="fill:#1E81CE;" d="M33.441,277.333h21.333v21.333H33.441V277.333z"/>
	<path style="fill:#1E81CE;" d="M193.441,245.333h10.667V256h21.333v-10.667h10.667c11.782,0,21.333-9.551,21.333-21.333v-21.333
		c0-11.782-9.551-21.333-21.333-21.333h-42.667V160h42.667v10.667h21.333V160c0-11.782-9.551-21.333-21.333-21.333h-10.667V128
		h-21.333v10.667h-10.667c-11.782,0-21.333,9.551-21.333,21.333v21.333c0,11.782,9.551,21.333,21.333,21.333h42.667V224h-42.667
		v-10.667h-21.333V224C172.108,235.782,181.659,245.333,193.441,245.333z"/>
</g>
<g>
</g>
<g>
</g>
<g>
</g>
<g>
</g>
<g>
</g>
<g>
</g>
<g>
</g>
<g>
</g>
<g>
</g>
<g>
</g>
<g>
</g>
<g>
</g>
<g>
</g>
<g>
</g>
<g>
</g>
</svg>
