<?xml version="1.0" encoding="iso-8859-1"?>
<!-- Generator: Adobe Illustrator 19.0.0, SVG Export Plug-In . SVG Version: 6.00 Build 0)  -->
<svg version="1.1" id="Capa_1" xmlns="http://www.w3.org/2000/svg" xmlns:xlink="http://www.w3.org/1999/xlink" x="0px" y="0px"
	 viewBox="0 0 490.667 490.667" style="enable-background:new 0 0 490.667 490.667;" xml:space="preserve">
<g>
	<path style="fill:#78B9EB;" d="M64,159.998c0,23.564,19.103,42.667,42.667,42.667C83.103,202.665,64,183.562,64,159.998z"/>
	<path style="fill:#78B9EB;" d="M416,202.665H229.12l29.653,29.653c4.171,4.187,4.171,10.959,0,15.147l-7.467,7.467
		c-16.57,16.672-43.517,16.754-60.189,0.185c-0.062-0.061-0.123-0.123-0.185-0.185l-41.6-41.6v106.667
		c17.304-0.369,31.631,13.359,32,30.663c0.009,0.446,0.009,0.891,0,1.337H416c-0.369-17.304,13.359-31.631,30.663-32
		c0.446-0.009,0.891-0.009,1.337,0v-85.333C426.667,234.665,416,202.665,416,202.665z"/>
</g>
<g>
	<path style="fill:#1E81CE;" d="M458.667,159.998H313.749l-60.875-60.875c-2-2.001-4.713-3.125-7.541-3.125H10.667
		C4.776,95.998,0,100.774,0,106.665v149.333c0,5.891,4.776,10.667,10.667,10.667H22.4c5.1,24.817,26.931,42.639,52.267,42.667h32
		v54.4c0.333,17.362,14.637,31.189,32,30.933h320c17.363,0.256,31.667-13.571,32-30.933V190.985
		C490.363,173.602,476.05,159.743,458.667,159.998L458.667,159.998z M42.667,255.998c0-5.891-4.776-10.667-10.667-10.667H21.333
		v-128h219.584l42.667,42.667h-80.917v26.88c0.001,2.829,1.125,5.541,3.125,7.541l45.44,45.504l-7.467,7.467
		c-7.474,7.4-18.062,10.733-28.427,8.949c-6.405-1.187-12.298-4.293-16.896-8.907l-52.267-52.267
		c-1.985-2.008-4.686-3.148-7.509-3.168h-32c-17.673,0-32-14.327-32-32H53.333c0.035,29.441,23.893,53.298,53.333,53.333v74.667h-32
		C56.994,287.998,42.667,273.671,42.667,255.998L42.667,255.998z M469.333,363.732c-0.393,5.549-5.107,9.792-10.667,9.6h-320
		c-5.579,0.191-10.301-4.083-10.667-9.653V213.332h6.251l4.416,4.416v102.251c0,5.891,4.776,10.667,10.667,10.667
		c11.782,0,21.333,9.551,21.333,21.333c0,5.891,4.776,10.667,10.667,10.667h96v-21.333h-86.688
		c-3.908-15.015-15.631-26.743-30.645-30.656v-71.595l23.392,23.392c7.618,7.598,17.337,12.74,27.904,14.763l0.181,0.053
		c17.256,3.02,34.906-2.496,47.371-14.805l7.467-7.467c0.128-0.128,0.224-0.288,0.352-0.427v12.075
		c0,11.782,9.551,21.333,21.333,21.333h42.667v21.333H288v-10.667h-21.333v10.667c0,11.782,9.551,21.333,21.333,21.333h10.667
		v10.667H320v-10.667h10.667c11.782,0,21.333-9.551,21.333-21.333v-21.333c0-11.782-9.551-21.333-21.333-21.333H288v-21.333h42.667
		v10.667H352v-10.667c0-11.782-9.551-21.333-21.333-21.333H320v-10.667h-21.333v10.667H288c-6.616,0.021-12.843,3.125-16.843,8.395
		c-1.048-2.857-2.7-5.455-4.843-7.616l-11.445-11.445h22.464v-21.333h-42.667v1.131L224,182.462v-1.131h234.667
		c5.579-0.191,10.301,4.083,10.667,9.653L469.333,363.732z"/>
	<path style="fill:#1E81CE;" d="M448,223.998c-11.782,0-21.333-9.551-21.333-21.333c0-5.891-4.776-10.667-10.667-10.667h-74.667
		v21.333h65.355c3.908,15.015,15.631,26.743,30.645,30.656v66.688c-15.014,3.913-26.738,15.641-30.645,30.656h-65.355v21.333H416
		c5.891,0,10.667-4.776,10.667-10.667c0-11.782,9.551-21.333,21.333-21.333c5.891,0,10.667-4.776,10.667-10.667v-85.333
		C458.667,228.774,453.891,223.998,448,223.998z"/>
	<path style="fill:#1E81CE;" d="M373.333,266.665h21.333v21.333h-21.333V266.665z"/>
</g>
<g>
</g>
<g>
</g>
<g>
</g>
<g>
</g>
<g>
</g>
<g>
</g>
<g>
</g>
<g>
</g>
<g>
</g>
<g>
</g>
<g>
</g>
<g>
</g>
<g>
</g>
<g>
</g>
<g>
</g>
</svg>
