<?xml version="1.0" encoding="iso-8859-1"?>
<!-- Generator: Adobe Illustrator 19.0.0, SVG Export Plug-In . SVG Version: 6.00 Build 0)  -->
<svg version="1.1" id="Capa_1" xmlns="http://www.w3.org/2000/svg" xmlns:xlink="http://www.w3.org/1999/xlink" x="0px" y="0px"
	 viewBox="0 0 490.667 490.667" style="enable-background:new 0 0 490.667 490.667;" xml:space="preserve">
<circle style="fill:#78B9EB;" cx="277.333" cy="245.333" r="64"/>
<g>
	<path style="fill:#1E81CE;" d="M64,245.333h21.333V288H64V245.333z"/>
	<path style="fill:#1E81CE;" d="M480,128H74.667C68.776,128,64,132.776,64,138.667v32H10.667V192H64v10.667h21.333v-53.333h384v192
		h-384v-10.667H64V352c0,5.891,4.776,10.667,10.667,10.667H480c5.891,0,10.667-4.776,10.667-10.667V138.667
		C490.667,132.776,485.891,128,480,128z"/>
	<path style="fill:#1E81CE;" d="M277.333,170.667c-41.237,0-74.667,33.429-74.667,74.667S236.096,320,277.333,320
		S352,286.571,352,245.333C351.953,204.116,318.551,170.714,277.333,170.667z M277.333,298.667
		c-29.455,0-53.333-23.878-53.333-53.333S247.878,192,277.333,192s53.333,23.878,53.333,53.333
		C330.631,274.774,306.774,298.631,277.333,298.667z"/>
	<path style="fill:#1E81CE;" d="M138.667,181.333c0,11.782-9.551,21.333-21.333,21.333c-5.891,0-10.667,4.776-10.667,10.667v64
		c0,5.891,4.776,10.667,10.667,10.667c11.782,0,21.333,9.551,21.333,21.333c0,5.891,4.776,10.667,10.667,10.667h64v-21.333h-54.677
		c-3.913-15.014-15.641-26.738-30.656-30.645v-45.365c15.017-3.912,26.744-15.639,30.656-30.656h54.677v-21.333h-64
		C143.442,170.667,138.667,175.442,138.667,181.333z"/>
	<path style="fill:#1E81CE;" d="M396.011,298.667h-54.677V320h64c5.891,0,10.667-4.776,10.667-10.667
		c0-11.782,9.551-21.333,21.333-21.333c5.891,0,10.667-4.776,10.667-10.667v-64c0-5.891-4.776-10.667-10.667-10.667
		c-11.782,0-21.333-9.551-21.333-21.333c0-5.891-4.776-10.667-10.667-10.667h-64V192h54.677
		c3.912,15.017,15.639,26.744,30.656,30.656v45.365C411.651,271.929,399.924,283.653,396.011,298.667z"/>
	<path style="fill:#1E81CE;" d="M42.667,213.333H96v21.333H42.667V213.333z"/>
	<path style="fill:#1E81CE;" d="M0,213.333h21.333v21.333H0V213.333z"/>
	<path style="fill:#1E81CE;" d="M0,256h42.667v21.333H0V256z"/>
	<path style="fill:#1E81CE;" d="M21.333,298.667H96V320H21.333V298.667z"/>
	<path style="fill:#1E81CE;" d="M181.333,384h85.333v21.333h-85.333V384z"/>
	<path style="fill:#1E81CE;" d="M138.667,384H160v21.333h-21.333V384z"/>
	<path style="fill:#1E81CE;" d="M96,384h21.333v21.333H96V384z"/>
	<path style="fill:#1E81CE;" d="M256,85.333h128v21.333H256V85.333z"/>
	<path style="fill:#1E81CE;" d="M213.333,85.333h21.333v21.333h-21.333V85.333z"/>
	<path style="fill:#1E81CE;" d="M170.667,85.333H192v21.333h-21.333V85.333z"/>
	<path style="fill:#1E81CE;" d="M128,85.333h21.333v21.333H128V85.333z"/>
</g>
<g>
</g>
<g>
</g>
<g>
</g>
<g>
</g>
<g>
</g>
<g>
</g>
<g>
</g>
<g>
</g>
<g>
</g>
<g>
</g>
<g>
</g>
<g>
</g>
<g>
</g>
<g>
</g>
<g>
</g>
</svg>
