<?xml version="1.0" encoding="iso-8859-1"?>
<!-- Generator: Adobe Illustrator 19.0.0, SVG Export Plug-In . SVG Version: 6.00 Build 0)  -->
<svg version="1.1" id="Capa_1" xmlns="http://www.w3.org/2000/svg" xmlns:xlink="http://www.w3.org/1999/xlink" x="0px" y="0px"
	 viewBox="0 0 490.667 490.667" style="enable-background:new 0 0 490.667 490.667;" xml:space="preserve">
<g>
	<path style="fill:#78B9EB;" d="M288,10.667H160c-23.564,0-42.667,19.103-42.667,42.667v21.333h213.333V53.333
		C330.667,29.769,311.564,10.667,288,10.667z"/>
	<path style="fill:#78B9EB;" d="M126.816,357.397c8.071,10.071,20.278,15.933,33.184,15.936h128
		c23.564,0,42.667-19.103,42.667-42.667v-21.333H149.333V320C149.298,335.664,140.643,350.037,126.816,357.397z"/>
	<path style="fill:#78B9EB;" d="M149.333,320c-0.04,15.66-8.693,30.028-22.517,37.387C140.64,350.028,149.294,335.66,149.333,320z"
		/>
	<path style="fill:#78B9EB;" d="M106.667,362.667c7.051-0.045,13.979-1.857,20.149-5.269
		C120.647,360.813,113.718,362.625,106.667,362.667z"/>
	<path style="fill:#78B9EB;" d="M32,480h202.667v-64h-32H53.333H32V480z"/>
	<circle style="fill:#78B9EB;" cx="373.333" cy="192" r="85.333"/>
</g>
<g>
	<path style="fill:#1E81CE;" d="M320,298.667H160v-6.251l49.141-49.141c20.84-20.75,20.912-54.464,0.163-75.304
		c-0.054-0.054-0.108-0.109-0.163-0.163l-7.467-7.467c-8.35-8.341-21.879-8.341-30.229,0l-42.325,42.325H128V85.333h192V96h21.333
		V53.333C341.298,23.893,317.441,0.035,288,0H160c-29.441,0.035-53.298,23.893-53.333,53.333v59.584l-48.373,48.384
		c-10.035,9.978-15.661,23.555-15.627,37.707v206.325H32c-5.891,0-10.667,4.776-10.667,10.667v64
		c0,5.891,4.776,10.667,10.667,10.667h202.667c5.891,0,10.667-4.776,10.667-10.667v-64c0-5.891-4.776-10.667-10.667-10.667h-21.333
		v-1.067c12.703-2.655,23.997-9.863,31.755-20.267H288c29.441-0.035,53.298-23.893,53.333-53.333v-42.005H320V298.667z M128,53.333
		c0-17.673,14.327-32,32-32h128c17.673,0,32,14.327,32,32V64H128V53.333z M64,199.008c0.022-8.482,3.391-16.613,9.376-22.624
		l33.291-33.301V224h26.88c2.829-0.001,5.541-1.125,7.541-3.125l45.504-45.429l7.467,7.467c7.4,7.482,10.733,18.077,8.949,28.448
		c-1.19,6.401-4.296,12.289-8.907,16.885l-52.267,52.267c-2.003,1.98-3.142,4.672-3.168,7.488v32c0,17.673-14.327,32-32,32v21.333
		c5.974-0.067,11.893-1.149,17.504-3.2c9.801,8.92,22.577,13.864,35.829,13.867h42.667c-5.891,0-10.667,4.776-10.667,10.667v10.667
		H64L64,199.008z M224,426.667v42.667H42.667v-42.667H224z M320,330.667c0,17.673-14.327,32-32,32H160
		c-5.697-0.038-11.278-1.607-16.16-4.544c10.323-9.998,16.153-23.752,16.16-38.123h160V330.667z"/>
	<path style="fill:#1E81CE;" d="M373.333,96c-53.019,0-96,42.981-96,96s42.981,96,96,96s96-42.981,96-96
		C469.275,139.005,426.328,96.059,373.333,96z M373.333,266.667c-41.237,0-74.667-33.429-74.667-74.667s33.429-74.667,74.667-74.667
		S448,150.763,448,192C447.953,233.218,414.551,266.62,373.333,266.667z"/>
	<path style="fill:#1E81CE;" d="M394.667,138.667H384V128h-21.333v10.667H352c-11.782,0-21.333,9.551-21.333,21.333v21.333
		c0,11.782,9.551,21.333,21.333,21.333h42.667V224H352v-10.667h-21.333V224c0,11.782,9.551,21.333,21.333,21.333h10.667V256H384
		v-10.667h10.667c11.782,0,21.333-9.551,21.333-21.333v-21.333c0-11.782-9.551-21.333-21.333-21.333H352V160h42.667v10.667H416V160
		C416,148.218,406.449,138.667,394.667,138.667z"/>
	<path style="fill:#1E81CE;" d="M138.667,106.667v32H160v-21.333h21.333V96h-32C143.442,96,138.667,100.776,138.667,106.667z"/>
</g>
<g>
</g>
<g>
</g>
<g>
</g>
<g>
</g>
<g>
</g>
<g>
</g>
<g>
</g>
<g>
</g>
<g>
</g>
<g>
</g>
<g>
</g>
<g>
</g>
<g>
</g>
<g>
</g>
<g>
</g>
</svg>
