<?xml version="1.0" encoding="iso-8859-1"?>
<!-- Generator: Adobe Illustrator 19.0.0, SVG Export Plug-In . SVG Version: 6.00 Build 0)  -->
<svg version="1.1" id="Capa_1" xmlns="http://www.w3.org/2000/svg" xmlns:xlink="http://www.w3.org/1999/xlink" x="0px" y="0px"
	 viewBox="0 0 490.667 490.667" style="enable-background:new 0 0 490.667 490.667;" xml:space="preserve">
<g>
	<path style="fill:#78B9EB;" d="M352,381.172v1.387h10.667C359.064,382.591,355.474,382.125,352,381.172z"/>
	<path style="fill:#78B9EB;" d="M458.667,382.559h-21.333h-74.667H352h-42.667v64H480v-64H458.667z"/>
	<path style="fill:#78B9EB;" d="M138.667,382.559v-1.387c-3.474,0.953-7.064,1.419-10.667,1.387H138.667z"/>
	<path style="fill:#78B9EB;" d="M138.667,382.559H128H53.333H32H10.667v64h170.667v-64H138.667z"/>
	<circle style="fill:#78B9EB;" cx="245.333" cy="201.226" r="85.333"/>
</g>
<g>
	<path style="fill:#1E81CE;" d="M480,371.892h-10.667V201.226c-0.001-2.829-1.125-5.541-3.125-7.541L309.088,36.554
		c-4.236-3.991-10.847-3.991-15.083,0c-20.809,20.852-20.809,54.614,0,75.467l56.32,56.32c-5.706,5.998-8.92,13.94-8.992,22.219
		v57.792c-19.455,8.457-32.028,27.661-32,48.875v42.667c0,11.54,3.743,22.768,10.667,32h-10.667
		c-5.891,0-10.667,4.776-10.667,10.667v64c0,5.891,4.776,10.667,10.667,10.667H480c5.891,0,10.667-4.776,10.667-10.667v-64
		C490.667,376.668,485.891,371.892,480,371.892L480,371.892z M330.667,297.226c-0.026-14.579,9.844-27.318,23.968-30.933
		c4.729-1.205,8.037-5.466,8.032-10.347v-65.387c0.03-2.385,0.843-4.694,2.315-6.571c1.325-1.726,3.174-2.976,5.269-3.563
		c0.128,0,0.224-0.117,0.341-0.149c5.693-1.514,11.536,1.874,13.05,7.567c0.236,0.886,0.356,1.799,0.358,2.716v117.333h21.333
		V190.559c0.063-8.445-3.301-16.554-9.323-22.475c-6.596-6.651-15.781-10.068-25.12-9.344l-61.803-61.803
		c-9.564-9.619-12.064-24.204-6.251-36.459L448,205.642v166.251h-85.333c-2.581,0.023-5.154-0.303-7.648-0.971
		c-0.128,0-0.256,0-0.384-0.085c-14.128-3.617-23.999-16.361-23.968-30.944V297.226z M469.333,435.892H320v-42.667h149.333V435.892z
		"/>
	<path style="fill:#1E81CE;" d="M341.333,403.892h21.333v21.333h-21.333V403.892z"/>
	<path style="fill:#1E81CE;" d="M142.688,171.114c-0.727-0.966-1.511-1.889-2.347-2.763l56.32-56.331
		c20.808-20.849,20.808-54.607,0-75.456c-4.165-4.164-10.917-4.164-15.083,0l-157.12,157.12c-2.001,2-3.125,4.713-3.125,7.541
		v170.667H10.667C4.776,371.892,0,376.668,0,382.559v64c0,5.891,4.776,10.667,10.667,10.667h170.667
		c5.891,0,10.667-4.776,10.667-10.667v-64c0-5.891-4.776-10.667-10.667-10.667h-10.667c6.934-9.226,10.678-20.458,10.667-32v-42.667
		c0.028-21.213-12.545-40.417-32-48.875v-57.792C149.334,183.52,146.996,176.68,142.688,171.114L142.688,171.114z M170.667,435.892
		H21.333v-42.667h149.333V435.892z M160,297.226v42.667c-0.015,14.666-9.998,27.444-24.224,31.008
		c-2.533,0.692-5.15,1.026-7.776,0.992H42.667V205.642L187.829,60.49c5.815,12.251,3.314,26.834-6.251,36.448l-61.803,61.803
		c-9.244-0.725-18.345,2.612-24.928,9.141c-6.123,5.951-9.558,14.139-9.515,22.677v117.333h21.333V190.559
		c0.035-5.891,4.839-10.638,10.73-10.603c0.897,0.005,1.79,0.124,2.657,0.352c0.117,0,0.213,0.107,0.341,0.149
		c2.124,0.587,3.997,1.853,5.333,3.605c1.444,1.861,2.241,4.141,2.272,6.496v65.387c0,4.876,3.307,9.132,8.032,10.336
		C150.16,269.898,160.031,282.642,160,297.226L160,297.226z"/>
	<path style="fill:#1E81CE;" d="M128,403.892h21.333v21.333H128V403.892z"/>
	<path style="fill:#1E81CE;" d="M245.333,105.226c-53.019,0-96,42.981-96,96s42.981,96,96,96s96-42.981,96-96
		C341.275,148.231,298.328,105.284,245.333,105.226z M245.333,275.892c-41.237,0-74.667-33.429-74.667-74.667
		s33.429-74.667,74.667-74.667S320,159.988,320,201.226C319.953,242.443,286.551,275.845,245.333,275.892z"/>
	<path style="fill:#1E81CE;" d="M266.667,147.892H256v-10.667h-21.333v10.667H224c-11.782,0-21.333,9.551-21.333,21.333v21.333
		c0,11.782,9.551,21.333,21.333,21.333h42.667v21.333H224v-10.667h-21.333v10.667c0,11.782,9.551,21.333,21.333,21.333h10.667
		v10.667H256v-10.667h10.667c11.782,0,21.333-9.551,21.333-21.333v-21.333c0-11.782-9.551-21.333-21.333-21.333H224v-21.333h42.667
		v10.667H288v-10.667C288,157.443,278.449,147.892,266.667,147.892z"/>
</g>
<g>
</g>
<g>
</g>
<g>
</g>
<g>
</g>
<g>
</g>
<g>
</g>
<g>
</g>
<g>
</g>
<g>
</g>
<g>
</g>
<g>
</g>
<g>
</g>
<g>
</g>
<g>
</g>
<g>
</g>
</svg>
