<?xml version="1.0" encoding="iso-8859-1"?>
<!-- Generator: Adobe Illustrator 19.0.0, SVG Export Plug-In . SVG Version: 6.00 Build 0)  -->
<svg version="1.1" id="Capa_1" xmlns="http://www.w3.org/2000/svg" xmlns:xlink="http://www.w3.org/1999/xlink" x="0px" y="0px"
	 viewBox="0 0 426.667 426.667" style="enable-background:new 0 0 426.667 426.667;" xml:space="preserve">
<g>
	<path style="fill:#78B9EB;" d="M77.492,288h-1.387v10.667C76.073,295.064,76.539,291.474,77.492,288z"/>
	<path style="fill:#78B9EB;" d="M12.105,245.333V416h64v-21.333v-21.333v-74.667V288v-42.667H12.105z"/>
	<circle style="fill:#78B9EB;" cx="214.772" cy="117.333" r="106.667"/>
</g>
<g>
	<path style="fill:#1E81CE;" d="M422.1,229.995c-20.851-20.802-54.605-20.802-75.456,0l-56.331,56.331
		c-0.86-0.828-1.768-1.605-2.72-2.325c-5.579-4.318-12.433-6.662-19.488-6.667h-57.781c-8.461-19.456-27.669-32.03-48.885-32
		h-42.667c-11.54,0-22.768,3.743-32,10.667v-10.667c0-5.891-4.776-10.667-10.667-10.667h-64c-5.891,0-10.667,4.776-10.667,10.667
		V416c0,5.891,4.776,10.667,10.667,10.667h64c5.891,0,10.667-4.776,10.667-10.667v-10.667h170.667
		c2.829-0.001,5.541-1.125,7.541-3.125l157.12-157.12c4.168-4.163,4.172-10.917,0.008-15.085
		C422.105,230,422.103,229.997,422.1,229.995z M65.438,405.333H22.772V256h42.667V405.333z M253.022,384H86.772v-85.333
		c-0.023-2.564,0.303-5.119,0.971-7.595c0-0.149,0-0.299,0.085-0.448c3.617-14.126,16.362-23.993,30.944-23.957h42.667
		c14.578-0.031,27.317,9.835,30.933,23.957c1.201,4.733,5.463,8.046,10.347,8.043h65.387c2.386,0.024,4.696,0.838,6.571,2.315
		c1.726,1.325,2.976,3.174,3.563,5.269c0,0.117,0.107,0.213,0.149,0.331c0.274,0.891,0.404,1.82,0.384,2.752
		c0.006,2.879-1.18,5.631-3.275,7.605c-1.946,1.982-4.615,3.087-7.392,3.061H150.772v21.333h117.333
		c17.637-0.088,31.912-14.363,32-32c0-0.821-0.128-1.621-0.192-2.432l61.867-61.813c9.61-9.581,24.206-12.084,36.459-6.251
		L253.022,384z"/>
	<path style="fill:#1E81CE;" d="M33.438,277.333h21.333v21.333H33.438V277.333z"/>
	<path style="fill:#1E81CE;" d="M214.772,234.667c64.801,0,117.333-52.532,117.333-117.333S279.573,0,214.772,0
		S97.438,52.532,97.438,117.333C97.515,182.103,150.002,234.59,214.772,234.667z M214.772,21.333c53.019,0,96,42.981,96,96
		s-42.981,96-96,96s-96-42.981-96-96C118.831,64.338,161.777,21.392,214.772,21.333z"/>
	<path style="fill:#1E81CE;" d="M193.438,170.667h10.667V192h21.333v-21.333h10.667c11.782,0,21.333-9.551,21.333-21.333V128
		c0-11.782-9.551-21.333-21.333-21.333h-42.667V85.333h42.667V96h21.333V85.333c0-11.782-9.551-21.333-21.333-21.333h-10.667V42.667
		h-21.333V64h-10.667c-11.782,0-21.333,9.551-21.333,21.333v21.333c0,11.782,9.551,21.333,21.333,21.333h42.667v21.333h-42.667
		v-10.667h-21.333v10.667C172.105,161.115,181.656,170.667,193.438,170.667z"/>
	<path style="fill:#1E81CE;" d="M268.105,106.667h21.333V128h-21.333V106.667z"/>
	<path style="fill:#1E81CE;" d="M140.105,106.667h21.333V128h-21.333V106.667z"/>
</g>
<g>
</g>
<g>
</g>
<g>
</g>
<g>
</g>
<g>
</g>
<g>
</g>
<g>
</g>
<g>
</g>
<g>
</g>
<g>
</g>
<g>
</g>
<g>
</g>
<g>
</g>
<g>
</g>
<g>
</g>
</svg>
