<?xml version="1.0" encoding="iso-8859-1"?>
<!-- Generator: Adobe Illustrator 19.0.0, SVG Export Plug-In . SVG Version: 6.00 Build 0)  -->
<svg version="1.1" id="Capa_1" xmlns="http://www.w3.org/2000/svg" xmlns:xlink="http://www.w3.org/1999/xlink" x="0px" y="0px"
	 viewBox="0 0 468.245 468.245" style="enable-background:new 0 0 468.245 468.245;" xml:space="preserve">
<circle style="fill:#78B9EB;" cx="234.123" cy="234.123" r="106.667"/>
<g>
	<path style="fill:#1E81CE;" d="M116.789,234.123c0,64.801,52.532,117.333,117.333,117.333s117.333-52.532,117.333-117.333
		s-52.532-117.333-117.333-117.333C169.353,116.866,116.866,169.353,116.789,234.123z M330.123,234.123c0,53.019-42.981,96-96,96
		s-96-42.981-96-96s42.981-96,96-96l0,0C287.118,138.181,330.064,181.128,330.123,234.123z"/>
	<path style="fill:#1E81CE;" d="M223.456,159.456v21.333h-10.667c-11.782,0-21.333,9.551-21.333,21.333v21.333
		c0,11.782,9.551,21.333,21.333,21.333h42.667v21.333h-42.667v-10.667h-21.333v10.667c0,11.782,9.551,21.333,21.333,21.333h10.667
		v21.333h21.333v-21.333h10.667c11.782,0,21.333-9.551,21.333-21.333v-21.333c0-11.782-9.551-21.333-21.333-21.333h-42.667v-21.333
		h42.667v10.667h21.333v-10.667c0-11.782-9.551-21.333-21.333-21.333h-10.667v-21.333H223.456z"/>
	<path style="fill:#1E81CE;" d="M287.456,223.456h21.333v21.333h-21.333V223.456z"/>
	<path style="fill:#1E81CE;" d="M159.456,223.456h21.333v21.333h-21.333V223.456z"/>
	<path style="fill:#1E81CE;" d="M63.456,127.456c0.035-29.441,23.893-53.298,53.333-53.333h234.667
		c29.441,0.035,53.298,23.893,53.333,53.333v6.251l-27.04-27.051l-15.083,15.083l45.248,45.259c4.165,4.164,10.917,4.164,15.083,0
		l45.248-45.259l-15.083-15.083l-27.04,27.051v-6.251c-0.047-41.218-33.449-74.62-74.667-74.667H116.789
		c-41.218,0.047-74.62,33.449-74.667,74.667v21.333h21.333V127.456z"/>
	<path style="fill:#1E81CE;" d="M404.789,340.789c-0.035,29.441-23.893,53.298-53.333,53.333H116.789
		c-29.441-0.035-53.298-23.893-53.333-53.333v-6.251l27.04,27.051l15.083-15.083l-45.248-45.259c-4.231-4.001-10.851-4.001-15.083,0
		L0,346.507l15.083,15.083l27.04-27.051v6.251c0.047,41.218,33.449,74.62,74.667,74.667h234.667
		c41.218-0.047,74.62-33.449,74.667-74.667v-21.333h-21.333V340.789z"/>
</g>
<g>
</g>
<g>
</g>
<g>
</g>
<g>
</g>
<g>
</g>
<g>
</g>
<g>
</g>
<g>
</g>
<g>
</g>
<g>
</g>
<g>
</g>
<g>
</g>
<g>
</g>
<g>
</g>
<g>
</g>
</svg>
