<?xml version="1.0" encoding="iso-8859-1"?>
<!-- Generator: Adobe Illustrator 19.0.0, SVG Export Plug-In . SVG Version: 6.00 Build 0)  -->
<svg version="1.1" id="Capa_1" xmlns="http://www.w3.org/2000/svg" xmlns:xlink="http://www.w3.org/1999/xlink" x="0px" y="0px"
	 viewBox="0 0 490.667 490.667" style="enable-background:new 0 0 490.667 490.667;" xml:space="preserve">
<path style="fill:#78B9EB;" d="M245.333,197.654L245.333,197.654C304.244,197.654,352,245.41,352,304.32v53.333
	c0,58.91-47.756,106.667-106.667,106.667l0,0c-58.91,0-106.667-47.756-106.667-106.667V304.32
	C138.667,245.41,186.423,197.654,245.333,197.654z"/>
<g>
	<path style="fill:#1E81CE;" d="M202.667,357.654v10.667c0,11.782,9.551,21.333,21.333,21.333h10.667v21.333H256v-21.333h10.667
		c11.782,0,21.333-9.551,21.333-21.333v-21.333c0-11.782-9.551-21.333-21.333-21.333H224V304.32h42.667v10.667H288V304.32
		c0-11.782-9.551-21.333-21.333-21.333H256v-21.333h-21.333v21.333H224c-11.782,0-21.333,9.551-21.333,21.333v21.333
		c0,11.782,9.551,21.333,21.333,21.333h42.667v21.333H224v-10.667H202.667z"/>
	<path style="fill:#1E81CE;" d="M298.667,325.654H320v21.333h-21.333V325.654z"/>
	<path style="fill:#1E81CE;" d="M170.667,325.654H192v21.333h-21.333V325.654z"/>
	<path style="fill:#1E81CE;" d="M361.728,290.176c-8.172-64.284-66.91-109.771-131.194-101.599
		C172.172,195.997,128.328,245.49,128,304.32h21.333c0.264-53.019,43.459-95.784,96.478-95.52
		c46.243,0.231,85.75,33.397,93.986,78.901l-25.504-25.504l-15.083,15.083l45.248,45.248c4.165,4.164,10.917,4.164,15.083,0
		l45.248-45.248l-15.083-15.083L361.728,290.176z"/>
	<path style="fill:#1E81CE;" d="M245.333,453.654c-46.561-0.081-86.365-33.53-94.464-79.381l25.504,25.504l15.083-15.083
		l-45.248-45.248c-4.165-4.164-10.917-4.164-15.083,0l-45.248,45.248l15.083,15.083l27.979-27.979
		c8.172,64.284,66.91,109.771,131.194,101.599c58.362-7.419,102.206-56.912,102.534-115.743h-21.333
		C341.275,410.649,298.328,453.595,245.333,453.654L245.333,453.654z"/>
	<path style="fill:#1E81CE;" d="M458.667,16.32H32c-17.673,0-32,14.327-32,32v192c0,17.673,14.327,32,32,32h42.667v-21.333H32
		c-5.891,0-10.667-4.776-10.667-10.667v-192c0-5.891,4.776-10.667,10.667-10.667h426.667c5.891,0,10.667,4.776,10.667,10.667v192
		c0,5.891-4.776,10.667-10.667,10.667H416v21.333h42.667c17.673,0,32-14.327,32-32v-192C490.667,30.647,476.34,16.32,458.667,16.32z
		"/>
	<path style="fill:#1E81CE;" d="M245.333,48.32c-53.019-0.011-96.009,42.96-96.021,95.979c-0.004,16.265,4.125,32.264,11.999,46.495
		l18.667-10.325c-19.943-36.094-6.849-81.521,29.245-101.464s81.521-6.849,101.464,29.245c12.416,22.472,12.416,49.747,0,72.219
		l18.645,10.347c25.679-46.386,8.893-104.806-37.493-130.485C277.606,52.452,261.603,48.319,245.333,48.32L245.333,48.32z"/>
	<path style="fill:#1E81CE;" d="M352,240.32h38.261c4.346,0,8.258-2.637,9.888-6.667c7.627-18.71,22.474-33.557,41.184-41.184
		c4.029-1.63,6.667-5.542,6.667-9.888v-76.523c0-4.346-2.637-8.258-6.667-9.888c-18.71-7.627-33.557-22.474-41.184-41.184
		c-1.63-4.029-5.542-6.667-9.888-6.667h-59.595v21.333h52.704c9.363,18.739,24.557,33.933,43.296,43.296v62.741
		c-18.739,9.363-33.933,24.557-43.296,43.296H352V240.32z"/>
	<path style="fill:#1E81CE;" d="M90.517,54.987c-7.627,18.71-22.474,33.557-41.184,41.184c-4.029,1.63-6.667,5.542-6.667,9.888
		v76.523c0,4.346,2.637,8.258,6.667,9.888c18.71,7.627,33.557,22.474,41.184,41.184c1.63,4.029,5.542,6.667,9.888,6.667h38.261
		v-21.333h-31.371C97.933,200.248,82.739,185.054,64,175.691V112.95c18.739-9.363,33.933-24.557,43.296-43.296H160V48.32h-59.595
		C96.059,48.321,92.147,50.958,90.517,54.987z"/>
	<path style="fill:#1E81CE;" d="M362.667,133.654H384v21.333h-21.333V133.654z"/>
	<path style="fill:#1E81CE;" d="M106.667,133.654H128v21.333h-21.333V133.654z"/>
</g>
<g>
</g>
<g>
</g>
<g>
</g>
<g>
</g>
<g>
</g>
<g>
</g>
<g>
</g>
<g>
</g>
<g>
</g>
<g>
</g>
<g>
</g>
<g>
</g>
<g>
</g>
<g>
</g>
<g>
</g>
</svg>
