<?xml version="1.0" encoding="iso-8859-1"?>
<!-- Generator: Adobe Illustrator 19.0.0, SVG Export Plug-In . SVG Version: 6.00 Build 0)  -->
<svg version="1.1" id="Capa_1" xmlns="http://www.w3.org/2000/svg" xmlns:xlink="http://www.w3.org/1999/xlink" x="0px" y="0px"
	 viewBox="0 0 469.333 469.333" style="enable-background:new 0 0 469.333 469.333;" xml:space="preserve">
<circle style="fill:#78B9EB;" cx="234.667" cy="352" r="106.667"/>
<g>
	<path style="fill:#1E81CE;" d="M458.667,0h-448C4.776,0,0,4.776,0,10.667v234.667C0,251.224,4.776,256,10.667,256h138.667v-21.333
		h-128V21.333H448v213.333H320V256h138.667c5.891,0,10.667-4.776,10.667-10.667V10.667C469.333,4.776,464.558,0,458.667,0z"/>
	<path style="fill:#1E81CE;" d="M363.733,192H320v21.333h53.333c5.891,0,10.667-4.776,10.667-10.667c0-17.673,14.327-32,32-32
		c5.891,0,10.667-4.776,10.667-10.667V96c0-5.891-4.776-10.667-10.667-10.667c-17.673,0-32-14.327-32-32
		c0-5.891-4.776-10.667-10.667-10.667H320V64h43.733c4.307,20.934,20.666,37.293,41.6,41.6v44.8
		C384.399,154.707,368.04,171.066,363.733,192L363.733,192z"/>
	<path style="fill:#1E81CE;" d="M105.6,64h33.067V42.667H96c-5.891,0-10.667,4.776-10.667,10.667c0,17.673-14.327,32-32,32
		c-5.891,0-10.667,4.776-10.667,10.667v64c0,5.891,4.776,10.667,10.667,10.667c17.673,0,32,14.327,32,32
		c0,5.891,4.776,10.667,10.667,10.667h42.667V192H105.6c-4.307-20.934-20.666-37.293-41.6-41.6v-44.8
		C84.934,101.293,101.293,84.934,105.6,64z"/>
	<path style="fill:#1E81CE;" d="M202.667,192h70.251l-27.04,27.04l15.083,15.083l45.248-45.248c4.164-4.165,4.164-10.917,0-15.083
		l-45.248-45.248l-15.083,15.083l27.04,27.04h-70.251c-17.673,0-32-14.327-32-32h-21.333
		C149.369,168.107,173.226,191.965,202.667,192L202.667,192z"/>
	<path style="fill:#1E81CE;" d="M197.717,21.877l-45.259,45.248c-4.164,4.165-4.164,10.917,0,15.083l45.259,45.248l15.083-15.083
		l-27.051-27.04h59.584c17.673,0,32,14.327,32,32v21.333h21.333v-21.333C298.631,87.893,274.774,64.035,245.333,64h-59.584
		L212.8,36.96L197.717,21.877z"/>
	<path style="fill:#1E81CE;" d="M394.667,53.333H416v21.333h-21.333V53.333z"/>
	<path style="fill:#1E81CE;" d="M394.667,181.333H416v21.333h-21.333V181.333z"/>
	<path style="fill:#1E81CE;" d="M53.333,53.333h21.333v21.333H53.333V53.333z"/>
	<path style="fill:#1E81CE;" d="M53.333,181.333h21.333v21.333H53.333V181.333z"/>
	<path style="fill:#1E81CE;" d="M305.067,258.133l-12.8,17.067c42.415,31.812,51.012,91.985,19.2,134.4s-91.985,51.012-134.4,19.2
		c-42.415-31.812-51.012-91.984-19.2-134.4c18.13-24.173,46.583-38.4,76.8-38.4v-21.333c-64.801,0-117.333,52.532-117.333,117.333
		s52.532,117.333,117.333,117.333S352,416.801,352,352C352,315.069,334.612,280.292,305.067,258.133L305.067,258.133z"/>
	<path style="fill:#1E81CE;" d="M277.333,330.667V320c0-11.782-9.551-21.333-21.333-21.333h-10.667v-21.333H224v21.333h-10.667
		C201.551,298.667,192,308.218,192,320v21.333c0,11.782,9.551,21.333,21.333,21.333H256V384h-42.667v-10.667H192V384
		c0,11.782,9.551,21.333,21.333,21.333H224v21.333h21.333v-21.333H256c11.782,0,21.333-9.551,21.333-21.333v-21.333
		c0-11.782-9.551-21.333-21.333-21.333h-42.667V320H256v10.667H277.333z"/>
	<path style="fill:#1E81CE;" d="M288,341.333h21.333v21.333H288V341.333z"/>
	<path style="fill:#1E81CE;" d="M160,341.333h21.333v21.333H160V341.333z"/>
</g>
<g>
</g>
<g>
</g>
<g>
</g>
<g>
</g>
<g>
</g>
<g>
</g>
<g>
</g>
<g>
</g>
<g>
</g>
<g>
</g>
<g>
</g>
<g>
</g>
<g>
</g>
<g>
</g>
<g>
</g>
</svg>
