<?xml version="1.0" encoding="iso-8859-1"?>
<!-- Generator: Adobe Illustrator 19.0.0, SVG Export Plug-In . SVG Version: 6.00 Build 0)  -->
<svg version="1.1" id="Capa_1" xmlns="http://www.w3.org/2000/svg" xmlns:xlink="http://www.w3.org/1999/xlink" x="0px" y="0px"
	 viewBox="0 0 458.674 458.674" style="enable-background:new 0 0 458.674 458.674;" xml:space="preserve">
<circle style="fill:#78B9EB;" cx="213.333" cy="128" r="64"/>
<g>
	<path style="fill:#1E81CE;" d="M21.333,32h384v181.333h21.333v-192c0-5.891-4.776-10.667-10.667-10.667H10.667
		C4.776,10.667,0,15.442,0,21.333v213.333c0,5.891,4.776,10.667,10.667,10.667H96V224H21.333V32z"/>
	<path style="fill:#1E81CE;" d="M288,128c0-41.237-33.429-74.667-74.667-74.667S138.667,86.763,138.667,128
		s33.429,74.667,74.667,74.667C254.551,202.62,287.953,169.218,288,128z M213.333,181.333C183.878,181.333,160,157.455,160,128
		s23.878-53.333,53.333-53.333S266.667,98.545,266.667,128C266.631,157.441,242.774,181.298,213.333,181.333z"/>
	<path style="fill:#1E81CE;" d="M74.667,192c0,5.891,4.776,10.667,10.667,10.667h64v-21.333H94.656
		C90.743,166.319,79.015,154.596,64,150.688v-45.376c15.015-3.908,26.743-15.631,30.656-30.645h54.677V53.333h-64
		c-5.891,0-10.667,4.776-10.667,10.667c0,11.782-9.551,21.333-21.333,21.333c-5.891,0-10.667,4.776-10.667,10.667v64
		c0,5.891,4.776,10.667,10.667,10.667C65.115,170.667,74.667,180.218,74.667,192z"/>
	<path style="fill:#1E81CE;" d="M384,96c0-5.891-4.776-10.667-10.667-10.667C361.551,85.333,352,75.782,352,64
		c0-5.891-4.776-10.667-10.667-10.667h-64v21.333h54.677c3.913,15.014,15.641,26.738,30.656,30.645v45.376
		c-15.015,3.908-26.743,15.631-30.656,30.645h-54.677v21.333h64c5.891,0,10.667-4.776,10.667-10.667
		c0-11.782,9.551-21.333,21.333-21.333c5.891,0,10.667-4.776,10.667-10.667V96z"/>
	<path style="fill:#1E81CE;" d="M362.667,53.333H384v21.333h-21.333V53.333z"/>
	<path style="fill:#1E81CE;" d="M362.667,181.333H384v21.333h-21.333V181.333z"/>
	<path style="fill:#1E81CE;" d="M42.667,181.333H64v21.333H42.667V181.333z"/>
	<path style="fill:#1E81CE;" d="M42.667,53.333H64v21.333H42.667V53.333z"/>
	<path style="fill:#1E81CE;" d="M341.333,213.333c-31.135-0.08-61.008,12.294-82.965,34.368l15.083,15.083
		c37.49-37.49,98.274-37.49,135.764,0c37.49,37.49,37.49,98.274,0,135.765c-33.781,33.781-87.262,37.582-125.482,8.918l-12.8,17.067
		c51.841,38.881,125.386,28.374,164.267-23.467c38.881-51.841,28.374-125.386-23.467-164.267
		C391.423,221.568,366.721,213.333,341.333,213.333z"/>
	<path style="fill:#1E81CE;" d="M298.667,352v10.667c0,11.782,9.551,21.333,21.333,21.333h10.667v21.333H352V384h10.667
		c11.782,0,21.333-9.551,21.333-21.333v-21.333c0-11.782-9.551-21.333-21.333-21.333H320v-21.333h42.667v10.667H384v-10.667
		c0-11.782-9.551-21.333-21.333-21.333H352V256h-21.333v21.333H320c-11.782,0-21.333,9.551-21.333,21.333V320
		c0,11.782,9.551,21.333,21.333,21.333h42.667v21.333H320V352H298.667z"/>
	<path style="fill:#1E81CE;" d="M394.667,320H416v21.333h-21.333V320z"/>
	<path style="fill:#1E81CE;" d="M266.667,320H288v21.333h-21.333V320z"/>
	<path style="fill:#1E81CE;" d="M218.283,331.211L203.2,346.293l27.051,27.04H160c-17.673,0-32-14.327-32-32h-21.333
		c0.035,29.441,23.893,53.298,53.333,53.333h70.251l-27.051,27.04l15.083,15.083l45.259-45.248c4.164-4.165,4.164-10.917,0-15.083
		L218.283,331.211z"/>
	<path style="fill:#1E81CE;" d="M256,330.667v-21.333c-0.035-29.441-23.893-53.298-53.333-53.333h-59.584l27.051-27.04
		l-15.083-15.083l-45.259,45.248c-4.164,4.165-4.164,10.917,0,15.083l45.259,45.248l15.083-15.083l-27.051-27.04h59.584
		c17.673,0,32,14.327,32,32v21.333H256z"/>
	<path style="fill:#1E81CE;" d="M192,224h42.667v21.333H192V224z"/>
</g>
<g>
</g>
<g>
</g>
<g>
</g>
<g>
</g>
<g>
</g>
<g>
</g>
<g>
</g>
<g>
</g>
<g>
</g>
<g>
</g>
<g>
</g>
<g>
</g>
<g>
</g>
<g>
</g>
<g>
</g>
</svg>
