<?xml version="1.0" encoding="iso-8859-1"?>
<!-- Generator: Adobe Illustrator 19.0.0, SVG Export Plug-In . SVG Version: 6.00 Build 0)  -->
<svg version="1.1" id="Capa_1" xmlns="http://www.w3.org/2000/svg" xmlns:xlink="http://www.w3.org/1999/xlink" x="0px" y="0px"
	 viewBox="0 0 469.333 469.333" style="enable-background:new 0 0 469.333 469.333;" xml:space="preserve">
<g>
	<circle style="fill:#78B9EB;" cx="298.667" cy="277.333" r="10.667"/>
	<path style="fill:#78B9EB;" d="M298.667,352c0,5.891,4.776,10.667,10.667,10.667H448c5.891,0,10.667-4.776,10.667-10.667v-32h-160
		V352z"/>
	<path style="fill:#78B9EB;" d="M309.333,277.333H448c5.891,0,10.667-4.776,10.667-10.667v-32h-160v32
		C298.667,272.558,303.442,277.333,309.333,277.333z"/>
	<path style="fill:#78B9EB;" d="M458.667,181.333v-32h-160v32c0,5.891,4.776,10.667,10.667,10.667H448
		C453.891,192,458.667,187.224,458.667,181.333z"/>
	<circle style="fill:#78B9EB;" cx="96" cy="256" r="85.333"/>
</g>
<g>
	<path style="fill:#1E81CE;" d="M448,96H309.333C297.551,96,288,105.551,288,117.333v64c0.021,3.756,1.045,7.438,2.965,10.667
		c-1.92,3.228-2.944,6.911-2.965,10.667V224h-74.667v21.333H288v21.333h-85.333V288H288v21.333h-96v21.333h96V352H128
		c0,11.782,9.551,21.333,21.333,21.333H288c3.756-0.021,7.438-1.045,10.667-2.965c3.228,1.92,6.911,2.944,10.667,2.965H448
		c11.782,0,21.333-9.551,21.333-21.333v-64c-0.021-3.756-1.045-7.438-2.965-10.667c1.92-3.228,2.944-6.911,2.965-10.667v-64
		c-0.021-3.756-1.045-7.438-2.965-10.667c1.92-3.228,2.944-6.911,2.965-10.667v-64C469.333,105.551,459.782,96,448,96z M448,309.333
		H309.333V288H448V309.333z M309.333,266.667v-21.333H448v21.333H309.333z M448,224H309.333v-21.333H448V224z M309.333,181.333V160
		H448v21.333H309.333z M309.333,117.333H448v21.333H309.333V117.333z M448,352H309.333v-21.333H448V352z"/>
	<path style="fill:#1E81CE;" d="M192,256c0-53.019-42.981-96-96-96S0,202.981,0,256s42.981,96,96,96
		C148.993,351.935,191.935,308.993,192,256z M96,330.667c-41.237,0-74.667-33.429-74.667-74.667S54.763,181.333,96,181.333
		s74.667,33.429,74.667,74.667C170.62,297.218,137.218,330.62,96,330.667z"/>
	<path style="fill:#1E81CE;" d="M117.333,202.667h-10.667V192H85.333v10.667H74.667c-11.782,0-21.333,9.551-21.333,21.333v21.333
		c0,11.782,9.551,21.333,21.333,21.333h42.667V288H74.667v-10.667H53.333V288c0,11.782,9.551,21.333,21.333,21.333h10.667V320
		h21.333v-10.667h10.667c11.782,0,21.333-9.551,21.333-21.333v-21.333c0-11.782-9.551-21.333-21.333-21.333H74.667V224h42.667
		v10.667h21.333V224C138.667,212.218,129.115,202.667,117.333,202.667z"/>
</g>
<g>
</g>
<g>
</g>
<g>
</g>
<g>
</g>
<g>
</g>
<g>
</g>
<g>
</g>
<g>
</g>
<g>
</g>
<g>
</g>
<g>
</g>
<g>
</g>
<g>
</g>
<g>
</g>
<g>
</g>
</svg>
