<?xml version="1.0" encoding="iso-8859-1"?>
<!-- Generator: Adobe Illustrator 19.0.0, SVG Export Plug-In . SVG Version: 6.00 Build 0)  -->
<svg version="1.1" id="Capa_1" xmlns="http://www.w3.org/2000/svg" xmlns:xlink="http://www.w3.org/1999/xlink" x="0px" y="0px"
	 viewBox="0 0 490.667 490.667" style="enable-background:new 0 0 490.667 490.667;" xml:space="preserve">
<path style="fill:#78B9EB;" d="M458.667,32H32c-11.782,0-21.333,9.551-21.333,21.333v192c0,11.782,9.551,21.333,21.333,21.333
	h426.667c11.782,0,21.333-9.551,21.333-21.333v-192C480,41.551,470.449,32,458.667,32z M245.333,234.667
	c-47.128,0-85.333-38.205-85.333-85.333S198.205,64,245.333,64s85.333,38.205,85.333,85.333S292.462,234.667,245.333,234.667z"/>
<g>
	<path style="fill:#1E81CE;" d="M458.667,21.333H32c-17.673,0-32,14.327-32,32v384c0,17.673,14.327,32,32,32h426.667
		c17.673,0,32-14.327,32-32v-384C490.667,35.66,476.34,21.333,458.667,21.333z M458.667,448H32c-5.891,0-10.667-4.776-10.667-10.667
		v-33.963c3.416,1.263,7.025,1.927,10.667,1.963h426.667c3.642-0.035,7.251-0.699,10.667-1.963v33.963
		C469.333,443.224,464.558,448,458.667,448z M458.667,384H32c-5.891,0-10.667-4.776-10.667-10.667v-33.963
		c3.416,1.263,7.025,1.927,10.667,1.963h426.667c3.642-0.035,7.251-0.699,10.667-1.963v33.963
		C469.333,379.224,464.558,384,458.667,384z M458.667,320H32c-5.891,0-10.667-4.776-10.667-10.667v-33.963
		c3.416,1.263,7.025,1.927,10.667,1.963h426.667c3.642-0.035,7.251-0.699,10.667-1.963v33.963
		C469.333,315.224,464.558,320,458.667,320z M458.667,256H32c-5.891,0-10.667-4.776-10.667-10.667v-192
		c0-5.891,4.776-10.667,10.667-10.667h426.667c5.891,0,10.667,4.776,10.667,10.667v192C469.333,251.224,464.558,256,458.667,256z"/>
	<path style="fill:#1E81CE;" d="M245.333,53.333c-53.019,0-96,42.981-96,96s42.981,96,96,96s96-42.981,96-96
		C341.269,96.341,298.326,53.398,245.333,53.333z M245.333,224c-41.237,0-74.667-33.429-74.667-74.667s33.429-74.667,74.667-74.667
		S320,108.096,320,149.333C319.953,190.551,286.551,223.953,245.333,224z"/>
	<path style="fill:#1E81CE;" d="M441.333,101.184C422.623,93.557,407.777,78.71,400.149,60c-1.63-4.029-5.542-6.667-9.888-6.667
		h-59.595v21.333h52.715c9.359,18.736,24.549,33.926,43.285,43.285v62.763c-18.736,9.359-33.926,24.549-43.285,43.285h-52.715
		v21.333h59.595c4.346,0,8.258-2.637,9.888-6.667c7.627-18.71,22.474-33.557,41.184-41.184c4.029-1.63,6.667-5.542,6.667-9.888
		v-76.523C448,106.726,445.363,102.814,441.333,101.184L441.333,101.184z"/>
	<path style="fill:#1E81CE;" d="M64,180.715v-62.763c18.736-9.359,33.926-24.549,43.285-43.285H160V53.333h-59.595
		c-4.346,0-8.258,2.637-9.888,6.667c-7.627,18.71-22.474,33.557-41.184,41.184c-4.029,1.63-6.667,5.542-6.667,9.888v76.523
		c0,4.346,2.637,8.258,6.667,9.888c18.71,7.627,33.557,22.474,41.184,41.184c1.63,4.029,5.542,6.667,9.888,6.667H160V224h-52.715
		C97.926,205.264,82.736,190.074,64,180.715z"/>
	<path style="fill:#1E81CE;" d="M266.667,96H256V85.333h-21.333V96H224c-11.782,0-21.333,9.551-21.333,21.333v21.333
		c0,11.782,9.551,21.333,21.333,21.333h42.667v21.333H224v-10.667h-21.333v10.667c0,11.782,9.551,21.333,21.333,21.333h10.667
		v10.667H256v-10.667h10.667c11.782,0,21.333-9.551,21.333-21.333V160c0-11.782-9.551-21.333-21.333-21.333H224v-21.333h42.667V128
		H288v-10.667C288,105.551,278.449,96,266.667,96z"/>
</g>
<g>
</g>
<g>
</g>
<g>
</g>
<g>
</g>
<g>
</g>
<g>
</g>
<g>
</g>
<g>
</g>
<g>
</g>
<g>
</g>
<g>
</g>
<g>
</g>
<g>
</g>
<g>
</g>
<g>
</g>
</svg>
