<?xml version="1.0" encoding="iso-8859-1"?>
<!-- Generator: Adobe Illustrator 19.0.0, SVG Export Plug-In . SVG Version: 6.00 Build 0)  -->
<svg version="1.1" id="Capa_1" xmlns="http://www.w3.org/2000/svg" xmlns:xlink="http://www.w3.org/1999/xlink" x="0px" y="0px"
	 viewBox="0 0 458.667 458.667" style="enable-background:new 0 0 458.667 458.667;" xml:space="preserve">
<circle style="fill:#78B9EB;" cx="229.333" cy="277.333" r="106.667"/>
<g>
	<path style="fill:#1E81CE;" d="M293.333,97.632V85.333c17.673,0,32-14.327,32-32V10.667C325.333,4.776,320.558,0,314.667,0H144
		c-5.891,0-10.667,4.776-10.667,10.667v42.667c0,17.673,14.327,32,32,32v12.299C97.979,108.48,48.347,166.445,48,234.667V320
		c0.088,76.547,62.12,138.578,138.667,138.667H272c76.547-0.088,138.578-62.12,138.667-138.667v-85.333
		C410.319,166.445,360.688,108.48,293.333,97.632z M154.667,53.333v-32H304v32C304,59.224,299.224,64,293.333,64h-128
		C159.442,64,154.667,59.224,154.667,53.333z M389.333,320C389.257,384.77,336.77,437.257,272,437.333h-85.333
		C121.897,437.257,69.41,384.77,69.333,320v-85.333c0.286-60.896,46.882-111.564,107.541-116.939
		c5.547-0.456,9.811-5.101,9.792-10.667V85.333H272v21.76c-0.019,5.566,4.245,10.21,9.792,10.667
		c60.647,5.373,107.239,56.023,107.541,116.907V320z"/>
	<path style="fill:#1E81CE;" d="M229.333,160C164.532,160,112,212.532,112,277.333s52.532,117.333,117.333,117.333
		s117.333-52.532,117.333-117.333C346.59,212.564,294.103,160.076,229.333,160z M229.333,373.333c-53.019,0-96-42.981-96-96
		s42.981-96,96-96s96,42.981,96,96C325.275,330.328,282.328,373.275,229.333,373.333z"/>
	<path style="fill:#1E81CE;" d="M250.667,224H240v-21.333h-21.333V224H208c-11.782,0-21.333,9.551-21.333,21.333v21.333
		c0,11.782,9.551,21.333,21.333,21.333h42.667v21.333H208v-10.667h-21.333v10.667c0,11.782,9.551,21.333,21.333,21.333h10.667V352
		H240v-21.333h10.667c11.782,0,21.333-9.551,21.333-21.333V288c0-11.782-9.551-21.333-21.333-21.333H208v-21.333h42.667V256H272
		v-10.667C272,233.551,262.449,224,250.667,224z"/>
	<path style="fill:#1E81CE;" d="M282.667,266.667H304V288h-21.333V266.667z"/>
	<path style="fill:#1E81CE;" d="M154.667,266.667H176V288h-21.333V266.667z"/>
</g>
<g>
</g>
<g>
</g>
<g>
</g>
<g>
</g>
<g>
</g>
<g>
</g>
<g>
</g>
<g>
</g>
<g>
</g>
<g>
</g>
<g>
</g>
<g>
</g>
<g>
</g>
<g>
</g>
<g>
</g>
</svg>
