<?xml version="1.0" encoding="iso-8859-1"?>
<!-- Generator: Adobe Illustrator 19.0.0, SVG Export Plug-In . SVG Version: 6.00 Build 0)  -->
<svg version="1.1" id="Capa_1" xmlns="http://www.w3.org/2000/svg" xmlns:xlink="http://www.w3.org/1999/xlink" x="0px" y="0px"
	 viewBox="0 0 474.958 474.958" style="enable-background:new 0 0 474.958 474.958;" xml:space="preserve">
<g>
	<path style="fill:#78B9EB;" d="M237.479,201.826v17.067C238.247,213.229,238.247,207.489,237.479,201.826z"/>
	<path style="fill:#78B9EB;" d="M214.012,161.292c-17.916-13.247-41.619-15.699-61.867-6.4
		c-5.102,32.992,17.507,63.874,50.499,68.976c11.848,1.832,23.973,0.1,34.834-4.976v-17.067
		C235.447,185.701,226.984,171.083,214.012,161.292z"/>
	<path style="fill:#78B9EB;" d="M237.479,95.159v17.067C238.247,106.563,238.247,100.822,237.479,95.159z"/>
	<path style="fill:#78B9EB;" d="M214.012,54.626c-17.916-13.247-41.619-15.699-61.867-6.4
		c-5.102,32.992,17.507,63.874,50.499,68.976c11.848,1.832,23.973,0.1,34.834-4.976V95.159
		C235.447,79.035,226.984,64.416,214.012,54.626z"/>
	<path style="fill:#78B9EB;" d="M299.463,181.708c17.995-13.135,27.42-35.02,24.597-57.12c-20.06-9.701-43.81-7.719-61.984,5.173
		c-14,10.168-22.958,25.858-24.597,43.083v14.048C257.541,196.588,281.29,194.602,299.463,181.708z"/>
	<path style="fill:#78B9EB;" d="M237.479,186.892v-14.048C236.962,177.513,236.962,182.224,237.479,186.892z"/>
	<path style="fill:#78B9EB;" d="M299.346,73.826c17.731-13.491,26.722-35.559,23.467-57.6
		c-30.244-14.136-66.221-1.078-80.357,29.166c-5.076,10.861-6.809,22.986-4.976,34.834C257.727,89.524,281.43,87.072,299.346,73.826
		z"/>
</g>
<g>
	<path style="fill:#1E81CE;" d="M248.146,240.77v-21.803c0.693-5.702,0.714-11.466,0.064-17.173
		c5.282,1.197,10.68,1.802,16.096,1.803c14.841,0.04,29.319-4.587,41.387-13.227c21.109-15.427,32.195-41.085,28.96-67.029
		c-0.433-3.654-2.719-6.827-6.048-8.395c-23.568-11.333-51.432-8.972-72.757,6.165c-2.719,1.971-5.292,4.135-7.701,6.475V112.3
		c0.693-5.796,0.693-11.654,0-17.451c4.935,1.044,9.964,1.573,15.008,1.579c15.347,0.051,30.295-4.887,42.592-14.069
		c20.805-15.84,31.385-41.716,27.637-67.595c-0.507-3.641-2.852-6.765-6.208-8.267c-23.79-10.863-51.601-7.955-72.629,7.595
		c-12.895,9.73-22.075,23.577-26.016,39.243c-2.511-2.624-5.226-5.045-8.117-7.243c-21.03-15.543-48.838-18.451-72.629-7.595
		c-3.356,1.502-5.702,4.625-6.208,8.267c-3.747,25.879,6.832,51.755,27.637,67.595c12.286,9.172,27.217,14.109,42.549,14.069
		c5.058-0.005,10.103-0.538,15.051-1.589v31.445c-2.021-1.968-4.158-3.813-6.4-5.525c-21.032-15.538-48.838-18.446-72.629-7.595
		c-3.356,1.502-5.702,4.625-6.208,8.267c-3.747,25.879,6.832,51.755,27.637,67.595c12.286,9.172,27.217,14.109,42.549,14.069
		c5.058-0.005,10.103-0.538,15.051-1.589v7.264c-64.533,5.891-112.072,62.981-106.181,127.514s62.981,112.072,127.514,106.181
		c64.533-5.891,112.072-62.981,106.181-127.514C349.18,290.577,304.519,245.916,248.146,240.77L248.146,240.77z M268.306,138.423
		c13.243-9.374,30.194-11.784,45.525-6.475c0.508,27.336-21.24,49.907-48.576,50.415c-5.818,0.108-11.61-0.811-17.109-2.714v-6.784
		C249.79,159.083,257.093,146.605,268.306,138.423L268.306,138.423z M267.346,31.159c13.059-9.623,29.956-12.363,45.387-7.36
		c0.474,16.211-6.892,31.657-19.787,41.493c-13.058,9.627-29.956,12.367-45.387,7.36C247.085,56.441,254.451,40.995,267.346,31.159
		L267.346,31.159z M182.012,97.292c-12.901-9.84-20.268-25.296-19.787-41.515c25.797-8.674,53.742,5.207,62.416,31.004
		c1.032,3.069,1.759,6.232,2.17,9.444v8.64C211.525,109.619,194.888,106.806,182.012,97.292z M182.012,203.959
		c-12.901-9.84-20.268-25.296-19.787-41.515c25.797-8.674,53.742,5.207,62.416,31.004c1.032,3.069,1.759,6.232,2.17,9.444v8.64
		C211.525,216.291,194.886,213.478,182.012,203.959z M237.479,453.559c-53.019,0-96-42.981-96-96s42.981-96,96-96s96,42.981,96,96
		C333.42,410.554,290.474,453.5,237.479,453.559z"/>
	<path style="fill:#1E81CE;" d="M258.812,304.226h-10.667v-21.333h-21.333v21.333h-10.667c-11.782,0-21.333,9.551-21.333,21.333
		v21.333c0,11.782,9.551,21.333,21.333,21.333h42.667v21.333h-42.667v-10.667h-21.333v10.667c0,11.782,9.551,21.333,21.333,21.333
		h10.667v21.333h21.333v-21.333h10.667c11.782,0,21.333-9.551,21.333-21.333v-21.333c0-11.782-9.551-21.333-21.333-21.333h-42.667
		v-21.333h42.667v10.667h21.333v-10.667C280.146,313.777,270.595,304.226,258.812,304.226z"/>
	<path style="fill:#1E81CE;" d="M290.812,346.892h21.333v21.333h-21.333V346.892z"/>
	<path style="fill:#1E81CE;" d="M162.812,346.892h21.333v21.333h-21.333V346.892z"/>
</g>
<g>
</g>
<g>
</g>
<g>
</g>
<g>
</g>
<g>
</g>
<g>
</g>
<g>
</g>
<g>
</g>
<g>
</g>
<g>
</g>
<g>
</g>
<g>
</g>
<g>
</g>
<g>
</g>
<g>
</g>
</svg>
