<?xml version="1.0" encoding="iso-8859-1"?>
<!-- Generator: Adobe Illustrator 19.0.0, SVG Export Plug-In . SVG Version: 6.00 Build 0)  -->
<svg version="1.1" id="Capa_1" xmlns="http://www.w3.org/2000/svg" xmlns:xlink="http://www.w3.org/1999/xlink" x="0px" y="0px"
	 viewBox="0 0 490.667 490.667" style="enable-background:new 0 0 490.667 490.667;" xml:space="preserve">
<circle style="fill:#78B9EB;" cx="245.333" cy="170.667" r="138.667"/>
<g>
	<path style="fill:#1E81CE;" d="M458.667,10.667H32c-17.673,0-32,14.327-32,32v192c0,17.673,14.327,32,32,32h64v-21.333H32
		c-5.891,0-10.667-4.776-10.667-10.667v-192C21.333,36.776,26.109,32,32,32h158.229c-76.587,30.331-114.084,117.006-83.753,193.592
		c21.123,53.337,70.965,89.832,128.19,93.863v53.877c-17.673,0-32,14.327-32,32V480H224v-74.667c0-5.891,4.776-10.667,10.667-10.667
		H256c5.891,0,10.667,4.776,10.667,10.667V480H288v-74.667c0-17.673-14.327-32-32-32v-53.877
		c82.171-5.789,144.09-77.095,138.301-159.266C390.269,102.965,353.774,53.123,300.437,32h158.229
		c5.891,0,10.667,4.776,10.667,10.667v192c0,5.891-4.776,10.667-10.667,10.667h-64v21.333h64c17.673,0,32-14.327,32-32v-192
		C490.667,24.994,476.34,10.667,458.667,10.667z M373.333,170.667c0,70.692-57.308,128-128,128s-128-57.308-128-128
		s57.308-128,128-128C315.994,42.743,373.257,100.006,373.333,170.667z"/>
	<path style="fill:#1E81CE;" d="M220.672,77.867c-33.514,8.922-59.611,35.226-68.267,68.811l20.672,5.333
		c6.723-26.113,27.003-46.573,53.056-53.525L220.672,77.867z"/>
	<path style="fill:#1E81CE;" d="M405.952,183.957l14.101,16c6.302-5.553,13.497-10.003,21.28-13.163
		c4.022-1.627,6.658-5.528,6.667-9.867v-76.523c0-4.346-2.637-8.258-6.667-9.888c-18.71-7.627-33.557-22.474-41.184-41.184
		c-1.63-4.029-5.542-6.667-9.888-6.667h-27.595V64h20.704c9.363,18.739,24.557,33.933,43.296,43.296v62.741
		C419.186,173.756,412.222,178.436,405.952,183.957L405.952,183.957z"/>
	<path style="fill:#1E81CE;" d="M107.296,64H128V42.667h-27.595c-4.346,0-8.258,2.637-9.888,6.667
		C82.89,68.044,68.044,82.89,49.333,90.517c-4.029,1.63-6.667,5.542-6.667,9.888v76.523c-0.002,4.344,2.631,8.255,6.656,9.888
		c11.039,4.497,20.852,11.553,28.629,20.587l16.181-13.867c-8.39-9.75-18.632-17.738-30.133-23.499v-62.741
		C82.739,97.933,97.933,82.739,107.296,64L107.296,64z"/>
	<path style="fill:#1E81CE;" d="M234.667,106.667v10.667H224c-11.782,0-21.333,9.551-21.333,21.333V160
		c0,11.782,9.551,21.333,21.333,21.333h42.667v21.333H224V192h-21.333v10.667c0,11.782,9.551,21.333,21.333,21.333h10.667v10.667
		H256V224h10.667c11.782,0,21.333-9.551,21.333-21.333v-21.333c0-11.782-9.551-21.333-21.333-21.333H224v-21.333h42.667v10.667H288
		v-10.667c0-11.782-9.551-21.333-21.333-21.333H256v-10.667H234.667z"/>
</g>
<g>
</g>
<g>
</g>
<g>
</g>
<g>
</g>
<g>
</g>
<g>
</g>
<g>
</g>
<g>
</g>
<g>
</g>
<g>
</g>
<g>
</g>
<g>
</g>
<g>
</g>
<g>
</g>
<g>
</g>
</svg>
