<?xml version="1.0" encoding="iso-8859-1"?>
<!-- Generator: Adobe Illustrator 19.0.0, SVG Export Plug-In . SVG Version: 6.00 Build 0)  -->
<svg version="1.1" id="Capa_1" xmlns="http://www.w3.org/2000/svg" xmlns:xlink="http://www.w3.org/1999/xlink" x="0px" y="0px"
	 viewBox="0 0 512.001 512.001" style="enable-background:new 0 0 512.001 512.001;" xml:space="preserve">
<g>
	<circle style="fill:#78B9EB;" cx="394.474" cy="277.335" r="85.333"/>
	<path style="fill:#78B9EB;" d="M363.231,95.553c-19.581-10.631-43.394-9.768-62.155,2.251
		c-0.473,33.381,26.205,60.825,59.586,61.298c11.99,0.17,23.759-3.23,33.812-9.767C394.639,127.053,382.669,106.447,363.231,95.553z
		"/>
	<path style="fill:#78B9EB;" d="M456.34,110.647c17.672-13.57,26.561-35.681,23.2-57.707c-30.301-14.014-66.225-0.811-80.239,29.49
		c-5.04,10.897-6.721,23.049-4.828,34.905C414.773,126.551,438.48,123.988,456.34,110.647z"/>
</g>
<g>
	<path style="fill:#1E81CE;" d="M383.807,480.001c0,5.891-4.776,10.667-10.667,10.667h-160v-96c0-5.891-4.776-10.667-10.667-10.667
		h-74.667c-17.673,0-32-14.327-32-32v-74.667c0-5.891-4.776-10.667-10.667-10.667H47.124c0,0,58.283-153.877,58.88-155.733
		c19.587-54.013,71.015-89.882,128.469-89.6h64V0.001h-64C169.13-0.261,110.421,39.88,86.954,100.865
		c-1.216,1.227-65.152,172.8-65.152,172.8c-2.027,5.532,0.815,11.658,6.346,13.685c1.172,0.429,2.411,0.65,3.659,0.651h42.667v64
		c0.035,29.441,23.893,53.298,53.333,53.333h64v96c0,5.891,4.776,10.667,10.667,10.667H373.14c17.673,0,32-14.327,32-32v-85.333
		h-21.333V480.001z"/>
	<path style="fill:#1E81CE;" d="M405.14,181.964v-50.08c4.864,1.004,9.817,1.515,14.784,1.525
		c15.445,0.042,30.481-4.966,42.816-14.261c20.733-15.935,31.191-41.862,27.317-67.723c-0.523-3.636-2.881-6.747-6.24-8.235
		c-23.843-10.743-51.638-7.705-72.597,7.936c-14.912,11.406-24.709,28.247-27.253,46.848c-4.623-4.622-9.873-8.572-15.595-11.733
		c-22.987-12.462-50.924-11.482-72.981,2.56c-3.114,1.956-5,5.379-4.992,9.056c-0.111,26.148,13.958,50.301,36.757,63.104
		c10.43,5.737,22.144,8.735,34.048,8.715c7.687-0.059,15.316-1.337,22.603-3.787v16.075c-52.691,5.891-90.63,53.381-84.739,106.072
		s53.381,90.63,106.072,84.739c52.691-5.891,90.63-53.381,84.739-106.072C484.896,222.13,449.714,186.947,405.14,181.964
		L405.14,181.964z M424.106,68.129c13.021-9.68,29.904-12.502,45.365-7.584c1.157,27.345-20.072,50.451-47.417,51.609
		c-5.946,0.252-11.888-0.57-17.543-2.425C403.964,93.517,411.258,78.032,424.106,68.129z M337.471,142.241
		c-14.154-7.959-23.599-22.258-25.365-38.4c24.533-12.16,54.279-2.13,66.439,22.403c2.635,5.317,4.295,11.064,4.899,16.967
		C368.86,150.32,351.743,149.958,337.471,142.241L337.471,142.241z M394.474,352.001c-41.237,0-74.667-33.429-74.667-74.667
		s33.429-74.667,74.667-74.667s74.667,33.429,74.667,74.667C469.093,318.552,435.692,351.954,394.474,352.001z"/>
	<path style="fill:#1E81CE;" d="M415.807,224.001H405.14v-10.667h-21.333v10.667H373.14c-11.782,0-21.333,9.551-21.333,21.333
		v21.333c0,11.782,9.551,21.333,21.333,21.333h42.667v21.333H373.14v-10.667h-21.333v10.667c0,11.782,9.551,21.333,21.333,21.333
		h10.667v10.667h21.333v-10.667h10.667c11.782,0,21.333-9.551,21.333-21.333v-21.333c0-11.782-9.551-21.333-21.333-21.333H373.14
		v-21.333h42.667v10.667h21.333v-10.667C437.14,233.553,427.589,224.001,415.807,224.001z"/>
</g>
<g>
</g>
<g>
</g>
<g>
</g>
<g>
</g>
<g>
</g>
<g>
</g>
<g>
</g>
<g>
</g>
<g>
</g>
<g>
</g>
<g>
</g>
<g>
</g>
<g>
</g>
<g>
</g>
<g>
</g>
</svg>
