<?xml version="1.0" encoding="iso-8859-1"?>
<!-- Generator: Adobe Illustrator 19.0.0, SVG Export Plug-In . SVG Version: 6.00 Build 0)  -->
<svg version="1.1" id="Capa_1" xmlns="http://www.w3.org/2000/svg" xmlns:xlink="http://www.w3.org/1999/xlink" x="0px" y="0px"
	 viewBox="0 0 469.333 469.333" style="enable-background:new 0 0 469.333 469.333;" xml:space="preserve">
<g>
	<path style="fill:#78B9EB;" d="M10.667,85.333h362.667V128H10.667V85.333z"/>
	<path style="fill:#78B9EB;" d="M437.333,202.667h-320C105.551,202.667,96,212.218,96,224v192c0,11.782,9.551,21.333,21.333,21.333
		h320c11.782,0,21.333-9.551,21.333-21.333V224C458.667,212.218,449.115,202.667,437.333,202.667z M160,256h64v42.667h-64V256z
		 M405.333,394.667h-256V352h256V394.667z M384,309.333c-17.673,0-32-14.327-32-32s14.327-32,32-32s32,14.327,32,32
		S401.673,309.333,384,309.333z"/>
</g>
<g>
	<path style="fill:#1E81CE;" d="M21.333,245.333V138.667h341.333v32H384V53.333c0-17.673-14.327-32-32-32H32
		c-17.673,0-32,14.327-32,32v192c0,17.673,14.327,32,32,32h32V256H32C26.109,256,21.333,251.224,21.333,245.333z M21.333,117.333V96
		h341.333v21.333H21.333z M32,42.667h320c5.891,0,10.667,4.776,10.667,10.667v21.333H21.333V53.333
		C21.333,47.442,26.109,42.667,32,42.667z"/>
	<path style="fill:#1E81CE;" d="M437.333,192h-320c-17.673,0-32,14.327-32,32v192c0,17.673,14.327,32,32,32h320
		c17.673,0,32-14.327,32-32V224C469.333,206.327,455.006,192,437.333,192z M448,416c0,5.891-4.776,10.667-10.667,10.667h-320
		c-5.891,0-10.667-4.776-10.667-10.667V224c0-5.891,4.776-10.667,10.667-10.667h320c5.891,0,10.667,4.776,10.667,10.667V416z"/>
	<path style="fill:#1E81CE;" d="M384,234.667c-23.564,0-42.667,19.103-42.667,42.667S360.436,320,384,320
		c23.564,0,42.667-19.103,42.667-42.667S407.564,234.667,384,234.667z M384,298.667c-11.782,0-21.333-9.551-21.333-21.333
		S372.218,256,384,256c11.782,0,21.333,9.551,21.333,21.333S395.782,298.667,384,298.667z"/>
	<path style="fill:#1E81CE;" d="M405.333,341.333h-256c-5.891,0-10.667,4.776-10.667,10.667v42.667
		c0,5.891,4.776,10.667,10.667,10.667h256c5.891,0,10.667-4.776,10.667-10.667V352C416,346.109,411.224,341.333,405.333,341.333z
		 M394.667,384H160v-21.333h234.667V384z"/>
	<path style="fill:#1E81CE;" d="M160,309.333h64c5.891,0,10.667-4.776,10.667-10.667V256c0-5.891-4.776-10.667-10.667-10.667h-64
		c-5.891,0-10.667,4.776-10.667,10.667v42.667C149.333,304.558,154.109,309.333,160,309.333z M170.667,266.667h42.667V288h-42.667
		V266.667z"/>
</g>
<g>
</g>
<g>
</g>
<g>
</g>
<g>
</g>
<g>
</g>
<g>
</g>
<g>
</g>
<g>
</g>
<g>
</g>
<g>
</g>
<g>
</g>
<g>
</g>
<g>
</g>
<g>
</g>
<g>
</g>
</svg>
