<?xml version="1.0" encoding="iso-8859-1"?>
<!-- Generator: Adobe Illustrator 19.0.0, SVG Export Plug-In . SVG Version: 6.00 Build 0)  -->
<svg version="1.1" id="Capa_1" xmlns="http://www.w3.org/2000/svg" xmlns:xlink="http://www.w3.org/1999/xlink" x="0px" y="0px"
	 viewBox="0 0 490.679 490.679" style="enable-background:new 0 0 490.679 490.679;" xml:space="preserve">
<g>
	<circle style="fill:#78B9EB;" cx="394.673" cy="288" r="32"/>
	<path style="fill:#78B9EB;" d="M160.006,362.667h256v42.667h-256V362.667z"/>
	<path style="fill:#78B9EB;" d="M170.673,266.667h64v42.667h-64V266.667z"/>
	<path style="fill:#78B9EB;" d="M106.673,10.667H85.34c-5.891,0-10.667,4.776-10.667,10.667V96h42.667V21.333
		C117.34,15.442,112.564,10.667,106.673,10.667z"/>
	<path style="fill:#78B9EB;" d="M181.34,96h202.667v42.667H181.34V96z"/>
</g>
<g>
	<path style="fill:#1E81CE;" d="M10.673,64v192c0,17.673,14.327,32,32,32H53.34v-21.333H42.673c-5.891,0-10.667-4.776-10.667-10.667
		V64c0-5.891,4.776-10.667,10.667-10.667H53.34V32H42.673C25,32,10.673,46.327,10.673,64z"/>
	<path style="fill:#1E81CE;" d="M373.34,181.333h21.333V64c0-17.673-14.327-32-32-32H181.34v21.333h181.333
		c5.891,0,10.667,4.776,10.667,10.667v21.333h-192v21.333h192V128h-192v21.333h192V181.333z"/>
	<path style="fill:#1E81CE;" d="M448.006,202.667H149.34V224h298.667c5.891,0,10.667,4.776,10.667,10.667v192
		c0,5.891-4.776,10.667-10.667,10.667H149.34v21.333h298.667c17.673,0,32-14.327,32-32v-192
		C480.006,216.994,465.679,202.667,448.006,202.667z"/>
	<path style="fill:#1E81CE;" d="M437.34,288c0-23.564-19.102-42.667-42.667-42.667S352.006,264.436,352.006,288
		s19.102,42.667,42.667,42.667S437.34,311.564,437.34,288z M373.34,288c0-11.782,9.551-21.333,21.333-21.333
		s21.333,9.551,21.333,21.333c0,11.782-9.551,21.333-21.333,21.333S373.34,299.782,373.34,288z"/>
	<path style="fill:#1E81CE;" d="M149.34,362.667v42.667c0,5.891,4.776,10.667,10.667,10.667h256c5.891,0,10.667-4.776,10.667-10.667
		v-42.667c0-5.891-4.776-10.667-10.667-10.667h-256C154.115,352,149.34,356.776,149.34,362.667z M170.673,373.333H405.34v21.333
		H170.673V373.333z"/>
	<path style="fill:#1E81CE;" d="M234.673,320c5.891,0,10.667-4.776,10.667-10.667v-42.667c0-5.891-4.776-10.667-10.667-10.667h-64
		c-5.891,0-10.667,4.776-10.667,10.667v42.667c0,5.891,4.776,10.667,10.667,10.667H234.673z M181.34,277.333h42.667v21.333H181.34
		V277.333z"/>
	<path style="fill:#1E81CE;" d="M160.006,160V53.333c0-5.891-4.776-10.667-10.667-10.667h-21.333V21.333
		C128.006,9.551,118.455,0,106.673,0H85.34C73.558,0,64.006,9.551,64.006,21.333v405.333c-0.001,1.355,0.256,2.698,0.757,3.957
		l21.333,53.333c2.18,5.473,8.384,8.142,13.857,5.962c2.722-1.084,4.878-3.24,5.962-5.962l21.333-53.333
		c0.502-1.259,0.759-2.602,0.757-3.957V64h10.667v96H160.006z M106.673,21.333v64H85.34v-64H106.673z M96.006,451.285L85.34,424.619
		V106.667h21.333v317.952L96.006,451.285z"/>
</g>
<g>
</g>
<g>
</g>
<g>
</g>
<g>
</g>
<g>
</g>
<g>
</g>
<g>
</g>
<g>
</g>
<g>
</g>
<g>
</g>
<g>
</g>
<g>
</g>
<g>
</g>
<g>
</g>
<g>
</g>
</svg>
