<?xml version="1.0" encoding="iso-8859-1"?>
<!-- Generator: Adobe Illustrator 19.0.0, SVG Export Plug-In . SVG Version: 6.00 Build 0)  -->
<svg version="1.1" id="Capa_1" xmlns="http://www.w3.org/2000/svg" xmlns:xlink="http://www.w3.org/1999/xlink" x="0px" y="0px"
	 viewBox="0 0 490.667 490.667" style="enable-background:new 0 0 490.667 490.667;" xml:space="preserve">
<g>
	<path style="fill:#78B9EB;" d="M378.667,309.333c11.767-0.035,21.298-9.566,21.333-21.333V32
		c-0.035-11.767-9.566-21.298-21.333-21.333h-21.333v298.667H378.667z"/>
	<path style="fill:#78B9EB;" d="M192.213,213.333l45.44-45.44c4.187-4.171,10.959-4.171,15.147,0l7.467,7.467
		c16.672,16.57,16.754,43.517,0.185,60.189c-0.061,0.062-0.123,0.123-0.185,0.185L208,288v21.333h117.333V10.667h-128
		C185.566,10.702,176.035,20.233,176,32v181.333H192.213z"/>
	<path style="fill:#78B9EB;" d="M165.333,362.667C188.897,362.667,208,343.564,208,320C208,343.564,188.897,362.667,165.333,362.667
		z"/>
	<path style="fill:#78B9EB;" d="M90.667,416v64h202.667v-64h-32H112H90.667z"/>
</g>
<path style="fill:#1E81CE;" d="M378.667,0H197.333c-17.673,0-32,14.327-32,32v80.917l-48.373,48.384
	c-10.035,9.978-15.661,23.555-15.627,37.707v206.325H90.667C84.776,405.333,80,410.109,80,416v64
	c0,5.891,4.776,10.667,10.667,10.667h202.667c5.891,0,10.667-4.776,10.667-10.667v-64c0-5.891-4.776-10.667-10.667-10.667H272
	v-1.067c24.817-5.1,42.639-26.931,42.667-52.267v-32h64c17.673,0,32-14.327,32-32V32C410.667,14.327,396.34,0,378.667,0z
	 M346.667,21.333v277.333H336V21.333H346.667z M197.333,21.333h117.333v277.333h-96v-6.251l49.141-49.141
	c7.608-7.615,12.751-17.34,14.763-27.915v-0.171c3.041-17.258-2.473-34.92-14.795-47.381l-7.467-7.467
	c-8.35-8.341-21.879-8.341-30.229,0l-42.293,42.325h-1.12V32C186.667,26.109,191.442,21.333,197.333,21.333L197.333,21.333z
	 M282.667,469.333H101.333v-42.667h181.333V469.333z M293.333,352c0,17.673-14.327,32-32,32c-5.891,0-10.667,4.776-10.667,10.667
	v10.667h-128V199.008c0.022-8.482,3.391-16.613,9.376-22.624l33.291-33.301V224h26.88c2.829-0.001,5.541-1.125,7.541-3.125
	l45.504-45.429l7.467,7.467c7.4,7.482,10.733,18.077,8.949,28.448c-1.19,6.401-4.296,12.289-8.907,16.885l-52.267,52.267
	c-2.003,1.98-3.142,4.672-3.168,7.488v32c0,17.673-14.327,32-32,32v21.333c29.441-0.035,53.298-23.893,53.333-53.333h74.667
	L293.333,352z M389.333,288c0,5.891-4.776,10.667-10.667,10.667H368V21.333h10.667c5.891,0,10.667,4.776,10.667,10.667V288z"/>
<g>
</g>
<g>
</g>
<g>
</g>
<g>
</g>
<g>
</g>
<g>
</g>
<g>
</g>
<g>
</g>
<g>
</g>
<g>
</g>
<g>
</g>
<g>
</g>
<g>
</g>
<g>
</g>
<g>
</g>
</svg>
