<?xml version="1.0" encoding="iso-8859-1"?>
<!-- Generator: Adobe Illustrator 19.0.0, SVG Export Plug-In . SVG Version: 6.00 Build 0)  -->
<svg version="1.1" id="Capa_1" xmlns="http://www.w3.org/2000/svg" xmlns:xlink="http://www.w3.org/1999/xlink" x="0px" y="0px"
	 viewBox="0 0 490.679 490.679" style="enable-background:new 0 0 490.679 490.679;" xml:space="preserve">
<g>
	<circle style="fill:#78B9EB;" cx="245.34" cy="245.333" r="85.333"/>
	<path style="fill:#78B9EB;" d="M394.673,10.667H373.34c-5.891,0-10.667,4.776-10.667,10.667V96h42.667V21.333
		C405.34,15.442,400.564,10.667,394.673,10.667z"/>
</g>
<g>
	<path style="fill:#1E81CE;" d="M21.34,341.333v-192c0-5.891,4.776-10.667,10.667-10.667h298.667v-21.333H32.006
		c-17.673,0-32,14.327-32,32v192c0,17.673,14.327,32,32,32h298.667V352H32.006C26.115,352,21.34,347.224,21.34,341.333z"/>
	<path style="fill:#1E81CE;" d="M458.673,117.333v21.333c5.891,0,10.667,4.776,10.667,10.667v192
		c0,5.891-4.776,10.667-10.667,10.667H437.34v21.333h21.333c17.673,0,32-14.327,32-32v-192
		C490.673,131.66,476.346,117.333,458.673,117.333z"/>
	<path style="fill:#1E81CE;" d="M245.34,149.333c-53.019,0-96,42.981-96,96s42.981,96,96,96s96-42.981,96-96
		C341.281,192.338,298.335,149.392,245.34,149.333z M245.34,320c-41.237,0-74.667-33.429-74.667-74.667s33.429-74.667,74.667-74.667
		s74.667,33.429,74.667,74.667C319.953,286.549,286.555,319.947,245.34,320z"/>
	<path style="fill:#1E81CE;" d="M160.006,149.333h-59.595c-4.346,0-8.258,2.637-9.888,6.667
		c-7.627,18.71-22.474,33.557-41.184,41.184c-4.029,1.63-6.667,5.542-6.667,9.888v76.523c0,4.346,2.637,8.258,6.667,9.888
		c18.71,7.627,33.557,22.474,41.184,41.184c1.63,4.029,5.542,6.667,9.888,6.667h59.595V320h-52.704
		c-9.363-18.739-24.557-33.933-43.296-43.296v-62.741c18.739-9.363,33.933-24.557,43.296-43.296h52.704V149.333z"/>
	<path style="fill:#1E81CE;" d="M266.673,192h-10.667v-10.667h-21.333V192h-10.667c-11.782,0-21.333,9.551-21.333,21.333v21.333
		c0,11.782,9.551,21.333,21.333,21.333h42.667v21.333h-42.667v-10.667h-21.333v10.667c0,11.782,9.551,21.333,21.333,21.333h10.667
		v10.667h21.333v-10.667h10.667c11.782,0,21.333-9.551,21.333-21.333V256c0-11.782-9.551-21.333-21.333-21.333h-42.667v-21.333
		h42.667V224h21.333v-10.667C288.006,201.551,278.455,192,266.673,192z"/>
	<path style="fill:#1E81CE;" d="M448.006,160V53.333c0-5.891-4.776-10.667-10.667-10.667h-21.333V21.333
		C416.006,9.551,406.455,0,394.673,0H373.34c-11.782,0-21.333,9.551-21.333,21.333v405.333c-0.001,1.355,0.256,2.698,0.757,3.957
		l21.333,53.333c2.18,5.473,8.384,8.142,13.857,5.962c2.722-1.084,4.878-3.24,5.962-5.962l21.333-53.333
		c0.502-1.259,0.759-2.602,0.757-3.957V64h10.667v96H448.006z M394.673,21.333v64H373.34v-64H394.673z M384.006,451.285
		l-10.667-26.667V106.667h21.333v317.952L384.006,451.285z"/>
	<path style="fill:#1E81CE;" d="M96.006,234.667h21.333V256H96.006V234.667z"/>
</g>
<g>
</g>
<g>
</g>
<g>
</g>
<g>
</g>
<g>
</g>
<g>
</g>
<g>
</g>
<g>
</g>
<g>
</g>
<g>
</g>
<g>
</g>
<g>
</g>
<g>
</g>
<g>
</g>
<g>
</g>
</svg>
